<?xml version="1.0" encoding="UTF-8" standalone="no"?><svg xmlns="http://www.w3.org/2000/svg" xmlns:xlink="http://www.w3.org/1999/xlink" contentScriptType="application/ecmascript" contentStyleType="text/css" height="769px" preserveAspectRatio="none" style="width:402px;height:769px;background:#FFFFFF;" version="1.1" viewBox="0 0 402 769" width="402px" zoomAndPan="magnify"><defs><filter height="300%" id="f14wjs8mak8zcg" width="300%" x="-1" y="-1"><feGaussianBlur result="blurOut" stdDeviation="2.0"/><feColorMatrix in="blurOut" result="blurOut2" type="matrix" values="0 0 0 0 0 0 0 0 0 0 0 0 0 0 0 0 0 0 .4 0"/><feOffset dx="4.0" dy="4.0" in="blurOut2" result="blurOut3"/><feBlend in="SourceGraphic" in2="blurOut3" mode="normal"/></filter></defs><g><ellipse cx="16" cy="32" fill="#000000" filter="url(#f14wjs8mak8zcg)" rx="10" ry="10" style="stroke:none;stroke-width:1.0;"/><g id="Standby"><rect fill="#DCDCDC" filter="url(#f14wjs8mak8zcg)" height="50" rx="12.5" ry="12.5" style="stroke:#000000;stroke-width:1.5;" width="76" x="137" y="7"/><line style="stroke:#000000;stroke-width:1.5;" x1="137" x2="213" y1="33.2969" y2="33.2969"/><text fill="#000000" font-family="Helvetica" font-size="14" lengthAdjust="spacing" textLength="56" x="147" y="24.9951">Standby</text></g><g id="ShutDown"><rect fill="#DCDCDC" filter="url(#f14wjs8mak8zcg)" height="64.2344" rx="12.5" ry="12.5" style="stroke:#000000;stroke-width:1.5;" width="132" x="31" y="596"/><line style="stroke:#000000;stroke-width:1.5;" x1="31" x2="163" y1="622.2969" y2="622.2969"/><text fill="#000000" font-family="Helvetica" font-size="14" lengthAdjust="spacing" textLength="72" x="61" y="613.9951">ShutDown</text><text fill="#000000" font-family="Helvetica" font-size="12" lengthAdjust="spacing" textLength="112" x="36" y="638.4355">entry / post(EvKill)</text><text fill="#000000" font-family="Helvetica" font-size="12" lengthAdjust="spacing" textLength="105" x="36" y="652.4043">exit / terminate()</text></g><ellipse cx="97" cy="747" filter="url(#f14wjs8mak8zcg)" rx="10" ry="10" style="stroke:#000000;stroke-width:1.0;fill:none;"/><ellipse cx="97.5" cy="747.5" fill="#000000" rx="6" ry="6" style="stroke:none;stroke-width:1.0;"/><rect fill="#DCDCDC" filter="url(#f14wjs8mak8zcg)" height="384.5625" rx="12.5" ry="12.5" style="stroke:#000000;stroke-width:1.5;" width="253" x="137.5" y="134"/><rect fill="#FFFFFF" height="352.2656" rx="12.5" ry="12.5" style="stroke:#FFFFFF;stroke-width:1.0;" width="247" x="140.5" y="163.2969"/><line style="stroke:#000000;stroke-width:1.5;" x1="137.5" x2="390.5" y1="160.2969" y2="160.2969"/><text fill="#000000" font-family="Helvetica" font-size="14" lengthAdjust="spacing" textLength="58" x="235" y="151.9951">Running</text><g id="Running.Initializing"><rect fill="#DCDCDC" filter="url(#f14wjs8mak8zcg)" height="50.2656" rx="12.5" ry="12.5" style="stroke:#000000;stroke-width:1.5;" width="204" x="149.5" y="244.2969"/><line style="stroke:#000000;stroke-width:1.5;" x1="149.5" x2="353.5" y1="270.5938" y2="270.5938"/><text fill="#000000" font-family="Helvetica" font-size="14" lengthAdjust="spacing" textLength="66" x="218.5" y="262.292">Initializing</text><text fill="#000000" font-family="Helvetica" font-size="12" lengthAdjust="spacing" textLength="184" x="154.5" y="286.7324">entry / algorithm-&gt;initialize(..)</text></g><g id="Running.Evaluating"><rect fill="#DCDCDC" filter="url(#f14wjs8mak8zcg)" height="50.2656" rx="12.5" ry="12.5" style="stroke:#000000;stroke-width:1.5;" width="187" x="158" y="347.2969"/><line style="stroke:#000000;stroke-width:1.5;" x1="158" x2="345" y1="373.5938" y2="373.5938"/><text fill="#000000" font-family="Helvetica" font-size="14" lengthAdjust="spacing" textLength="70" x="216.5" y="365.292">Evaluating</text><text fill="#000000" font-family="Helvetica" font-size="12" lengthAdjust="spacing" textLength="167" x="163" y="389.7324">entry / algorithm-&gt;solve(..)</text></g><g id="Running.Waiting"><rect fill="#DCDCDC" filter="url(#f14wjs8mak8zcg)" height="50.2656" rx="12.5" ry="12.5" style="stroke:#000000;stroke-width:1.5;" width="187" x="158" y="450.2969"/><line style="stroke:#000000;stroke-width:1.5;" x1="158" x2="345" y1="476.5938" y2="476.5938"/><text fill="#000000" font-family="Helvetica" font-size="14" lengthAdjust="spacing" textLength="50" x="226.5" y="468.292">Waiting</text><text fill="#000000" font-family="Helvetica" font-size="12" lengthAdjust="spacing" textLength="167" x="163" y="492.7324">entry / algorithm-&gt;timer(..)</text></g><ellipse cx="251.5" cy="181.2969" fill="#000000" filter="url(#f14wjs8mak8zcg)" rx="10" ry="10" style="stroke:none;stroke-width:1.0;"/><!--MD5=[266b61d118a054b3637c1e6c44ae5c25]
link *start*Running to Initializing--><path d="M251.5,191.3916 C251.5,202.9292 251.5,222.3588 251.5,238.9272 " fill="none" id="*start*Running-to-Initializing" style="stroke:#000000;stroke-width:1.0;"/><polygon fill="#000000" points="251.5,243.9654,255.5,234.9654,251.5,238.9654,247.5,234.9654,251.5,243.9654" style="stroke:#000000;stroke-width:1.0;"/><text fill="#000000" font-family="Helvetica" font-size="13" lengthAdjust="spacing" textLength="128" x="252.5" y="222.3638">AlgorithmCreator(..)</text><!--MD5=[299e7210b3e08105b7097b4c1598acd3]
link Initializing to Evaluating--><path d="M251.5,294.4935 C251.5,308.8337 251.5,326.8931 251.5,342.0022 " fill="none" id="Initializing-to-Evaluating" style="stroke:#000000;stroke-width:1.0;"/><polygon fill="#000000" points="251.5,347.0034,255.5,338.0034,251.5,342.0034,247.5,338.0034,251.5,347.0034" style="stroke:#000000;stroke-width:1.0;"/><text fill="#000000" font-family="Helvetica" font-size="13" lengthAdjust="spacing" textLength="54" x="252.5" y="325.3638">EvReady</text><!--MD5=[526cae05a04b8592f7e8b3fb054dcd48]
link Evaluating to Waiting--><path d="M223.9995,397.556 C219.7038,402.9572 215.8984,408.9611 213.5,415.2969 C209.4874,425.8969 213.2558,436.6205 219.7347,446.0122 " fill="none" id="Evaluating-to-Waiting" style="stroke:#000000;stroke-width:1.0;"/><polygon fill="#000000" points="222.884,450.2284,220.7026,440.6241,219.8918,446.2226,214.2933,445.4117,222.884,450.2284" style="stroke:#000000;stroke-width:1.0;"/><text fill="#000000" font-family="Helvetica" font-size="13" lengthAdjust="spacing" textLength="54" x="214.5" y="428.3638">EvReady</text><!--MD5=[b431b6f99dbdb5755f650637bbd33444]
link Waiting to Evaluating--><path d="M264.0692,449.9016 C266.3191,444.2384 268.3207,438.1684 269.5,432.2969 C271.4879,422.4001 269.6679,411.7922 266.54,402.2899 " fill="none" id="Waiting-to-Evaluating" style="stroke:#000000;stroke-width:1.0;"/><polygon fill="#000000" points="264.7983,397.4313,264.07,407.2532,266.4856,402.138,271.6008,404.5535,264.7983,397.4313" style="stroke:#000000;stroke-width:1.0;"/><text fill="#000000" font-family="Helvetica" font-size="13" lengthAdjust="spacing" textLength="67" x="270.5" y="428.3638">EvTimeout</text><!--MD5=[7641b4f2f3a056cc28391d7f56dae009]
link *start to Standby--><path d="M26.4324,32 C47.4385,32 95.8881,32 131.7792,32 " fill="none" id="*start-to-Standby" style="stroke:#000000;stroke-width:1.0;"/><polygon fill="#000000" points="136.9787,32,127.9787,28,131.9787,32,127.9787,36,136.9787,32" style="stroke:#000000;stroke-width:1.0;"/><text fill="#000000" font-family="Helvetica" font-size="13" lengthAdjust="spacing" textLength="74" x="44.5" y="25.0669">DdsTriad(..)</text><!--MD5=[5e9725ba1ea169f5bfe00c65f28f00bc]
link Standby to Running--><path d="M171.0543,57.2155 C169.5977,71.1353 168.9539,88.661 172,104 C173.6182,112.1487 175.5397,120.3732 177.7076,128.6127 " fill="none" id="Standby-to-Running" style="stroke:#000000;stroke-width:1.0;"/><polygon fill="#000000" points="179.0888,133.7443,180.6121,124.014,177.7892,128.9161,172.887,126.0933,179.0888,133.7443" style="stroke:#000000;stroke-width:1.0;"/><text fill="#000000" font-family="Helvetica" font-size="13" lengthAdjust="spacing" textLength="47" x="173" y="100.0669">EvStart</text><!--MD5=[c6319911b562830f3033560c33e275eb]
reverse link Standby to Running--><path d="M206.8386,60.8322 C213.8193,68.6717 220.4693,77.6116 225,87 C232.1407,101.7968 238.0109,117.6437 242.8319,133.8773 " fill="none" id="Standby-backto-Running" style="stroke:#000000;stroke-width:1.0;"/><polygon fill="#000000" points="203.393,57.0749,206.5278,66.4115,206.7724,60.76,212.4239,61.0046,203.393,57.0749" style="stroke:#000000;stroke-width:1.0;"/><text fill="#000000" font-family="Helvetica" font-size="13" lengthAdjust="spacing" textLength="131" x="231" y="100.0669">EvStop || EvInterrupt</text><!--MD5=[c0126bff45d721b57fc6a498f5bd79b8]
link Standby to ShutDown--><path d="M143.4089,57.2745 C122.7217,75.9695 97.4687,103.412 86,134 C25.6872,294.8588 66.4674,506.3484 87.0849,590.8185 " fill="none" id="Standby-to-ShutDown" style="stroke:#000000;stroke-width:1.0;"/><polygon fill="#000000" points="88.2921,595.7139,90.0209,586.018,87.095,590.8593,82.2536,587.9334,88.2921,595.7139" style="stroke:#000000;stroke-width:1.0;"/><text fill="#000000" font-family="Helvetica" font-size="13" lengthAdjust="spacing" textLength="32" x="87" y="331.0669">EvKill</text><!--MD5=[ca148371cbbcfa8c1cb292edbf31b5a0]
reverse link Standby to Standby--><path d="M218.4219,20.4016 C234.6411,20.013 248,23.8792 248,32 C248,40.9609 231.7342,44.7413 213.3081,43.3412 " fill="none" id="Standby-backto-Standby" style="stroke:#000000;stroke-width:1.0;"/><polygon fill="#000000" points="213.3081,20.6588,222.4977,24.2017,218.3018,20.4077,222.0958,16.2118,213.3081,20.6588" style="stroke:#000000;stroke-width:1.0;"/><text fill="#000000" font-family="Helvetica" font-size="13" lengthAdjust="spacing" textLength="67" x="254" y="36.5669">EvTimeout</text><!--MD5=[1f8677e81e8593f51796f33582b5ae71]
link ShutDown to *end--><path d="M97,660.2031 C97,683.4083 97,713.6858 97,731.6614 " fill="none" id="ShutDown-to-*end" style="stroke:#000000;stroke-width:1.0;"/><polygon fill="#000000" points="97,736.8236,101,727.8236,97,731.8236,93,727.8236,97,736.8236" style="stroke:#000000;stroke-width:1.0;"/><text fill="#000000" font-family="Helvetica" font-size="13" lengthAdjust="spacing" textLength="32" x="98" y="703.0669">EvKill</text><!--MD5=[08d04af93efa1a2956fe3ff6bd93326b]
link Running to ShutDown--><path d="M157.2908,519.1516 C142.2047,546.388 128.2165,571.6421 117.5193,590.9547 " fill="none" id="Running-to-ShutDown" style="stroke:#000000;stroke-width:1.0;"/><polygon fill="#000000" points="114.8719,595.7342,122.7318,589.7994,117.2946,591.3604,115.7337,585.9231,114.8719,595.7342" style="stroke:#000000;stroke-width:1.0;"/><text fill="#000000" font-family="Helvetica" font-size="13" lengthAdjust="spacing" textLength="222" x="139" y="562.0669">EvKill || EvError || exception_thrown</text><!--MD5=[d1c0e046b1805d26b7371b31d8c02af1]
@startuml
!include ../static/style.puml
skinparam backgroundColor white
[*] -> Standby : DdsTriad(..)

state Standby
state ShutDown
ShutDown: entry / post(EvKill)
ShutDown: exit / terminate()
state Running {
state Initializing
state Evaluating
state Waiting
[*] -do-> Initializing : AlgorithmCreator(..)


}
Standby -do-> Running : EvStart
Standby -ri-> ShutDown : EvKill
Standby -up-> Standby : EvTimeout
ShutDown - -> [*] : EvKill
Running -up-> Standby : EvStop || EvInterrupt
Running -do-> ShutDown : EvKill || EvError || exception_thrown
Initializing : entry / algorithm->initialize(..)
Initializing -do-> Evaluating : EvReady
Evaluating - -> Waiting : EvReady
Evaluating : entry / algorithm->solve(..)
Waiting -do-> Evaluating : EvTimeout
Waiting : entry / algorithm->timer(..)
@enduml

@startuml
skinparam defaultFontName  Helvetica
skinparam backgroundColor transparent
skinparam sequenceMessageAlign center

skinparam activity {
        ArrowColor Black
        BorderColor Black
        BorderThickness 1
}

skinparam sequence {
        BackgroundColor #85bbf0
        ArrowColor Black
        ActorBorderColor Black
        LifeLineBorderColor Black
        LifeLineBackgroundColor #85bbf0
}

skinparam participant {
        BorderColor Black
        BackgroundColor #85bbf0
}

skinparam actor {
        BorderColor Black
        BackgroundColor #85bbf0
}

skinparam usecase {
        ArrowColor Black
        BorderColor Black
        BorderThickness 1
}

skinparam class {
        ArrowColor Black

        BorderColor Black
        BorderThickness 1
}


skinparam object {
        ArrowColor Black
        BorderColor Black
}

skinparam package {
        BorderColor Black
}

skinparam note {
        BorderColor Black
}

skinparam state {
        ArrowColor Black
        BorderColor Black
        BackgroundColor Gainsboro
}


skinparam interface {
        BorderColor Black
}
skinparam backgroundColor white
[*] -> Standby : DdsTriad(..)

state Standby
state ShutDown
ShutDown: entry / post(EvKill)
ShutDown: exit / terminate()
state Running {
state Initializing
state Evaluating
state Waiting
[*] -do-> Initializing : AlgorithmCreator(..)


}
Standby -do-> Running : EvStart
Standby -ri-> ShutDown : EvKill
Standby -up-> Standby : EvTimeout
ShutDown - -> [*] : EvKill
Running -up-> Standby : EvStop || EvInterrupt
Running -do-> ShutDown : EvKill || EvError || exception_thrown
Initializing : entry / algorithm->initialize(..)
Initializing -do-> Evaluating : EvReady
Evaluating - -> Waiting : EvReady
Evaluating : entry / algorithm->solve(..)
Waiting -do-> Evaluating : EvTimeout
Waiting : entry / algorithm->timer(..)
@enduml

PlantUML version 1.2021.7(Sun May 23 12:40:07 GMT 2021)
(GPL source distribution)
Java Runtime: OpenJDK Runtime Environment
JVM: OpenJDK 64-Bit Server VM
Default Encoding: UTF-8
Language: en
Country: US
--></g></svg>