<?xml version="1.0" encoding="UTF-8" standalone="no"?><svg xmlns="http://www.w3.org/2000/svg" xmlns:xlink="http://www.w3.org/1999/xlink" contentScriptType="application/ecmascript" contentStyleType="text/css" height="384px" preserveAspectRatio="none" style="width:703px;height:384px;background:#FFFFFF;" version="1.1" viewBox="0 0 703 384" width="703px" zoomAndPan="magnify"><defs/><g><rect height="20.2969" rx="5" ry="5" style="stroke:#00000000;stroke-width:1.5;fill:none;" width="86" x="10" y="171"/><text fill="#000000" font-family="sans-serif" font-size="14" lengthAdjust="spacing" textLength="54" x="15" y="185.9951">outputs</text><text fill="#000000" font-family="sans-serif" font-size="14" lengthAdjust="spacing" textLength="0" x="91" y="185.9951"/><line style="stroke:#000000;stroke-width:1.0;" x1="74" x2="74" y1="171" y2="191.2969"/><rect fill="none" height="20.2969" rx="5" ry="5" style="stroke:#000000;stroke-width:1.5;" width="86" x="10" y="171"/><rect height="20.2969" rx="5" ry="5" style="stroke:#00000000;stroke-width:1.5;fill:none;" width="62" x="133" y="171"/><text fill="#000000" font-family="sans-serif" font-size="14" lengthAdjust="spacing" textLength="30" x="138" y="185.9951">map</text><text fill="#000000" font-family="sans-serif" font-size="14" lengthAdjust="spacing" textLength="0" x="190" y="185.9951"/><line style="stroke:#000000;stroke-width:1.0;" x1="173" x2="173" y1="171" y2="191.2969"/><rect fill="none" height="20.2969" rx="5" ry="5" style="stroke:#000000;stroke-width:1.5;" width="62" x="133" y="171"/><rect height="223.2656" rx="5" ry="5" style="stroke:#00000000;stroke-width:1.5;fill:none;" width="215" x="232" y="69.5"/><text fill="#000000" font-family="sans-serif" font-size="14" lengthAdjust="spacing" textLength="12" x="237" y="84.4951">id</text><text fill="#000000" font-family="sans-serif" font-size="14" lengthAdjust="spacing" textLength="54" x="388" y="84.4951">[string:]</text><line style="stroke:#000000;stroke-width:1.0;" x1="383" x2="383" y1="69.5" y2="89.7969"/><line style="stroke:#000000;stroke-width:1.0;" x1="232" x2="447" y1="89.7969" y2="89.7969"/><text fill="#000000" font-family="sans-serif" font-size="14" lengthAdjust="spacing" textLength="115" x="237" y="104.792">trajectory_vessel</text><text fill="#000000" font-family="sans-serif" font-size="14" lengthAdjust="spacing" textLength="0" x="400" y="104.792"/><line style="stroke:#000000;stroke-width:1.0;" x1="383" x2="383" y1="89.7969" y2="110.0938"/><line style="stroke:#000000;stroke-width:1.0;" x1="232" x2="447" y1="110.0938" y2="110.0938"/><text fill="#000000" font-family="sans-serif" font-size="14" lengthAdjust="spacing" textLength="141" x="237" y="125.0889">trajectory_vessel_rot</text><text fill="#000000" font-family="sans-serif" font-size="14" lengthAdjust="spacing" textLength="0" x="400" y="125.0889"/><line style="stroke:#000000;stroke-width:1.0;" x1="383" x2="383" y1="110.0938" y2="130.3906"/><line style="stroke:#000000;stroke-width:1.0;" x1="232" x2="447" y1="130.3906" y2="130.3906"/><text fill="#000000" font-family="sans-serif" font-size="14" lengthAdjust="spacing" textLength="95" x="237" y="145.3857">trajectory_fish</text><text fill="#000000" font-family="sans-serif" font-size="14" lengthAdjust="spacing" textLength="0" x="400" y="145.3857"/><line style="stroke:#000000;stroke-width:1.0;" x1="383" x2="383" y1="130.3906" y2="150.6875"/><line style="stroke:#000000;stroke-width:1.0;" x1="232" x2="447" y1="150.6875" y2="150.6875"/><text fill="#000000" font-family="sans-serif" font-size="14" lengthAdjust="spacing" textLength="70" x="237" y="165.6826">nlp_config</text><text fill="#000000" font-family="sans-serif" font-size="14" lengthAdjust="spacing" textLength="0" x="400" y="165.6826"/><line style="stroke:#000000;stroke-width:1.0;" x1="383" x2="383" y1="150.6875" y2="170.9844"/><line style="stroke:#000000;stroke-width:1.0;" x1="232" x2="447" y1="170.9844" y2="170.9844"/><text fill="#000000" font-family="sans-serif" font-size="14" lengthAdjust="spacing" textLength="62" x="237" y="185.9795">nlp_stats</text><text fill="#000000" font-family="sans-serif" font-size="14" lengthAdjust="spacing" textLength="0" x="400" y="185.9795"/><line style="stroke:#000000;stroke-width:1.0;" x1="383" x2="383" y1="170.9844" y2="191.2813"/><line style="stroke:#000000;stroke-width:1.0;" x1="232" x2="447" y1="191.2813" y2="191.2813"/><text fill="#000000" font-family="sans-serif" font-size="14" lengthAdjust="spacing" textLength="95" x="237" y="206.2764">vessel_speed</text><text fill="#000000" font-family="sans-serif" font-size="14" lengthAdjust="spacing" textLength="0" x="400" y="206.2764"/><line style="stroke:#000000;stroke-width:1.0;" x1="383" x2="383" y1="191.2813" y2="211.5781"/><line style="stroke:#000000;stroke-width:1.0;" x1="232" x2="447" y1="211.5781" y2="211.5781"/><text fill="#000000" font-family="sans-serif" font-size="14" lengthAdjust="spacing" textLength="133" x="237" y="226.5732">vessel_course_rate</text><text fill="#000000" font-family="sans-serif" font-size="14" lengthAdjust="spacing" textLength="0" x="400" y="226.5732"/><line style="stroke:#000000;stroke-width:1.0;" x1="383" x2="383" y1="211.5781" y2="231.875"/><line style="stroke:#000000;stroke-width:1.0;" x1="232" x2="447" y1="231.875" y2="231.875"/><text fill="#000000" font-family="sans-serif" font-size="14" lengthAdjust="spacing" textLength="108" x="237" y="246.8701">deploy_position</text><text fill="#000000" font-family="sans-serif" font-size="14" lengthAdjust="spacing" textLength="0" x="400" y="246.8701"/><line style="stroke:#000000;stroke-width:1.0;" x1="383" x2="383" y1="231.875" y2="252.1719"/><line style="stroke:#000000;stroke-width:1.0;" x1="232" x2="447" y1="252.1719" y2="252.1719"/><text fill="#000000" font-family="sans-serif" font-size="14" lengthAdjust="spacing" textLength="106" x="237" y="267.167">collide_position</text><text fill="#000000" font-family="sans-serif" font-size="14" lengthAdjust="spacing" textLength="0" x="400" y="267.167"/><line style="stroke:#000000;stroke-width:1.0;" x1="383" x2="383" y1="252.1719" y2="272.4688"/><line style="stroke:#000000;stroke-width:1.0;" x1="232" x2="447" y1="272.4688" y2="272.4688"/><text fill="#000000" font-family="sans-serif" font-size="14" lengthAdjust="spacing" textLength="83" x="237" y="287.4639">deploy_time</text><text fill="#000000" font-family="sans-serif" font-size="14" lengthAdjust="spacing" textLength="0" x="400" y="287.4639"/><line style="stroke:#000000;stroke-width:1.0;" x1="383" x2="383" y1="272.4688" y2="292.7656"/><rect fill="none" height="223.2656" rx="5" ry="5" style="stroke:#000000;stroke-width:1.5;" width="215" x="232" y="69.5"/><rect height="20.2969" rx="5" ry="5" style="stroke:#00000000;stroke-width:1.5;fill:none;" width="62" x="484" y="10"/><text fill="#000000" font-family="sans-serif" font-size="14" lengthAdjust="spacing" textLength="30" x="489" y="24.9951">map</text><text fill="#000000" font-family="sans-serif" font-size="14" lengthAdjust="spacing" textLength="0" x="541" y="24.9951"/><line style="stroke:#000000;stroke-width:1.0;" x1="524" x2="524" y1="10" y2="30.2969"/><rect fill="none" height="20.2969" rx="5" ry="5" style="stroke:#000000;stroke-width:1.5;" width="62" x="484" y="10"/><rect height="20.2969" rx="5" ry="5" style="stroke:#00000000;stroke-width:1.5;fill:none;" width="108" x="583" y="10"/><text fill="#000000" font-family="sans-serif" font-size="14" lengthAdjust="spacing" textLength="34" x="588" y="24.9951">topic</text><text fill="#000000" font-family="sans-serif" font-size="14" lengthAdjust="spacing" textLength="54" x="632" y="24.9951">[string:]</text><line style="stroke:#000000;stroke-width:1.0;" x1="627" x2="627" y1="10" y2="30.2969"/><rect fill="none" height="20.2969" rx="5" ry="5" style="stroke:#000000;stroke-width:1.5;" width="108" x="583" y="10"/><rect height="20.2969" rx="5" ry="5" style="stroke:#00000000;stroke-width:1.5;fill:none;" width="62" x="484" y="48"/><text fill="#000000" font-family="sans-serif" font-size="14" lengthAdjust="spacing" textLength="30" x="489" y="62.9951">map</text><text fill="#000000" font-family="sans-serif" font-size="14" lengthAdjust="spacing" textLength="0" x="541" y="62.9951"/><line style="stroke:#000000;stroke-width:1.0;" x1="524" x2="524" y1="48" y2="68.2969"/><rect fill="none" height="20.2969" rx="5" ry="5" style="stroke:#000000;stroke-width:1.5;" width="62" x="484" y="48"/><rect height="20.2969" rx="5" ry="5" style="stroke:#00000000;stroke-width:1.5;fill:none;" width="108" x="583" y="48"/><text fill="#000000" font-family="sans-serif" font-size="14" lengthAdjust="spacing" textLength="34" x="588" y="62.9951">topic</text><text fill="#000000" font-family="sans-serif" font-size="14" lengthAdjust="spacing" textLength="54" x="632" y="62.9951">[string:]</text><line style="stroke:#000000;stroke-width:1.0;" x1="627" x2="627" y1="48" y2="68.2969"/><rect fill="none" height="20.2969" rx="5" ry="5" style="stroke:#000000;stroke-width:1.5;" width="108" x="583" y="48"/><rect height="20.2969" rx="5" ry="5" style="stroke:#00000000;stroke-width:1.5;fill:none;" width="62" x="484" y="86"/><text fill="#000000" font-family="sans-serif" font-size="14" lengthAdjust="spacing" textLength="30" x="489" y="100.9951">map</text><text fill="#000000" font-family="sans-serif" font-size="14" lengthAdjust="spacing" textLength="0" x="541" y="100.9951"/><line style="stroke:#000000;stroke-width:1.0;" x1="524" x2="524" y1="86" y2="106.2969"/><rect fill="none" height="20.2969" rx="5" ry="5" style="stroke:#000000;stroke-width:1.5;" width="62" x="484" y="86"/><rect height="20.2969" rx="5" ry="5" style="stroke:#00000000;stroke-width:1.5;fill:none;" width="108" x="583" y="86"/><text fill="#000000" font-family="sans-serif" font-size="14" lengthAdjust="spacing" textLength="34" x="588" y="100.9951">topic</text><text fill="#000000" font-family="sans-serif" font-size="14" lengthAdjust="spacing" textLength="54" x="632" y="100.9951">[string:]</text><line style="stroke:#000000;stroke-width:1.0;" x1="627" x2="627" y1="86" y2="106.2969"/><rect fill="none" height="20.2969" rx="5" ry="5" style="stroke:#000000;stroke-width:1.5;" width="108" x="583" y="86"/><rect height="20.2969" rx="5" ry="5" style="stroke:#00000000;stroke-width:1.5;fill:none;" width="62" x="484" y="124"/><text fill="#000000" font-family="sans-serif" font-size="14" lengthAdjust="spacing" textLength="30" x="489" y="138.9951">map</text><text fill="#000000" font-family="sans-serif" font-size="14" lengthAdjust="spacing" textLength="0" x="541" y="138.9951"/><line style="stroke:#000000;stroke-width:1.0;" x1="524" x2="524" y1="124" y2="144.2969"/><rect fill="none" height="20.2969" rx="5" ry="5" style="stroke:#000000;stroke-width:1.5;" width="62" x="484" y="124"/><rect height="20.2969" rx="5" ry="5" style="stroke:#00000000;stroke-width:1.5;fill:none;" width="108" x="583" y="124"/><text fill="#000000" font-family="sans-serif" font-size="14" lengthAdjust="spacing" textLength="34" x="588" y="138.9951">topic</text><text fill="#000000" font-family="sans-serif" font-size="14" lengthAdjust="spacing" textLength="54" x="632" y="138.9951">[string:]</text><line style="stroke:#000000;stroke-width:1.0;" x1="627" x2="627" y1="124" y2="144.2969"/><rect fill="none" height="20.2969" rx="5" ry="5" style="stroke:#000000;stroke-width:1.5;" width="108" x="583" y="124"/><rect height="20.2969" rx="5" ry="5" style="stroke:#00000000;stroke-width:1.5;fill:none;" width="62" x="484" y="162"/><text fill="#000000" font-family="sans-serif" font-size="14" lengthAdjust="spacing" textLength="30" x="489" y="176.9951">map</text><text fill="#000000" font-family="sans-serif" font-size="14" lengthAdjust="spacing" textLength="0" x="541" y="176.9951"/><line style="stroke:#000000;stroke-width:1.0;" x1="524" x2="524" y1="162" y2="182.2969"/><rect fill="none" height="20.2969" rx="5" ry="5" style="stroke:#000000;stroke-width:1.5;" width="62" x="484" y="162"/><rect height="20.2969" rx="5" ry="5" style="stroke:#00000000;stroke-width:1.5;fill:none;" width="108" x="583" y="162"/><text fill="#000000" font-family="sans-serif" font-size="14" lengthAdjust="spacing" textLength="34" x="588" y="176.9951">topic</text><text fill="#000000" font-family="sans-serif" font-size="14" lengthAdjust="spacing" textLength="54" x="632" y="176.9951">[string:]</text><line style="stroke:#000000;stroke-width:1.0;" x1="627" x2="627" y1="162" y2="182.2969"/><rect fill="none" height="20.2969" rx="5" ry="5" style="stroke:#000000;stroke-width:1.5;" width="108" x="583" y="162"/><rect height="20.2969" rx="5" ry="5" style="stroke:#00000000;stroke-width:1.5;fill:none;" width="62" x="484" y="200"/><text fill="#000000" font-family="sans-serif" font-size="14" lengthAdjust="spacing" textLength="30" x="489" y="214.9951">map</text><text fill="#000000" font-family="sans-serif" font-size="14" lengthAdjust="spacing" textLength="0" x="541" y="214.9951"/><line style="stroke:#000000;stroke-width:1.0;" x1="524" x2="524" y1="200" y2="220.2969"/><rect fill="none" height="20.2969" rx="5" ry="5" style="stroke:#000000;stroke-width:1.5;" width="62" x="484" y="200"/><rect height="20.2969" rx="5" ry="5" style="stroke:#00000000;stroke-width:1.5;fill:none;" width="108" x="583" y="200"/><text fill="#000000" font-family="sans-serif" font-size="14" lengthAdjust="spacing" textLength="34" x="588" y="214.9951">topic</text><text fill="#000000" font-family="sans-serif" font-size="14" lengthAdjust="spacing" textLength="54" x="632" y="214.9951">[string:]</text><line style="stroke:#000000;stroke-width:1.0;" x1="627" x2="627" y1="200" y2="220.2969"/><rect fill="none" height="20.2969" rx="5" ry="5" style="stroke:#000000;stroke-width:1.5;" width="108" x="583" y="200"/><rect height="20.2969" rx="5" ry="5" style="stroke:#00000000;stroke-width:1.5;fill:none;" width="62" x="484" y="238"/><text fill="#000000" font-family="sans-serif" font-size="14" lengthAdjust="spacing" textLength="30" x="489" y="252.9951">map</text><text fill="#000000" font-family="sans-serif" font-size="14" lengthAdjust="spacing" textLength="0" x="541" y="252.9951"/><line style="stroke:#000000;stroke-width:1.0;" x1="524" x2="524" y1="238" y2="258.2969"/><rect fill="none" height="20.2969" rx="5" ry="5" style="stroke:#000000;stroke-width:1.5;" width="62" x="484" y="238"/><rect height="20.2969" rx="5" ry="5" style="stroke:#00000000;stroke-width:1.5;fill:none;" width="108" x="583" y="238"/><text fill="#000000" font-family="sans-serif" font-size="14" lengthAdjust="spacing" textLength="34" x="588" y="252.9951">topic</text><text fill="#000000" font-family="sans-serif" font-size="14" lengthAdjust="spacing" textLength="54" x="632" y="252.9951">[string:]</text><line style="stroke:#000000;stroke-width:1.0;" x1="627" x2="627" y1="238" y2="258.2969"/><rect fill="none" height="20.2969" rx="5" ry="5" style="stroke:#000000;stroke-width:1.5;" width="108" x="583" y="238"/><rect height="20.2969" rx="5" ry="5" style="stroke:#00000000;stroke-width:1.5;fill:none;" width="62" x="484" y="276"/><text fill="#000000" font-family="sans-serif" font-size="14" lengthAdjust="spacing" textLength="30" x="489" y="290.9951">map</text><text fill="#000000" font-family="sans-serif" font-size="14" lengthAdjust="spacing" textLength="0" x="541" y="290.9951"/><line style="stroke:#000000;stroke-width:1.0;" x1="524" x2="524" y1="276" y2="296.2969"/><rect fill="none" height="20.2969" rx="5" ry="5" style="stroke:#000000;stroke-width:1.5;" width="62" x="484" y="276"/><rect height="20.2969" rx="5" ry="5" style="stroke:#00000000;stroke-width:1.5;fill:none;" width="108" x="583" y="276"/><text fill="#000000" font-family="sans-serif" font-size="14" lengthAdjust="spacing" textLength="34" x="588" y="290.9951">topic</text><text fill="#000000" font-family="sans-serif" font-size="14" lengthAdjust="spacing" textLength="54" x="632" y="290.9951">[string:]</text><line style="stroke:#000000;stroke-width:1.0;" x1="627" x2="627" y1="276" y2="296.2969"/><rect fill="none" height="20.2969" rx="5" ry="5" style="stroke:#000000;stroke-width:1.5;" width="108" x="583" y="276"/><rect height="20.2969" rx="5" ry="5" style="stroke:#00000000;stroke-width:1.5;fill:none;" width="62" x="484" y="314"/><text fill="#000000" font-family="sans-serif" font-size="14" lengthAdjust="spacing" textLength="30" x="489" y="328.9951">map</text><text fill="#000000" font-family="sans-serif" font-size="14" lengthAdjust="spacing" textLength="0" x="541" y="328.9951"/><line style="stroke:#000000;stroke-width:1.0;" x1="524" x2="524" y1="314" y2="334.2969"/><rect fill="none" height="20.2969" rx="5" ry="5" style="stroke:#000000;stroke-width:1.5;" width="62" x="484" y="314"/><rect height="20.2969" rx="5" ry="5" style="stroke:#00000000;stroke-width:1.5;fill:none;" width="108" x="583" y="314"/><text fill="#000000" font-family="sans-serif" font-size="14" lengthAdjust="spacing" textLength="34" x="588" y="328.9951">topic</text><text fill="#000000" font-family="sans-serif" font-size="14" lengthAdjust="spacing" textLength="54" x="632" y="328.9951">[string:]</text><line style="stroke:#000000;stroke-width:1.0;" x1="627" x2="627" y1="314" y2="334.2969"/><rect fill="none" height="20.2969" rx="5" ry="5" style="stroke:#000000;stroke-width:1.5;" width="108" x="583" y="314"/><rect height="20.2969" rx="5" ry="5" style="stroke:#00000000;stroke-width:1.5;fill:none;" width="62" x="484" y="352"/><text fill="#000000" font-family="sans-serif" font-size="14" lengthAdjust="spacing" textLength="30" x="489" y="366.9951">map</text><text fill="#000000" font-family="sans-serif" font-size="14" lengthAdjust="spacing" textLength="0" x="541" y="366.9951"/><line style="stroke:#000000;stroke-width:1.0;" x1="524" x2="524" y1="352" y2="372.2969"/><rect fill="none" height="20.2969" rx="5" ry="5" style="stroke:#000000;stroke-width:1.5;" width="62" x="484" y="352"/><rect height="20.2969" rx="5" ry="5" style="stroke:#00000000;stroke-width:1.5;fill:none;" width="108" x="583" y="352"/><text fill="#000000" font-family="sans-serif" font-size="14" lengthAdjust="spacing" textLength="34" x="588" y="366.9951">topic</text><text fill="#000000" font-family="sans-serif" font-size="14" lengthAdjust="spacing" textLength="54" x="632" y="366.9951">[string:]</text><line style="stroke:#000000;stroke-width:1.0;" x1="627" x2="627" y1="352" y2="372.2969"/><rect fill="none" height="20.2969" rx="5" ry="5" style="stroke:#000000;stroke-width:1.5;" width="108" x="583" y="352"/><path d="M534,20 L547,20 C556.3181,20 566.1818,20 575.8243,20 " fill="none" style="stroke:#000000;stroke-width:1.0;stroke-dasharray:3.0,3.0;"/><path d="M575.8243,23.0684 L578.1256,20 L575.8243,16.9316 L583.4953,20 L575.8243,23.0684 " fill="#000000" style="stroke:#000000;stroke-width:1.0;"/><ellipse cx="534" cy="20" fill="#000000" rx="3" ry="3" style="stroke:#000000;stroke-width:1.0;stroke-dasharray:3.0,3.0;"/><path d="M435,99 L448,99 C479.0984,99 462.1945,61.1728 484,39 C485.5173,37.4571 487.1835,35.9835 488.9302,34.5887 " fill="none" style="stroke:#000000;stroke-width:1.0;stroke-dasharray:3.0,3.0;"/><path d="M490.7,37.0488 L490.7752,33.2613 L487.1604,32.1286 L495.0804,30.1641 L490.7,37.0488 " fill="#000000" style="stroke:#000000;stroke-width:1.0;"/><ellipse cx="435" cy="99" fill="#000000" rx="3" ry="3" style="stroke:#000000;stroke-width:1.0;stroke-dasharray:3.0,3.0;"/><path d="M534,58 L547,58 C556.3181,58 566.1818,58 575.8243,58 " fill="none" style="stroke:#000000;stroke-width:1.0;stroke-dasharray:3.0,3.0;"/><path d="M575.8243,61.0684 L578.1256,58 L575.8243,54.9316 L583.4953,58 L575.8243,61.0684 " fill="#000000" style="stroke:#000000;stroke-width:1.0;"/><ellipse cx="534" cy="58" fill="#000000" rx="3" ry="3" style="stroke:#000000;stroke-width:1.0;stroke-dasharray:3.0,3.0;"/><path d="M435,119 L448,119 C472.5855,119 465.3497,93.019 484,77 C485.8457,75.4147 487.8369,73.8715 489.8864,72.3943 " fill="none" style="stroke:#000000;stroke-width:1.0;stroke-dasharray:3.0,3.0;"/><path d="M491.5702,74.8889 L491.7573,71.1314 L488.2026,69.8997 L496.1228,68.1848 L491.5702,74.8889 " fill="#000000" style="stroke:#000000;stroke-width:1.0;"/><ellipse cx="435" cy="119" fill="#000000" rx="3" ry="3" style="stroke:#000000;stroke-width:1.0;stroke-dasharray:3.0,3.0;"/><path d="M534,96 L547,96 C556.3181,96 566.1818,96 575.8243,96 " fill="none" style="stroke:#000000;stroke-width:1.0;stroke-dasharray:3.0,3.0;"/><path d="M575.8243,99.0684 L578.1256,96 L575.8243,92.9316 L583.4953,96 L575.8243,99.0684 " fill="#000000" style="stroke:#000000;stroke-width:1.0;"/><ellipse cx="534" cy="96" fill="#000000" rx="3" ry="3" style="stroke:#000000;stroke-width:1.0;stroke-dasharray:3.0,3.0;"/><path d="M435,140 L448,140 C467.4797,140 467.728,125.7088 484,115 C486.3809,113.4331 488.8834,111.8203 491.3883,110.228 " fill="none" style="stroke:#000000;stroke-width:1.0;stroke-dasharray:3.0,3.0;"/><path d="M493.0371,112.8496 L493.3546,108.9914 L489.7395,107.6063 L497.9425,106.106 L493.0371,112.8496 " fill="#000000" style="stroke:#000000;stroke-width:1.0;"/><ellipse cx="435" cy="140" fill="#000000" rx="3" ry="3" style="stroke:#000000;stroke-width:1.0;stroke-dasharray:3.0,3.0;"/><path d="M534,134 L547,134 C556.3181,134 566.1818,134 575.8243,134 " fill="none" style="stroke:#000000;stroke-width:1.0;stroke-dasharray:3.0,3.0;"/><path d="M575.8243,137.0684 L578.1256,134 L575.8243,130.9316 L583.4953,134 L575.8243,137.0684 " fill="#000000" style="stroke:#000000;stroke-width:1.0;"/><ellipse cx="534" cy="134" fill="#000000" rx="3" ry="3" style="stroke:#000000;stroke-width:1.0;stroke-dasharray:3.0,3.0;"/><path d="M435,160 L448,160 C463.2328,160 479.1641,154.0093 491.6135,147.7792 " fill="none" style="stroke:#000000;stroke-width:1.0;stroke-dasharray:3.0,3.0;"/><path d="M493.0744,150.5376 L493.6823,146.6834 L490.1525,145.0207 L498.5095,144.1267 L493.0744,150.5376 " fill="#000000" style="stroke:#000000;stroke-width:1.0;"/><ellipse cx="435" cy="160" fill="#000000" rx="3" ry="3" style="stroke:#000000;stroke-width:1.0;stroke-dasharray:3.0,3.0;"/><path d="M534,172 L547,172 C556.3181,172 566.1818,172 575.8243,172 " fill="none" style="stroke:#000000;stroke-width:1.0;stroke-dasharray:3.0,3.0;"/><path d="M575.8243,175.0684 L578.1256,172 L575.8243,168.9316 L583.4953,172 L575.8243,175.0684 " fill="#000000" style="stroke:#000000;stroke-width:1.0;"/><ellipse cx="534" cy="172" fill="#000000" rx="3" ry="3" style="stroke:#000000;stroke-width:1.0;stroke-dasharray:3.0,3.0;"/><path d="M435,180 L448,180 C457.3572,180 467.4024,179.2096 476.7785,178.1256 " fill="none" style="stroke:#000000;stroke-width:1.0;stroke-dasharray:3.0,3.0;"/><path d="M477.1659,181.2011 L479.0851,177.835 L476.391,175.0501 L484.4672,177.157 L477.1659,181.2011 " fill="#000000" style="stroke:#000000;stroke-width:1.0;"/><ellipse cx="435" cy="180" fill="#000000" rx="3" ry="3" style="stroke:#000000;stroke-width:1.0;stroke-dasharray:3.0,3.0;"/><path d="M534,210 L547,210 C556.3181,210 566.1818,210 575.8243,210 " fill="none" style="stroke:#000000;stroke-width:1.0;stroke-dasharray:3.0,3.0;"/><path d="M575.8243,213.0684 L578.1256,210 L575.8243,206.9316 L583.4953,210 L575.8243,213.0684 " fill="#000000" style="stroke:#000000;stroke-width:1.0;"/><ellipse cx="534" cy="210" fill="#000000" rx="3" ry="3" style="stroke:#000000;stroke-width:1.0;stroke-dasharray:3.0,3.0;"/><path d="M435,201 L448,201 C457.3749,201 467.4267,201.8892 476.8034,203.1087 " fill="none" style="stroke:#000000;stroke-width:1.0;stroke-dasharray:3.0,3.0;"/><path d="M476.3675,206.1839 L479.1099,203.4356 L477.2393,200.0335 L484.4915,204.1984 L476.3675,206.1839 " fill="#000000" style="stroke:#000000;stroke-width:1.0;"/><ellipse cx="435" cy="201" fill="#000000" rx="3" ry="3" style="stroke:#000000;stroke-width:1.0;stroke-dasharray:3.0,3.0;"/><path d="M534,248 L547,248 C556.3181,248 566.1818,248 575.8243,248 " fill="none" style="stroke:#000000;stroke-width:1.0;stroke-dasharray:3.0,3.0;"/><path d="M575.8243,251.0684 L578.1256,248 L575.8243,244.9316 L583.4953,248 L575.8243,251.0684 " fill="#000000" style="stroke:#000000;stroke-width:1.0;"/><ellipse cx="534" cy="248" fill="#000000" rx="3" ry="3" style="stroke:#000000;stroke-width:1.0;stroke-dasharray:3.0,3.0;"/><path d="M435,221 L448,221 C463.7703,221 480.2011,227.5992 492.7848,234.2726 " fill="none" style="stroke:#000000;stroke-width:1.0;stroke-dasharray:3.0,3.0;"/><path d="M491.3153,236.8992 L494.7547,235.3747 L494.2542,231.646 L499.3513,237.9462 L491.3153,236.8992 " fill="#000000" style="stroke:#000000;stroke-width:1.0;"/><ellipse cx="435" cy="221" fill="#000000" rx="3" ry="3" style="stroke:#000000;stroke-width:1.0;stroke-dasharray:3.0,3.0;"/><path d="M534,286 L547,286 C556.3181,286 566.1818,286 575.8243,286 " fill="none" style="stroke:#000000;stroke-width:1.0;stroke-dasharray:3.0,3.0;"/><path d="M575.8243,289.0684 L578.1256,286 L575.8243,282.9316 L583.4953,286 L575.8243,289.0684 " fill="#000000" style="stroke:#000000;stroke-width:1.0;"/><ellipse cx="534" cy="286" fill="#000000" rx="3" ry="3" style="stroke:#000000;stroke-width:1.0;stroke-dasharray:3.0,3.0;"/><path d="M435,242 L448,242 C467.4797,242 467.728,256.2912 484,267 C486.3809,268.5669 488.8834,270.1797 491.3883,271.772 " fill="none" style="stroke:#000000;stroke-width:1.0;stroke-dasharray:3.0,3.0;"/><path d="M489.7395,274.3937 L493.3546,273.0086 L493.0371,269.1504 L497.9425,275.894 L489.7395,274.3937 " fill="#000000" style="stroke:#000000;stroke-width:1.0;"/><ellipse cx="435" cy="242" fill="#000000" rx="3" ry="3" style="stroke:#000000;stroke-width:1.0;stroke-dasharray:3.0,3.0;"/><path d="M534,324 L547,324 C556.3181,324 566.1818,324 575.8243,324 " fill="none" style="stroke:#000000;stroke-width:1.0;stroke-dasharray:3.0,3.0;"/><path d="M575.8243,327.0684 L578.1256,324 L575.8243,320.9316 L583.4953,324 L575.8243,327.0684 " fill="#000000" style="stroke:#000000;stroke-width:1.0;"/><ellipse cx="534" cy="324" fill="#000000" rx="3" ry="3" style="stroke:#000000;stroke-width:1.0;stroke-dasharray:3.0,3.0;"/><path d="M435,262 L448,262 C472.9246,262 465.187,288.6506 484,305 C485.8364,306.596 487.8212,308.1466 489.8665,309.6287 " fill="none" style="stroke:#000000;stroke-width:1.0;stroke-dasharray:3.0,3.0;"/><path d="M488.1795,312.1205 L491.7353,310.894 L491.5535,307.1369 L496.096,313.8462 L488.1795,312.1205 " fill="#000000" style="stroke:#000000;stroke-width:1.0;"/><ellipse cx="435" cy="262" fill="#000000" rx="3" ry="3" style="stroke:#000000;stroke-width:1.0;stroke-dasharray:3.0,3.0;"/><path d="M534,362 L547,362 C556.3181,362 566.1818,362 575.8243,362 " fill="none" style="stroke:#000000;stroke-width:1.0;stroke-dasharray:3.0,3.0;"/><path d="M575.8243,365.0684 L578.1256,362 L575.8243,358.9316 L583.4953,362 L575.8243,365.0684 " fill="#000000" style="stroke:#000000;stroke-width:1.0;"/><ellipse cx="534" cy="362" fill="#000000" rx="3" ry="3" style="stroke:#000000;stroke-width:1.0;stroke-dasharray:3.0,3.0;"/><path d="M435,282 L448,282 C479.4803,282 462.0084,320.4749 484,343 C485.5117,344.5484 487.1738,346.026 488.9176,347.4236 " fill="none" style="stroke:#000000;stroke-width:1.0;stroke-dasharray:3.0,3.0;"/><path d="M487.1456,349.8815 L490.761,348.7526 L490.6896,344.9658 L495.0622,351.8536 L487.1456,349.8815 " fill="#000000" style="stroke:#000000;stroke-width:1.0;"/><ellipse cx="435" cy="282" fill="#000000" rx="3" ry="3" style="stroke:#000000;stroke-width:1.0;stroke-dasharray:3.0,3.0;"/><path d="M183,181 L196,181 C205.305,181 214.9507,181 224.6377,181 " fill="none" style="stroke:#000000;stroke-width:1.0;stroke-dasharray:3.0,3.0;"/><path d="M224.6377,184.1088 L226.9693,181 L224.6377,177.8912 L232.4097,181 L224.6377,184.1088 " fill="#000000" style="stroke:#000000;stroke-width:1.0;"/><ellipse cx="183" cy="181" fill="#000000" rx="3" ry="3" style="stroke:#000000;stroke-width:1.0;stroke-dasharray:3.0,3.0;"/><path d="M84,181 L97,181 C106.2902,181 116.3105,181 125.684,181 " fill="none" style="stroke:#000000;stroke-width:1.0;stroke-dasharray:3.0,3.0;"/><path d="M125.684,184.0765 L127.9914,181 L125.684,177.9235 L133.3753,181 L125.684,184.0765 " fill="#000000" style="stroke:#000000;stroke-width:1.0;"/><ellipse cx="84" cy="181" fill="#000000" rx="3" ry="3" style="stroke:#000000;stroke-width:1.0;stroke-dasharray:3.0,3.0;"/><!--MD5=[f77c9f0a621a6d2d656d6a1e2ce0e40c]
@startyaml
<style>
yamlDiagram {
  node {
    BackGroundColor transparent
    LineColor black
  }
  arrow {
    LineColor black
  }
}
</style>
outputs:
  map:
    id: [string:]
    trajectory_vessel:
      map:
        topic: [string:]
    trajectory_vessel_rot:
      map:
        topic: [string:]
    trajectory_fish:
      map:
        topic: [string:]
    nlp_config:
      map:
        topic: [string:]
    nlp_stats:
      map:
        topic: [string:]
    vessel_speed:
      map:
        topic: [string:]
    vessel_course_rate:
      map:
        topic: [string:]
    deploy_position:
      map:
        topic: [string:]
    collide_position:
      map:
        topic: [string:]
    deploy_time:
      map:
        topic: [string:]
 @endyaml

PlantUML version 1.2021.7(Sun May 23 12:40:07 GMT 2021)
(GPL source distribution)
Java Runtime: OpenJDK Runtime Environment
JVM: OpenJDK 64-Bit Server VM
Default Encoding: ANSI_X3.4-1968
Language: en
Country: US
--></g></svg>