<?xml version="1.0" encoding="UTF-8" standalone="no"?><svg xmlns="http://www.w3.org/2000/svg" xmlns:xlink="http://www.w3.org/1999/xlink" contentScriptType="application/ecmascript" contentStyleType="text/css" height="733px" preserveAspectRatio="none" style="width:882px;height:733px;background:#FFFFFF;" version="1.1" viewBox="0 0 882 733" width="882px" zoomAndPan="magnify"><defs/><g><rect height="20.2969" rx="5" ry="5" style="stroke:#00000000;stroke-width:1.5;fill:none;" width="111" x="10" y="370.5"/><text fill="#000000" font-family="sans-serif" font-size="14" lengthAdjust="spacing" textLength="79" x="15" y="385.4951">parameters</text><text fill="#000000" font-family="sans-serif" font-size="14" lengthAdjust="spacing" textLength="0" x="116" y="385.4951"/><line style="stroke:#000000;stroke-width:1.0;" x1="99" x2="99" y1="370.5" y2="390.7969"/><rect fill="none" height="20.2969" rx="5" ry="5" style="stroke:#000000;stroke-width:1.5;" width="111" x="10" y="370.5"/><rect height="20.2969" rx="5" ry="5" style="stroke:#00000000;stroke-width:1.5;fill:none;" width="62" x="158" y="370.5"/><text fill="#000000" font-family="sans-serif" font-size="14" lengthAdjust="spacing" textLength="30" x="163" y="385.4951">map</text><text fill="#000000" font-family="sans-serif" font-size="14" lengthAdjust="spacing" textLength="0" x="215" y="385.4951"/><line style="stroke:#000000;stroke-width:1.0;" x1="198" x2="198" y1="370.5" y2="390.7969"/><rect fill="none" height="20.2969" rx="5" ry="5" style="stroke:#000000;stroke-width:1.5;" width="62" x="158" y="370.5"/><rect height="202.9688" rx="5" ry="5" style="stroke:#00000000;stroke-width:1.5;fill:none;" width="208" x="257" y="279"/><text fill="#000000" font-family="sans-serif" font-size="14" lengthAdjust="spacing" textLength="130" x="262" y="293.9951">setting_speed_U_v</text><text fill="#000000" font-family="sans-serif" font-size="14" lengthAdjust="spacing" textLength="0" x="460" y="293.9951"/><line style="stroke:#000000;stroke-width:1.0;" x1="443" x2="443" y1="279" y2="299.2969"/><line style="stroke:#000000;stroke-width:1.0;" x1="257" x2="465" y1="299.2969" y2="299.2969"/><text fill="#000000" font-family="sans-serif" font-size="14" lengthAdjust="spacing" textLength="83" x="262" y="314.292">setting_radii</text><text fill="#000000" font-family="sans-serif" font-size="14" lengthAdjust="spacing" textLength="0" x="460" y="314.292"/><line style="stroke:#000000;stroke-width:1.0;" x1="443" x2="443" y1="299.2969" y2="319.5938"/><line style="stroke:#000000;stroke-width:1.0;" x1="257" x2="465" y1="319.5938" y2="319.5938"/><text fill="#000000" font-family="sans-serif" font-size="14" lengthAdjust="spacing" textLength="123" x="262" y="334.5889">aim_distance_D_s</text><text fill="#000000" font-family="sans-serif" font-size="14" lengthAdjust="spacing" textLength="0" x="460" y="334.5889"/><line style="stroke:#000000;stroke-width:1.0;" x1="443" x2="443" y1="319.5938" y2="339.8906"/><line style="stroke:#000000;stroke-width:1.0;" x1="257" x2="465" y1="339.8906" y2="339.8906"/><text fill="#000000" font-family="sans-serif" font-size="14" lengthAdjust="spacing" textLength="105" x="262" y="354.8857">fish_margin_d_f</text><text fill="#000000" font-family="sans-serif" font-size="14" lengthAdjust="spacing" textLength="0" x="460" y="354.8857"/><line style="stroke:#000000;stroke-width:1.0;" x1="443" x2="443" y1="339.8906" y2="360.1875"/><line style="stroke:#000000;stroke-width:1.0;" x1="257" x2="465" y1="360.1875" y2="360.1875"/><text fill="#000000" font-family="sans-serif" font-size="14" lengthAdjust="spacing" textLength="125" x="262" y="375.1826">fish_margin_z_min</text><text fill="#000000" font-family="sans-serif" font-size="14" lengthAdjust="spacing" textLength="0" x="460" y="375.1826"/><line style="stroke:#000000;stroke-width:1.0;" x1="443" x2="443" y1="360.1875" y2="380.4844"/><line style="stroke:#000000;stroke-width:1.0;" x1="257" x2="465" y1="380.4844" y2="380.4844"/><text fill="#000000" font-family="sans-serif" font-size="14" lengthAdjust="spacing" textLength="126" x="262" y="395.4795">leadline_tau_ll_z_d</text><text fill="#000000" font-family="sans-serif" font-size="14" lengthAdjust="spacing" textLength="0" x="460" y="395.4795"/><line style="stroke:#000000;stroke-width:1.0;" x1="443" x2="443" y1="380.4844" y2="400.7813"/><line style="stroke:#000000;stroke-width:1.0;" x1="257" x2="465" y1="400.7813" y2="400.7813"/><text fill="#000000" font-family="sans-serif" font-size="14" lengthAdjust="spacing" textLength="108" x="262" y="415.7764">current_surface</text><text fill="#000000" font-family="sans-serif" font-size="14" lengthAdjust="spacing" textLength="0" x="460" y="415.7764"/><line style="stroke:#000000;stroke-width:1.0;" x1="443" x2="443" y1="400.7813" y2="421.0781"/><line style="stroke:#000000;stroke-width:1.0;" x1="257" x2="465" y1="421.0781" y2="421.0781"/><text fill="#000000" font-family="sans-serif" font-size="14" lengthAdjust="spacing" textLength="81" x="262" y="436.0732">current_fish</text><text fill="#000000" font-family="sans-serif" font-size="14" lengthAdjust="spacing" textLength="0" x="460" y="436.0732"/><line style="stroke:#000000;stroke-width:1.0;" x1="443" x2="443" y1="421.0781" y2="441.375"/><line style="stroke:#000000;stroke-width:1.0;" x1="257" x2="465" y1="441.375" y2="441.375"/><text fill="#000000" font-family="sans-serif" font-size="14" lengthAdjust="spacing" textLength="176" x="262" y="456.3701">fish_velocity_over_ground</text><text fill="#000000" font-family="sans-serif" font-size="14" lengthAdjust="spacing" textLength="0" x="460" y="456.3701"/><line style="stroke:#000000;stroke-width:1.0;" x1="443" x2="443" y1="441.375" y2="461.6719"/><line style="stroke:#000000;stroke-width:1.0;" x1="257" x2="465" y1="461.6719" y2="461.6719"/><text fill="#000000" font-family="sans-serif" font-size="14" lengthAdjust="spacing" textLength="102" x="262" y="476.667">fish_depth_z_s</text><text fill="#000000" font-family="sans-serif" font-size="14" lengthAdjust="spacing" textLength="0" x="460" y="476.667"/><line style="stroke:#000000;stroke-width:1.0;" x1="443" x2="443" y1="461.6719" y2="481.9688"/><rect fill="none" height="202.9688" rx="5" ry="5" style="stroke:#000000;stroke-width:1.5;" width="208" x="257" y="279"/><rect height="20.2969" rx="5" ry="5" style="stroke:#00000000;stroke-width:1.5;fill:none;" width="62" x="502" y="50.5"/><text fill="#000000" font-family="sans-serif" font-size="14" lengthAdjust="spacing" textLength="30" x="507" y="65.4951">map</text><text fill="#000000" font-family="sans-serif" font-size="14" lengthAdjust="spacing" textLength="0" x="559" y="65.4951"/><line style="stroke:#000000;stroke-width:1.0;" x1="542" x2="542" y1="50.5" y2="70.7969"/><rect fill="none" height="20.2969" rx="5" ry="5" style="stroke:#000000;stroke-width:1.5;" width="62" x="502" y="50.5"/><rect height="60.8906" rx="5" ry="5" style="stroke:#00000000;stroke-width:1.5;fill:none;" width="130" x="601" y="10"/><text fill="#000000" font-family="sans-serif" font-size="14" lengthAdjust="spacing" textLength="34" x="606" y="24.9951">topic</text><text fill="#000000" font-family="sans-serif" font-size="14" lengthAdjust="spacing" textLength="54" x="663" y="24.9951">[string:]</text><line style="stroke:#000000;stroke-width:1.0;" x1="658" x2="658" y1="10" y2="30.2969"/><line style="stroke:#000000;stroke-width:1.0;" x1="601" x2="731" y1="30.2969" y2="30.2969"/><text fill="#000000" font-family="sans-serif" font-size="14" lengthAdjust="spacing" textLength="12" x="606" y="45.292">id</text><text fill="#000000" font-family="sans-serif" font-size="14" lengthAdjust="spacing" textLength="54" x="663" y="45.292">[string:]</text><line style="stroke:#000000;stroke-width:1.0;" x1="658" x2="658" y1="30.2969" y2="50.5938"/><line style="stroke:#000000;stroke-width:1.0;" x1="601" x2="731" y1="50.5938" y2="50.5938"/><text fill="#000000" font-family="sans-serif" font-size="14" lengthAdjust="spacing" textLength="47" x="606" y="65.5889">default</text><text fill="#000000" font-family="sans-serif" font-size="14" lengthAdjust="spacing" textLength="63" x="663" y="65.5889">[double:]</text><line style="stroke:#000000;stroke-width:1.0;" x1="658" x2="658" y1="50.5938" y2="70.8906"/><rect fill="none" height="60.8906" rx="5" ry="5" style="stroke:#000000;stroke-width:1.5;" width="130" x="601" y="10"/><rect height="20.2969" rx="5" ry="5" style="stroke:#00000000;stroke-width:1.5;fill:none;" width="62" x="502" y="129.5"/><text fill="#000000" font-family="sans-serif" font-size="14" lengthAdjust="spacing" textLength="30" x="507" y="144.4951">map</text><text fill="#000000" font-family="sans-serif" font-size="14" lengthAdjust="spacing" textLength="0" x="559" y="144.4951"/><line style="stroke:#000000;stroke-width:1.0;" x1="542" x2="542" y1="129.5" y2="149.7969"/><rect fill="none" height="20.2969" rx="5" ry="5" style="stroke:#000000;stroke-width:1.5;" width="62" x="502" y="129.5"/><rect height="60.8906" rx="5" ry="5" style="stroke:#00000000;stroke-width:1.5;fill:none;" width="121" x="605.5" y="89"/><text fill="#000000" font-family="sans-serif" font-size="14" lengthAdjust="spacing" textLength="34" x="610.5" y="103.9951">topic</text><text fill="#000000" font-family="sans-serif" font-size="14" lengthAdjust="spacing" textLength="54" x="667.5" y="103.9951">[string:]</text><line style="stroke:#000000;stroke-width:1.0;" x1="662.5" x2="662.5" y1="89" y2="109.2969"/><line style="stroke:#000000;stroke-width:1.0;" x1="605.5" x2="726.5" y1="109.2969" y2="109.2969"/><text fill="#000000" font-family="sans-serif" font-size="14" lengthAdjust="spacing" textLength="12" x="610.5" y="124.292">id</text><text fill="#000000" font-family="sans-serif" font-size="14" lengthAdjust="spacing" textLength="54" x="667.5" y="124.292">[string:]</text><line style="stroke:#000000;stroke-width:1.0;" x1="662.5" x2="662.5" y1="109.2969" y2="129.5938"/><line style="stroke:#000000;stroke-width:1.0;" x1="605.5" x2="726.5" y1="129.5938" y2="129.5938"/><text fill="#000000" font-family="sans-serif" font-size="14" lengthAdjust="spacing" textLength="47" x="610.5" y="144.5889">default</text><text fill="#000000" font-family="sans-serif" font-size="14" lengthAdjust="spacing" textLength="0" x="679.5" y="144.5889"/><line style="stroke:#000000;stroke-width:1.0;" x1="662.5" x2="662.5" y1="129.5938" y2="149.8906"/><rect fill="none" height="60.8906" rx="5" ry="5" style="stroke:#000000;stroke-width:1.5;" width="121" x="605.5" y="89"/><rect height="20.2969" rx="5" ry="5" style="stroke:#00000000;stroke-width:1.5;fill:none;" width="102" x="768" y="129.5"/><text fill="#000000" font-family="sans-serif" font-size="14" lengthAdjust="spacing" textLength="19" x="773" y="144.4951">list</text><text fill="#000000" font-family="sans-serif" font-size="14" lengthAdjust="spacing" textLength="63" x="802" y="144.4951">[double:]</text><line style="stroke:#000000;stroke-width:1.0;" x1="797" x2="797" y1="129.5" y2="149.7969"/><rect fill="none" height="20.2969" rx="5" ry="5" style="stroke:#000000;stroke-width:1.5;" width="102" x="768" y="129.5"/><rect height="20.2969" rx="5" ry="5" style="stroke:#00000000;stroke-width:1.5;fill:none;" width="62" x="502" y="208.5"/><text fill="#000000" font-family="sans-serif" font-size="14" lengthAdjust="spacing" textLength="30" x="507" y="223.4951">map</text><text fill="#000000" font-family="sans-serif" font-size="14" lengthAdjust="spacing" textLength="0" x="559" y="223.4951"/><line style="stroke:#000000;stroke-width:1.0;" x1="542" x2="542" y1="208.5" y2="228.7969"/><rect fill="none" height="20.2969" rx="5" ry="5" style="stroke:#000000;stroke-width:1.5;" width="62" x="502" y="208.5"/><rect height="60.8906" rx="5" ry="5" style="stroke:#00000000;stroke-width:1.5;fill:none;" width="130" x="601" y="168"/><text fill="#000000" font-family="sans-serif" font-size="14" lengthAdjust="spacing" textLength="34" x="606" y="182.9951">topic</text><text fill="#000000" font-family="sans-serif" font-size="14" lengthAdjust="spacing" textLength="54" x="663" y="182.9951">[string:]</text><line style="stroke:#000000;stroke-width:1.0;" x1="658" x2="658" y1="168" y2="188.2969"/><line style="stroke:#000000;stroke-width:1.0;" x1="601" x2="731" y1="188.2969" y2="188.2969"/><text fill="#000000" font-family="sans-serif" font-size="14" lengthAdjust="spacing" textLength="12" x="606" y="203.292">id</text><text fill="#000000" font-family="sans-serif" font-size="14" lengthAdjust="spacing" textLength="54" x="663" y="203.292">[string:]</text><line style="stroke:#000000;stroke-width:1.0;" x1="658" x2="658" y1="188.2969" y2="208.5938"/><line style="stroke:#000000;stroke-width:1.0;" x1="601" x2="731" y1="208.5938" y2="208.5938"/><text fill="#000000" font-family="sans-serif" font-size="14" lengthAdjust="spacing" textLength="47" x="606" y="223.5889">default</text><text fill="#000000" font-family="sans-serif" font-size="14" lengthAdjust="spacing" textLength="63" x="663" y="223.5889">[double:]</text><line style="stroke:#000000;stroke-width:1.0;" x1="658" x2="658" y1="208.5938" y2="228.8906"/><rect fill="none" height="60.8906" rx="5" ry="5" style="stroke:#000000;stroke-width:1.5;" width="130" x="601" y="168"/><rect height="20.2969" rx="5" ry="5" style="stroke:#00000000;stroke-width:1.5;fill:none;" width="62" x="502" y="287.5"/><text fill="#000000" font-family="sans-serif" font-size="14" lengthAdjust="spacing" textLength="30" x="507" y="302.4951">map</text><text fill="#000000" font-family="sans-serif" font-size="14" lengthAdjust="spacing" textLength="0" x="559" y="302.4951"/><line style="stroke:#000000;stroke-width:1.0;" x1="542" x2="542" y1="287.5" y2="307.7969"/><rect fill="none" height="20.2969" rx="5" ry="5" style="stroke:#000000;stroke-width:1.5;" width="62" x="502" y="287.5"/><rect height="60.8906" rx="5" ry="5" style="stroke:#00000000;stroke-width:1.5;fill:none;" width="130" x="601" y="247"/><text fill="#000000" font-family="sans-serif" font-size="14" lengthAdjust="spacing" textLength="34" x="606" y="261.9951">topic</text><text fill="#000000" font-family="sans-serif" font-size="14" lengthAdjust="spacing" textLength="54" x="663" y="261.9951">[string:]</text><line style="stroke:#000000;stroke-width:1.0;" x1="658" x2="658" y1="247" y2="267.2969"/><line style="stroke:#000000;stroke-width:1.0;" x1="601" x2="731" y1="267.2969" y2="267.2969"/><text fill="#000000" font-family="sans-serif" font-size="14" lengthAdjust="spacing" textLength="12" x="606" y="282.292">id</text><text fill="#000000" font-family="sans-serif" font-size="14" lengthAdjust="spacing" textLength="54" x="663" y="282.292">[string:]</text><line style="stroke:#000000;stroke-width:1.0;" x1="658" x2="658" y1="267.2969" y2="287.5938"/><line style="stroke:#000000;stroke-width:1.0;" x1="601" x2="731" y1="287.5938" y2="287.5938"/><text fill="#000000" font-family="sans-serif" font-size="14" lengthAdjust="spacing" textLength="47" x="606" y="302.5889">default</text><text fill="#000000" font-family="sans-serif" font-size="14" lengthAdjust="spacing" textLength="63" x="663" y="302.5889">[double:]</text><line style="stroke:#000000;stroke-width:1.0;" x1="658" x2="658" y1="287.5938" y2="307.8906"/><rect fill="none" height="60.8906" rx="5" ry="5" style="stroke:#000000;stroke-width:1.5;" width="130" x="601" y="247"/><rect height="20.2969" rx="5" ry="5" style="stroke:#00000000;stroke-width:1.5;fill:none;" width="62" x="502" y="348.5"/><text fill="#000000" font-family="sans-serif" font-size="14" lengthAdjust="spacing" textLength="30" x="507" y="363.4951">map</text><text fill="#000000" font-family="sans-serif" font-size="14" lengthAdjust="spacing" textLength="0" x="559" y="363.4951"/><line style="stroke:#000000;stroke-width:1.0;" x1="542" x2="542" y1="348.5" y2="368.7969"/><rect fill="none" height="20.2969" rx="5" ry="5" style="stroke:#000000;stroke-width:1.5;" width="62" x="502" y="348.5"/><rect height="60.8906" rx="5" ry="5" style="stroke:#00000000;stroke-width:1.5;fill:none;" width="130" x="601" y="326"/><text fill="#000000" font-family="sans-serif" font-size="14" lengthAdjust="spacing" textLength="34" x="606" y="340.9951">topic</text><text fill="#000000" font-family="sans-serif" font-size="14" lengthAdjust="spacing" textLength="54" x="663" y="340.9951">[string:]</text><line style="stroke:#000000;stroke-width:1.0;" x1="658" x2="658" y1="326" y2="346.2969"/><line style="stroke:#000000;stroke-width:1.0;" x1="601" x2="731" y1="346.2969" y2="346.2969"/><text fill="#000000" font-family="sans-serif" font-size="14" lengthAdjust="spacing" textLength="12" x="606" y="361.292">id</text><text fill="#000000" font-family="sans-serif" font-size="14" lengthAdjust="spacing" textLength="54" x="663" y="361.292">[string:]</text><line style="stroke:#000000;stroke-width:1.0;" x1="658" x2="658" y1="346.2969" y2="366.5938"/><line style="stroke:#000000;stroke-width:1.0;" x1="601" x2="731" y1="366.5938" y2="366.5938"/><text fill="#000000" font-family="sans-serif" font-size="14" lengthAdjust="spacing" textLength="47" x="606" y="381.5889">default</text><text fill="#000000" font-family="sans-serif" font-size="14" lengthAdjust="spacing" textLength="63" x="663" y="381.5889">[double:]</text><line style="stroke:#000000;stroke-width:1.0;" x1="658" x2="658" y1="366.5938" y2="386.8906"/><rect fill="none" height="60.8906" rx="5" ry="5" style="stroke:#000000;stroke-width:1.5;" width="130" x="601" y="326"/><rect height="20.2969" rx="5" ry="5" style="stroke:#00000000;stroke-width:1.5;fill:none;" width="62" x="502" y="391.5"/><text fill="#000000" font-family="sans-serif" font-size="14" lengthAdjust="spacing" textLength="30" x="507" y="406.4951">map</text><text fill="#000000" font-family="sans-serif" font-size="14" lengthAdjust="spacing" textLength="0" x="559" y="406.4951"/><line style="stroke:#000000;stroke-width:1.0;" x1="542" x2="542" y1="391.5" y2="411.7969"/><rect fill="none" height="20.2969" rx="5" ry="5" style="stroke:#000000;stroke-width:1.5;" width="62" x="502" y="391.5"/><rect height="60.8906" rx="5" ry="5" style="stroke:#00000000;stroke-width:1.5;fill:none;" width="121" x="605.5" y="405"/><text fill="#000000" font-family="sans-serif" font-size="14" lengthAdjust="spacing" textLength="34" x="610.5" y="419.9951">topic</text><text fill="#000000" font-family="sans-serif" font-size="14" lengthAdjust="spacing" textLength="54" x="667.5" y="419.9951">[string:]</text><line style="stroke:#000000;stroke-width:1.0;" x1="662.5" x2="662.5" y1="405" y2="425.2969"/><line style="stroke:#000000;stroke-width:1.0;" x1="605.5" x2="726.5" y1="425.2969" y2="425.2969"/><text fill="#000000" font-family="sans-serif" font-size="14" lengthAdjust="spacing" textLength="12" x="610.5" y="440.292">id</text><text fill="#000000" font-family="sans-serif" font-size="14" lengthAdjust="spacing" textLength="54" x="667.5" y="440.292">[string:]</text><line style="stroke:#000000;stroke-width:1.0;" x1="662.5" x2="662.5" y1="425.2969" y2="445.5938"/><line style="stroke:#000000;stroke-width:1.0;" x1="605.5" x2="726.5" y1="445.5938" y2="445.5938"/><text fill="#000000" font-family="sans-serif" font-size="14" lengthAdjust="spacing" textLength="47" x="610.5" y="460.5889">default</text><text fill="#000000" font-family="sans-serif" font-size="14" lengthAdjust="spacing" textLength="0" x="679.5" y="460.5889"/><line style="stroke:#000000;stroke-width:1.0;" x1="662.5" x2="662.5" y1="445.5938" y2="465.8906"/><rect fill="none" height="60.8906" rx="5" ry="5" style="stroke:#000000;stroke-width:1.5;" width="121" x="605.5" y="405"/><rect height="20.2969" rx="5" ry="5" style="stroke:#00000000;stroke-width:1.5;fill:none;" width="102" x="768" y="445.5"/><text fill="#000000" font-family="sans-serif" font-size="14" lengthAdjust="spacing" textLength="19" x="773" y="460.4951">list</text><text fill="#000000" font-family="sans-serif" font-size="14" lengthAdjust="spacing" textLength="63" x="802" y="460.4951">[double:]</text><line style="stroke:#000000;stroke-width:1.0;" x1="797" x2="797" y1="445.5" y2="465.7969"/><rect fill="none" height="20.2969" rx="5" ry="5" style="stroke:#000000;stroke-width:1.5;" width="102" x="768" y="445.5"/><rect height="20.2969" rx="5" ry="5" style="stroke:#00000000;stroke-width:1.5;fill:none;" width="62" x="502" y="438.5"/><text fill="#000000" font-family="sans-serif" font-size="14" lengthAdjust="spacing" textLength="30" x="507" y="453.4951">map</text><text fill="#000000" font-family="sans-serif" font-size="14" lengthAdjust="spacing" textLength="0" x="559" y="453.4951"/><line style="stroke:#000000;stroke-width:1.0;" x1="542" x2="542" y1="438.5" y2="458.7969"/><rect fill="none" height="20.2969" rx="5" ry="5" style="stroke:#000000;stroke-width:1.5;" width="62" x="502" y="438.5"/><rect height="40.5938" rx="5" ry="5" style="stroke:#00000000;stroke-width:1.5;fill:none;" width="121" x="605.5" y="484"/><text fill="#000000" font-family="sans-serif" font-size="14" lengthAdjust="spacing" textLength="34" x="610.5" y="498.9951">topic</text><text fill="#000000" font-family="sans-serif" font-size="14" lengthAdjust="spacing" textLength="54" x="667.5" y="498.9951">[string:]</text><line style="stroke:#000000;stroke-width:1.0;" x1="662.5" x2="662.5" y1="484" y2="504.2969"/><line style="stroke:#000000;stroke-width:1.0;" x1="605.5" x2="726.5" y1="504.2969" y2="504.2969"/><text fill="#000000" font-family="sans-serif" font-size="14" lengthAdjust="spacing" textLength="47" x="610.5" y="519.292">default</text><text fill="#000000" font-family="sans-serif" font-size="14" lengthAdjust="spacing" textLength="0" x="679.5" y="519.292"/><line style="stroke:#000000;stroke-width:1.0;" x1="662.5" x2="662.5" y1="504.2969" y2="524.5938"/><rect fill="none" height="40.5938" rx="5" ry="5" style="stroke:#000000;stroke-width:1.5;" width="121" x="605.5" y="484"/><rect height="20.2969" rx="5" ry="5" style="stroke:#00000000;stroke-width:1.5;fill:none;" width="102" x="768" y="504.5"/><text fill="#000000" font-family="sans-serif" font-size="14" lengthAdjust="spacing" textLength="19" x="773" y="519.4951">list</text><text fill="#000000" font-family="sans-serif" font-size="14" lengthAdjust="spacing" textLength="63" x="802" y="519.4951">[double:]</text><line style="stroke:#000000;stroke-width:1.0;" x1="797" x2="797" y1="504.5" y2="524.7969"/><rect fill="none" height="20.2969" rx="5" ry="5" style="stroke:#000000;stroke-width:1.5;" width="102" x="768" y="504.5"/><rect height="20.2969" rx="5" ry="5" style="stroke:#00000000;stroke-width:1.5;fill:none;" width="62" x="502" y="494.5"/><text fill="#000000" font-family="sans-serif" font-size="14" lengthAdjust="spacing" textLength="30" x="507" y="509.4951">map</text><text fill="#000000" font-family="sans-serif" font-size="14" lengthAdjust="spacing" textLength="0" x="559" y="509.4951"/><line style="stroke:#000000;stroke-width:1.0;" x1="542" x2="542" y1="494.5" y2="514.7969"/><rect fill="none" height="20.2969" rx="5" ry="5" style="stroke:#000000;stroke-width:1.5;" width="62" x="502" y="494.5"/><rect height="40.5938" rx="5" ry="5" style="stroke:#00000000;stroke-width:1.5;fill:none;" width="121" x="605.5" y="543"/><text fill="#000000" font-family="sans-serif" font-size="14" lengthAdjust="spacing" textLength="34" x="610.5" y="557.9951">topic</text><text fill="#000000" font-family="sans-serif" font-size="14" lengthAdjust="spacing" textLength="54" x="667.5" y="557.9951">[string:]</text><line style="stroke:#000000;stroke-width:1.0;" x1="662.5" x2="662.5" y1="543" y2="563.2969"/><line style="stroke:#000000;stroke-width:1.0;" x1="605.5" x2="726.5" y1="563.2969" y2="563.2969"/><text fill="#000000" font-family="sans-serif" font-size="14" lengthAdjust="spacing" textLength="47" x="610.5" y="578.292">default</text><text fill="#000000" font-family="sans-serif" font-size="14" lengthAdjust="spacing" textLength="0" x="679.5" y="578.292"/><line style="stroke:#000000;stroke-width:1.0;" x1="662.5" x2="662.5" y1="563.2969" y2="583.5938"/><rect fill="none" height="40.5938" rx="5" ry="5" style="stroke:#000000;stroke-width:1.5;" width="121" x="605.5" y="543"/><rect height="20.2969" rx="5" ry="5" style="stroke:#00000000;stroke-width:1.5;fill:none;" width="102" x="768" y="563.5"/><text fill="#000000" font-family="sans-serif" font-size="14" lengthAdjust="spacing" textLength="19" x="773" y="578.4951">list</text><text fill="#000000" font-family="sans-serif" font-size="14" lengthAdjust="spacing" textLength="63" x="802" y="578.4951">[double:]</text><line style="stroke:#000000;stroke-width:1.0;" x1="797" x2="797" y1="563.5" y2="583.7969"/><rect fill="none" height="20.2969" rx="5" ry="5" style="stroke:#000000;stroke-width:1.5;" width="102" x="768" y="563.5"/><rect height="20.2969" rx="5" ry="5" style="stroke:#00000000;stroke-width:1.5;fill:none;" width="62" x="502" y="568.5"/><text fill="#000000" font-family="sans-serif" font-size="14" lengthAdjust="spacing" textLength="30" x="507" y="583.4951">map</text><text fill="#000000" font-family="sans-serif" font-size="14" lengthAdjust="spacing" textLength="0" x="559" y="583.4951"/><line style="stroke:#000000;stroke-width:1.0;" x1="542" x2="542" y1="568.5" y2="588.7969"/><rect fill="none" height="20.2969" rx="5" ry="5" style="stroke:#000000;stroke-width:1.5;" width="62" x="502" y="568.5"/><rect height="40.5938" rx="5" ry="5" style="stroke:#00000000;stroke-width:1.5;fill:none;" width="121" x="605.5" y="602"/><text fill="#000000" font-family="sans-serif" font-size="14" lengthAdjust="spacing" textLength="34" x="610.5" y="616.9951">topic</text><text fill="#000000" font-family="sans-serif" font-size="14" lengthAdjust="spacing" textLength="54" x="667.5" y="616.9951">[string:]</text><line style="stroke:#000000;stroke-width:1.0;" x1="662.5" x2="662.5" y1="602" y2="622.2969"/><line style="stroke:#000000;stroke-width:1.0;" x1="605.5" x2="726.5" y1="622.2969" y2="622.2969"/><text fill="#000000" font-family="sans-serif" font-size="14" lengthAdjust="spacing" textLength="47" x="610.5" y="637.292">default</text><text fill="#000000" font-family="sans-serif" font-size="14" lengthAdjust="spacing" textLength="0" x="679.5" y="637.292"/><line style="stroke:#000000;stroke-width:1.0;" x1="662.5" x2="662.5" y1="622.2969" y2="642.5938"/><rect fill="none" height="40.5938" rx="5" ry="5" style="stroke:#000000;stroke-width:1.5;" width="121" x="605.5" y="602"/><rect height="20.2969" rx="5" ry="5" style="stroke:#00000000;stroke-width:1.5;fill:none;" width="102" x="768" y="622.5"/><text fill="#000000" font-family="sans-serif" font-size="14" lengthAdjust="spacing" textLength="19" x="773" y="637.4951">list</text><text fill="#000000" font-family="sans-serif" font-size="14" lengthAdjust="spacing" textLength="63" x="802" y="637.4951">[double:]</text><line style="stroke:#000000;stroke-width:1.0;" x1="797" x2="797" y1="622.5" y2="642.7969"/><rect fill="none" height="20.2969" rx="5" ry="5" style="stroke:#000000;stroke-width:1.5;" width="102" x="768" y="622.5"/><rect height="20.2969" rx="5" ry="5" style="stroke:#00000000;stroke-width:1.5;fill:none;" width="62" x="502" y="678.5"/><text fill="#000000" font-family="sans-serif" font-size="14" lengthAdjust="spacing" textLength="30" x="507" y="693.4951">map</text><text fill="#000000" font-family="sans-serif" font-size="14" lengthAdjust="spacing" textLength="0" x="559" y="693.4951"/><line style="stroke:#000000;stroke-width:1.0;" x1="542" x2="542" y1="678.5" y2="698.7969"/><rect fill="none" height="20.2969" rx="5" ry="5" style="stroke:#000000;stroke-width:1.5;" width="62" x="502" y="678.5"/><rect height="60.8906" rx="5" ry="5" style="stroke:#00000000;stroke-width:1.5;fill:none;" width="130" x="601" y="661"/><text fill="#000000" font-family="sans-serif" font-size="14" lengthAdjust="spacing" textLength="34" x="606" y="675.9951">topic</text><text fill="#000000" font-family="sans-serif" font-size="14" lengthAdjust="spacing" textLength="54" x="663" y="675.9951">[string:]</text><line style="stroke:#000000;stroke-width:1.0;" x1="658" x2="658" y1="661" y2="681.2969"/><line style="stroke:#000000;stroke-width:1.0;" x1="601" x2="731" y1="681.2969" y2="681.2969"/><text fill="#000000" font-family="sans-serif" font-size="14" lengthAdjust="spacing" textLength="12" x="606" y="696.292">id</text><text fill="#000000" font-family="sans-serif" font-size="14" lengthAdjust="spacing" textLength="54" x="663" y="696.292">[string:]</text><line style="stroke:#000000;stroke-width:1.0;" x1="658" x2="658" y1="681.2969" y2="701.5938"/><line style="stroke:#000000;stroke-width:1.0;" x1="601" x2="731" y1="701.5938" y2="701.5938"/><text fill="#000000" font-family="sans-serif" font-size="14" lengthAdjust="spacing" textLength="47" x="606" y="716.5889">default</text><text fill="#000000" font-family="sans-serif" font-size="14" lengthAdjust="spacing" textLength="63" x="663" y="716.5889">[double:]</text><line style="stroke:#000000;stroke-width:1.0;" x1="658" x2="658" y1="701.5938" y2="721.8906"/><rect fill="none" height="60.8906" rx="5" ry="5" style="stroke:#000000;stroke-width:1.5;" width="130" x="601" y="661"/><path d="M552,60.5 L565,60.5 C574.3349,60.5 584.0654,59.6597 593.6371,58.3237 " fill="none" style="stroke:#000000;stroke-width:1.0;stroke-dasharray:3.0,3.0;"/><path d="M594.1055,61.3763 L595.9266,57.9723 L593.1686,55.271 L601.2687,57.1524 L594.1055,61.3763 " fill="#000000" style="stroke:#000000;stroke-width:1.0;"/><ellipse cx="552" cy="60.5" fill="#000000" rx="3" ry="3" style="stroke:#000000;stroke-width:1.0;stroke-dasharray:3.0,3.0;"/><path d="M454.5,290.5 L454.5,277.5 C454.5,198.6841 500.6313,112.7542 521.94,77.266 " fill="none" style="stroke:#000000;stroke-width:1.0;stroke-dasharray:3.0,3.0;"/><path d="M524.5032,78.8299 L523.1129,75.3436 L519.3768,75.7021 L525.8498,70.858 L524.5032,78.8299 " fill="#000000" style="stroke:#000000;stroke-width:1.0;"/><ellipse cx="454.5" cy="290.5" fill="#000000" rx="3" ry="3" style="stroke:#000000;stroke-width:1.0;stroke-dasharray:3.0,3.0;"/><path d="M715.5,139.5 L728.5,139.5 C738.8101,139.5 749.7845,139.5 760.3958,139.5 " fill="none" style="stroke:#000000;stroke-width:1.0;stroke-dasharray:3.0,3.0;"/><path d="M760.3958,142.5591 L762.6902,139.5 L760.3958,136.4409 L768.0437,139.5 L760.3958,142.5591 " fill="#000000" style="stroke:#000000;stroke-width:1.0;"/><ellipse cx="715.5" cy="139.5" fill="#000000" rx="3" ry="3" style="stroke:#000000;stroke-width:1.0;stroke-dasharray:3.0,3.0;"/><path d="M552,139.5 L565,139.5 C575.8408,139.5 587.2151,138.3668 598.2546,136.6398 " fill="none" style="stroke:#000000;stroke-width:1.0;stroke-dasharray:3.0,3.0;"/><path d="M598.7681,139.6712 L600.5282,136.2547 L597.7411,133.6084 L605.8332,135.356 L598.7681,139.6712 " fill="#000000" style="stroke:#000000;stroke-width:1.0;"/><ellipse cx="552" cy="139.5" fill="#000000" rx="3" ry="3" style="stroke:#000000;stroke-width:1.0;stroke-dasharray:3.0,3.0;"/><path d="M453,308.5 L466,308.5 C517.0183,308.5 482.3845,246.5967 502,199.5 C508.1761,184.6712 516.5141,168.4668 522.9112,156.6402 " fill="none" style="stroke:#000000;stroke-width:1.0;stroke-dasharray:3.0,3.0;"/><path d="M525.6098,158.1184 L524.0199,154.6162 L520.2126,155.1619 L526.6068,149.8936 L525.6098,158.1184 " fill="#000000" style="stroke:#000000;stroke-width:1.0;"/><ellipse cx="453" cy="308.5" fill="#000000" rx="3" ry="3" style="stroke:#000000;stroke-width:1.0;stroke-dasharray:3.0,3.0;"/><path d="M552,218.5 L565,218.5 C574.3349,218.5 584.0654,217.6597 593.6371,216.3237 " fill="none" style="stroke:#000000;stroke-width:1.0;stroke-dasharray:3.0,3.0;"/><path d="M594.1055,219.3763 L595.9266,215.9723 L593.1686,213.271 L601.2687,215.1524 L594.1055,219.3763 " fill="#000000" style="stroke:#000000;stroke-width:1.0;"/><ellipse cx="552" cy="218.5" fill="#000000" rx="3" ry="3" style="stroke:#000000;stroke-width:1.0;stroke-dasharray:3.0,3.0;"/><path d="M453,328.5 L466,328.5 C476.743,328.5 508.95,266.2619 524.2523,235.4164 " fill="none" style="stroke:#000000;stroke-width:1.0;stroke-dasharray:3.0,3.0;"/><path d="M526.9583,236.7502 L525.2527,233.3869 L521.5463,234.0826 L527.5869,228.6514 L526.9583,236.7502 " fill="#000000" style="stroke:#000000;stroke-width:1.0;"/><ellipse cx="453" cy="328.5" fill="#000000" rx="3" ry="3" style="stroke:#000000;stroke-width:1.0;stroke-dasharray:3.0,3.0;"/><path d="M552,297.5 L565,297.5 C574.3349,297.5 584.0654,296.6597 593.6371,295.3237 " fill="none" style="stroke:#000000;stroke-width:1.0;stroke-dasharray:3.0,3.0;"/><path d="M594.1055,298.3763 L595.9266,294.9723 L593.1686,292.271 L601.2687,294.1524 L594.1055,298.3763 " fill="#000000" style="stroke:#000000;stroke-width:1.0;"/><ellipse cx="552" cy="297.5" fill="#000000" rx="3" ry="3" style="stroke:#000000;stroke-width:1.0;stroke-dasharray:3.0,3.0;"/><path d="M453,349.5 L466,349.5 C489.5958,349.5 509.8148,328.9328 521.5717,313.6681 " fill="none" style="stroke:#000000;stroke-width:1.0;stroke-dasharray:3.0,3.0;"/><path d="M524.0284,315.4704 L522.9234,311.8255 L519.1149,311.8658 L526.0774,307.5261 L524.0284,315.4704 " fill="#000000" style="stroke:#000000;stroke-width:1.0;"/><ellipse cx="453" cy="349.5" fill="#000000" rx="3" ry="3" style="stroke:#000000;stroke-width:1.0;stroke-dasharray:3.0,3.0;"/><path d="M552,358.5 L565,358.5 C574.2949,358.5 584.0724,358.4134 593.7293,358.2763 " fill="none" style="stroke:#000000;stroke-width:1.0;stroke-dasharray:3.0,3.0;"/><path d="M593.7774,361.3592 L596.0415,358.2403 L593.6813,355.1934 L601.4366,358.1562 L593.7774,361.3592 " fill="#000000" style="stroke:#000000;stroke-width:1.0;"/><ellipse cx="552" cy="358.5" fill="#000000" rx="3" ry="3" style="stroke:#000000;stroke-width:1.0;stroke-dasharray:3.0,3.0;"/><path d="M453,369.5 L466,369.5 C475.325,369.5 485.2882,368.4342 494.5887,366.966 " fill="none" style="stroke:#000000;stroke-width:1.0;stroke-dasharray:3.0,3.0;"/><path d="M495.114,370.0172 L496.8771,366.572 L494.0634,363.9148 L502.2166,365.6527 L495.114,370.0172 " fill="#000000" style="stroke:#000000;stroke-width:1.0;"/><ellipse cx="453" cy="369.5" fill="#000000" rx="3" ry="3" style="stroke:#000000;stroke-width:1.0;stroke-dasharray:3.0,3.0;"/><path d="M715.5,455.5 L728.5,455.5 C738.8101,455.5 749.7845,455.5 760.3958,455.5 " fill="none" style="stroke:#000000;stroke-width:1.0;stroke-dasharray:3.0,3.0;"/><path d="M760.3958,458.5591 L762.6902,455.5 L760.3958,452.4409 L768.0437,455.5 L760.3958,458.5591 " fill="#000000" style="stroke:#000000;stroke-width:1.0;"/><ellipse cx="715.5" cy="455.5" fill="#000000" rx="3" ry="3" style="stroke:#000000;stroke-width:1.0;stroke-dasharray:3.0,3.0;"/><path d="M552,401.5 L565,401.5 C575.9998,401.5 587.3366,403.3502 598.2546,406.1874 " fill="none" style="stroke:#000000;stroke-width:1.0;stroke-dasharray:3.0,3.0;"/><path d="M597.4101,409.1804 L600.4993,406.8208 L599.0991,403.1944 L605.737,408.2987 L597.4101,409.1804 " fill="#000000" style="stroke:#000000;stroke-width:1.0;"/><ellipse cx="552" cy="401.5" fill="#000000" rx="3" ry="3" style="stroke:#000000;stroke-width:1.0;stroke-dasharray:3.0,3.0;"/><path d="M453,390.5 L466,390.5 C475.325,390.5 485.2882,391.5658 494.5887,393.034 " fill="none" style="stroke:#000000;stroke-width:1.0;stroke-dasharray:3.0,3.0;"/><path d="M494.0634,396.0852 L496.8771,393.428 L495.114,389.9828 L502.2166,394.3473 L494.0634,396.0852 " fill="#000000" style="stroke:#000000;stroke-width:1.0;"/><ellipse cx="453" cy="390.5" fill="#000000" rx="3" ry="3" style="stroke:#000000;stroke-width:1.0;stroke-dasharray:3.0,3.0;"/><path d="M715.5,514.5 L728.5,514.5 C738.8101,514.5 749.7845,514.5 760.3958,514.5 " fill="none" style="stroke:#000000;stroke-width:1.0;stroke-dasharray:3.0,3.0;"/><path d="M760.3958,517.5591 L762.6902,514.5 L760.3958,511.4409 L768.0437,514.5 L760.3958,517.5591 " fill="#000000" style="stroke:#000000;stroke-width:1.0;"/><ellipse cx="715.5" cy="514.5" fill="#000000" rx="3" ry="3" style="stroke:#000000;stroke-width:1.0;stroke-dasharray:3.0,3.0;"/><path d="M552,448.5 L565,448.5 C585,448.5 583.7744,465.3373 601,475.5 C603.7956,477.1494 606.7017,478.7673 609.6657,480.3428 " fill="none" style="stroke:#000000;stroke-width:1.0;stroke-dasharray:3.0,3.0;"/><path d="M608.2282,483.1413 L611.7645,481.421 L611.1032,477.5444 L616.6618,483.9366 L608.2282,483.1413 " fill="#000000" style="stroke:#000000;stroke-width:1.0;"/><ellipse cx="552" cy="448.5" fill="#000000" rx="3" ry="3" style="stroke:#000000;stroke-width:1.0;stroke-dasharray:3.0,3.0;"/><path d="M453,410.5 L466,410.5 C485.1977,410.5 503.8925,422.5861 516.5457,433.1261 " fill="none" style="stroke:#000000;stroke-width:1.0;stroke-dasharray:3.0,3.0;"/><path d="M514.5496,435.4069 L518.2563,434.6232 L518.5418,430.8453 L522.2476,438.1163 L514.5496,435.4069 " fill="#000000" style="stroke:#000000;stroke-width:1.0;"/><ellipse cx="453" cy="410.5" fill="#000000" rx="3" ry="3" style="stroke:#000000;stroke-width:1.0;stroke-dasharray:3.0,3.0;"/><path d="M715.5,573.5 L728.5,573.5 C738.8101,573.5 749.7845,573.5 760.3958,573.5 " fill="none" style="stroke:#000000;stroke-width:1.0;stroke-dasharray:3.0,3.0;"/><path d="M760.3958,576.5591 L762.6902,573.5 L760.3958,570.4409 L768.0437,573.5 L760.3958,576.5591 " fill="#000000" style="stroke:#000000;stroke-width:1.0;"/><ellipse cx="715.5" cy="573.5" fill="#000000" rx="3" ry="3" style="stroke:#000000;stroke-width:1.0;stroke-dasharray:3.0,3.0;"/><path d="M552,504.5 L565,504.5 C585.8273,504.5 583.3389,523.4609 601,534.5 C603.6353,536.1472 606.3801,537.7522 609.187,539.3072 " fill="none" style="stroke:#000000;stroke-width:1.0;stroke-dasharray:3.0,3.0;"/><path d="M607.7733,541.9631 L611.1788,540.3675 L610.6006,536.6514 L615.8265,542.8413 L607.7733,541.9631 " fill="#000000" style="stroke:#000000;stroke-width:1.0;"/><ellipse cx="552" cy="504.5" fill="#000000" rx="3" ry="3" style="stroke:#000000;stroke-width:1.0;stroke-dasharray:3.0,3.0;"/><path d="M453,431.5 L466,431.5 C469.8229,431.5 500.6092,466.9476 518.9243,488.4403 " fill="none" style="stroke:#000000;stroke-width:1.0;stroke-dasharray:3.0,3.0;"/><path d="M516.5606,490.4488 L520.4307,490.2131 L521.2881,486.4318 L523.9456,494.3497 L516.5606,490.4488 " fill="#000000" style="stroke:#000000;stroke-width:1.0;"/><ellipse cx="453" cy="431.5" fill="#000000" rx="3" ry="3" style="stroke:#000000;stroke-width:1.0;stroke-dasharray:3.0,3.0;"/><path d="M715.5,632.5 L728.5,632.5 C738.8101,632.5 749.7845,632.5 760.3958,632.5 " fill="none" style="stroke:#000000;stroke-width:1.0;stroke-dasharray:3.0,3.0;"/><path d="M760.3958,635.5591 L762.6902,632.5 L760.3958,629.4409 L768.0437,632.5 L760.3958,635.5591 " fill="#000000" style="stroke:#000000;stroke-width:1.0;"/><ellipse cx="715.5" cy="632.5" fill="#000000" rx="3" ry="3" style="stroke:#000000;stroke-width:1.0;stroke-dasharray:3.0,3.0;"/><path d="M552,578.5 L565,578.5 C566.4464,578.5 589.16,588.4121 612.6268,598.8272 " fill="none" style="stroke:#000000;stroke-width:1.0;stroke-dasharray:3.0,3.0;"/><path d="M611.3908,601.6078 L614.7123,599.7541 L613.8628,596.0465 L619.5785,601.9171 L611.3908,601.6078 " fill="#000000" style="stroke:#000000;stroke-width:1.0;"/><ellipse cx="552" cy="578.5" fill="#000000" rx="3" ry="3" style="stroke:#000000;stroke-width:1.0;stroke-dasharray:3.0,3.0;"/><path d="M453,451.5 L466,451.5 C501.7771,451.5 485.3208,491.8487 502,523.5 C508.8479,536.4949 516.9215,551.0209 523.0414,561.8799 " fill="none" style="stroke:#000000;stroke-width:1.0;stroke-dasharray:3.0,3.0;"/><path d="M520.42,563.3627 L524.1535,563.846 L525.6628,560.3971 L526.7484,568.4335 L520.42,563.3627 " fill="#000000" style="stroke:#000000;stroke-width:1.0;"/><ellipse cx="453" cy="451.5" fill="#000000" rx="3" ry="3" style="stroke:#000000;stroke-width:1.0;stroke-dasharray:3.0,3.0;"/><path d="M552,688.5 L565,688.5 C574.2972,688.5 584.076,688.6299 593.7337,688.8355 " fill="none" style="stroke:#000000;stroke-width:1.0;stroke-dasharray:3.0,3.0;"/><path d="M593.6616,691.9186 L596.046,688.8896 L593.8057,685.7525 L601.4414,689.0157 L593.6616,691.9186 " fill="#000000" style="stroke:#000000;stroke-width:1.0;"/><ellipse cx="552" cy="688.5" fill="#000000" rx="3" ry="3" style="stroke:#000000;stroke-width:1.0;stroke-dasharray:3.0,3.0;"/><path d="M454.5,470.5 L454.5,483.5 C454.5,557.801 499.813,637.9307 521.3647,671.8398 " fill="none" style="stroke:#000000;stroke-width:1.0;stroke-dasharray:3.0,3.0;"/><path d="M518.7584,673.5252 L522.6287,673.7945 L523.9709,670.1545 L525.578,678.3554 L518.7584,673.5252 " fill="#000000" style="stroke:#000000;stroke-width:1.0;"/><ellipse cx="454.5" cy="470.5" fill="#000000" rx="3" ry="3" style="stroke:#000000;stroke-width:1.0;stroke-dasharray:3.0,3.0;"/><path d="M208,380.5 L221,380.5 C230.2684,380.5 239.8832,380.5 249.5337,380.5 " fill="none" style="stroke:#000000;stroke-width:1.0;stroke-dasharray:3.0,3.0;"/><path d="M249.5337,383.5965 L251.856,380.5 L249.5337,377.4035 L257.2749,380.5 L249.5337,383.5965 " fill="#000000" style="stroke:#000000;stroke-width:1.0;"/><ellipse cx="208" cy="380.5" fill="#000000" rx="3" ry="3" style="stroke:#000000;stroke-width:1.0;stroke-dasharray:3.0,3.0;"/><path d="M109,380.5 L122,380.5 C131.2902,380.5 141.3105,380.5 150.684,380.5 " fill="none" style="stroke:#000000;stroke-width:1.0;stroke-dasharray:3.0,3.0;"/><path d="M150.684,383.5765 L152.9914,380.5 L150.684,377.4235 L158.3753,380.5 L150.684,383.5765 " fill="#000000" style="stroke:#000000;stroke-width:1.0;"/><ellipse cx="109" cy="380.5" fill="#000000" rx="3" ry="3" style="stroke:#000000;stroke-width:1.0;stroke-dasharray:3.0,3.0;"/><!--MD5=[47ab124e378aaf93e7f7782fdf52046b]
@startyaml
<style>
yamlDiagram {
  node {
    BackGroundColor transparent
    LineColor black
  }
  arrow {
    LineColor black
  }
}
</style>
parameters:
  map:
    setting_speed_U_v:
      map:
        topic: [string:]
        id: [string:]
        default: [double:]
    setting_radii:
      map:
        topic: [string:]
        id: [string:]
        default:
          list: [double:]
    aim_distance_D_s:
      map:
        topic: [string:]
        id: [string:]
        default: [double:]
    fish_margin_d_f:
      map:
        topic: [string:]
        id: [string:]
        default: [double:]
    fish_margin_z_min:
      map:
        topic: [string:]
        id: [string:]
        default: [double:]
    leadline_tau_ll_z_d:
      map:
        topic: [string:]
        id: [string:]
        default:
          list: [double:]
    current_surface:
      map:
        topic: [string:]
        default:
          list: [double:]
    current_fish:
      map:
        topic: [string:]
        default:
          list: [double:]
    fish_velocity_over_ground:
      map:
        topic: [string:]
        default:
          list: [double:]
    fish_depth_z_s:
      map:
        topic: [string:]
        id: [string:]
        default: [double:]
 @endyaml

PlantUML version 1.2021.7(Sun May 23 12:40:07 GMT 2021)
(GPL source distribution)
Java Runtime: OpenJDK Runtime Environment
JVM: OpenJDK 64-Bit Server VM
Default Encoding: ANSI_X3.4-1968
Language: en
Country: US
--></g></svg>