<?xml version="1.0" encoding="UTF-8" standalone="no"?><svg xmlns="http://www.w3.org/2000/svg" xmlns:xlink="http://www.w3.org/1999/xlink" contentScriptType="application/ecmascript" contentStyleType="text/css" height="438px" preserveAspectRatio="none" style="width:514px;height:438px;background:#00000000;" version="1.1" viewBox="0 0 514 438" width="514px" zoomAndPan="magnify"><defs><filter height="300%" id="f1xb88x8b67up8" width="300%" x="-1" y="-1"><feGaussianBlur result="blurOut" stdDeviation="2.0"/><feColorMatrix in="blurOut" result="blurOut2" type="matrix" values="0 0 0 0 0 0 0 0 0 0 0 0 0 0 0 0 0 0 .4 0"/><feOffset dx="4.0" dy="4.0" in="blurOut2" result="blurOut3"/><feBlend in="SourceGraphic" in2="blurOut3" mode="normal"/></filter></defs><g><rect fill="#85BBF0" filter="url(#f1xb88x8b67up8)" height="238.0625" style="stroke:#000000;stroke-width:1.0;" width="10" x="331" y="98.2969"/><line style="stroke:#000000;stroke-width:1.0;stroke-dasharray:5.0,5.0;" x1="24" x2="24" y1="88.2969" y2="354.3594"/><line style="stroke:#000000;stroke-width:1.0;stroke-dasharray:5.0,5.0;" x1="187" x2="187" y1="88.2969" y2="354.3594"/><line style="stroke:#000000;stroke-width:1.0;stroke-dasharray:5.0,5.0;" x1="336" x2="336" y1="88.2969" y2="354.3594"/><line style="stroke:#000000;stroke-width:1.0;stroke-dasharray:5.0,5.0;" x1="453" x2="453" y1="88.2969" y2="354.3594"/><text fill="#000000" font-family="Helvetica" font-size="14" lengthAdjust="spacing" textLength="32" x="5" y="84.9951">User</text><ellipse cx="24" cy="15" fill="#85BBF0" filter="url(#f1xb88x8b67up8)" rx="8" ry="8" style="stroke:#000000;stroke-width:2.0;"/><path d="M24,23 L24,50 M11,31 L37,31 M24,50 L11,65 M24,50 L37,65 " fill="none" filter="url(#f1xb88x8b67up8)" style="stroke:#000000;stroke-width:2.0;"/><text fill="#000000" font-family="Helvetica" font-size="14" lengthAdjust="spacing" textLength="32" x="5" y="366.3545">User</text><ellipse cx="24" cy="379.6563" fill="#85BBF0" filter="url(#f1xb88x8b67up8)" rx="8" ry="8" style="stroke:#000000;stroke-width:2.0;"/><path d="M24,387.6563 L24,414.6563 M11,395.6563 L37,395.6563 M24,414.6563 L11,429.6563 M24,414.6563 L37,429.6563 " fill="none" filter="url(#f1xb88x8b67up8)" style="stroke:#000000;stroke-width:2.0;"/><rect fill="#85BBF0" filter="url(#f1xb88x8b67up8)" height="30.2969" style="stroke:#000000;stroke-width:1.5;" width="162" x="104" y="53"/><text fill="#000000" font-family="Helvetica" font-size="14" lengthAdjust="spacing" textLength="148" x="111" y="72.9951">CommandResponder</text><rect fill="#85BBF0" filter="url(#f1xb88x8b67up8)" height="30.2969" style="stroke:#000000;stroke-width:1.5;" width="162" x="104" y="353.3594"/><text fill="#000000" font-family="Helvetica" font-size="14" lengthAdjust="spacing" textLength="148" x="111" y="373.3545">CommandResponder</text><rect fill="#85BBF0" filter="url(#f1xb88x8b67up8)" height="30.2969" style="stroke:#000000;stroke-width:1.5;" width="108" x="280" y="53"/><text fill="#000000" font-family="Helvetica" font-size="14" lengthAdjust="spacing" textLength="94" x="287" y="72.9951">StateMachine</text><rect fill="#85BBF0" filter="url(#f1xb88x8b67up8)" height="30.2969" style="stroke:#000000;stroke-width:1.5;" width="108" x="280" y="353.3594"/><text fill="#000000" font-family="Helvetica" font-size="14" lengthAdjust="spacing" textLength="94" x="287" y="373.3545">StateMachine</text><rect fill="#85BBF0" filter="url(#f1xb88x8b67up8)" height="30.2969" style="stroke:#000000;stroke-width:1.5;" width="98" x="402" y="53"/><text fill="#000000" font-family="Helvetica" font-size="14" lengthAdjust="spacing" textLength="84" x="409" y="72.9951">StateNotifier</text><rect fill="#85BBF0" filter="url(#f1xb88x8b67up8)" height="30.2969" style="stroke:#000000;stroke-width:1.5;" width="98" x="402" y="353.3594"/><text fill="#000000" font-family="Helvetica" font-size="14" lengthAdjust="spacing" textLength="84" x="409" y="373.3545">StateNotifier</text><rect fill="#85BBF0" filter="url(#f1xb88x8b67up8)" height="238.0625" style="stroke:#000000;stroke-width:1.0;" width="10" x="331" y="98.2969"/><polygon fill="#000000" points="175,115.4297,185,119.4297,175,123.4297,179,119.4297" style="stroke:#000000;stroke-width:1.0;"/><line style="stroke:#000000;stroke-width:1.0;" x1="24" x2="181" y1="119.4297" y2="119.4297"/><text fill="#000000" font-family="Helvetica" font-size="13" lengthAdjust="spacing" textLength="108" x="51.5" y="114.3638">START_PROCESS</text><polygon fill="#000000" points="319,144.5625,329,148.5625,319,152.5625,323,148.5625" style="stroke:#000000;stroke-width:1.0;"/><line style="stroke:#000000;stroke-width:1.0;" x1="187" x2="325" y1="148.5625" y2="148.5625"/><text fill="#000000" font-family="Helvetica" font-size="13" lengthAdjust="spacing" textLength="47" x="235.5" y="143.4966">EvStart</text><polygon fill="#000000" points="441,173.6953,451,177.6953,441,181.6953,445,177.6953" style="stroke:#000000;stroke-width:1.0;"/><line style="stroke:#000000;stroke-width:1.0;" x1="341" x2="447" y1="177.6953" y2="177.6953"/><text fill="#000000" font-family="Helvetica" font-size="13" lengthAdjust="spacing" textLength="78" x="358" y="172.6294">INITIALIZING</text><line style="stroke:#000000;stroke-width:1.0;" x1="341" x2="383" y1="206.8281" y2="206.8281"/><line style="stroke:#000000;stroke-width:1.0;" x1="383" x2="383" y1="206.8281" y2="219.8281"/><line style="stroke:#000000;stroke-width:1.0;" x1="342" x2="383" y1="219.8281" y2="219.8281"/><polygon fill="#000000" points="352,215.8281,342,219.8281,352,223.8281,348,219.8281" style="stroke:#000000;stroke-width:1.0;"/><text fill="#000000" font-family="Helvetica" font-size="13" lengthAdjust="spacing" textLength="54" x="348" y="201.7622">EvReady</text><polygon fill="#000000" points="441,244.9609,451,248.9609,441,252.9609,445,248.9609" style="stroke:#000000;stroke-width:1.0;"/><line style="stroke:#000000;stroke-width:1.0;" x1="341" x2="447" y1="248.9609" y2="248.9609"/><text fill="#000000" font-family="Helvetica" font-size="13" lengthAdjust="spacing" textLength="61" x="366.5" y="243.895">RUNNING</text><polygon fill="#000000" points="175,274.0938,185,278.0938,175,282.0938,179,278.0938" style="stroke:#000000;stroke-width:1.0;"/><line style="stroke:#000000;stroke-width:1.0;" x1="24" x2="181" y1="278.0938" y2="278.0938"/><text fill="#000000" font-family="Helvetica" font-size="13" lengthAdjust="spacing" textLength="139" x="36" y="273.0278">TERMINATE_PROCESS</text><polygon fill="#000000" points="319,303.2266,329,307.2266,319,311.2266,323,307.2266" style="stroke:#000000;stroke-width:1.0;"/><line style="stroke:#000000;stroke-width:1.0;" x1="187" x2="325" y1="307.2266" y2="307.2266"/><text fill="#000000" font-family="Helvetica" font-size="13" lengthAdjust="spacing" textLength="32" x="243" y="302.1606">EvKill</text><polygon fill="#000000" points="441,332.3594,451,336.3594,441,340.3594,445,336.3594" style="stroke:#000000;stroke-width:1.0;"/><line style="stroke:#000000;stroke-width:1.0;" x1="336" x2="447" y1="336.3594" y2="336.3594"/><text fill="#000000" font-family="Helvetica" font-size="13" lengthAdjust="spacing" textLength="37" x="376" y="331.2935">DEAD</text><line style="stroke:#000000;stroke-width:2.0;" x1="327" x2="345" y1="327.3594" y2="345.3594"/><line style="stroke:#000000;stroke-width:2.0;" x1="327" x2="345" y1="345.3594" y2="327.3594"/><!--MD5=[4e14b31e0dee47ca3d25eab2dd92195a]
@startuml
!include ../static/style.puml
actor User as U
participant CommandResponder as CR
participant StateMachine as SM
participant StateNotifier as SN
activate SM
U -> CR : START_PROCESS
CR -> SM : EvStart
SM -> SN : INITIALIZING
SM -> SM : EvReady
SM -> SN : RUNNING
U -> CR : TERMINATE_PROCESS
CR -> SM : EvKill
SM -> SN : DEAD
destroy SM
@enduml

@startuml
skinparam defaultFontName  Helvetica
skinparam backgroundColor transparent
skinparam sequenceMessageAlign center

skinparam activity {
        ArrowColor Black
        BorderColor Black
        BorderThickness 1
}

skinparam sequence {
        BackgroundColor #85bbf0
        ArrowColor Black
        ActorBorderColor Black
        LifeLineBorderColor Black
        LifeLineBackgroundColor #85bbf0
}

skinparam participant {
        BorderColor Black
        BackgroundColor #85bbf0
}

skinparam actor {
        BorderColor Black
        BackgroundColor #85bbf0
}

skinparam usecase {
        ArrowColor Black
        BorderColor Black
        BorderThickness 1
}

skinparam class {
        ArrowColor Black

        BorderColor Black
        BorderThickness 1
}


skinparam object {
        ArrowColor Black
        BorderColor Black
}

skinparam package {
        BorderColor Black
}

skinparam note {
        BorderColor Black
}

skinparam state {
        ArrowColor Black
        BorderColor Black
        BackgroundColor Gainsboro
}


skinparam interface {
        BorderColor Black
}
actor User as U
participant CommandResponder as CR
participant StateMachine as SM
participant StateNotifier as SN
activate SM
U -> CR : START_PROCESS
CR -> SM : EvStart
SM -> SN : INITIALIZING
SM -> SM : EvReady
SM -> SN : RUNNING
U -> CR : TERMINATE_PROCESS
CR -> SM : EvKill
SM -> SN : DEAD
destroy SM
@enduml

PlantUML version 1.2021.7(Sun May 23 12:40:07 GMT 2021)
(GPL source distribution)
Java Runtime: OpenJDK Runtime Environment
JVM: OpenJDK 64-Bit Server VM
Default Encoding: ANSI_X3.4-1968
Language: en
Country: US
--></g></svg>