<?xml version="1.0" encoding="UTF-8" standalone="no"?><svg xmlns="http://www.w3.org/2000/svg" xmlns:xlink="http://www.w3.org/1999/xlink" contentScriptType="application/ecmascript" contentStyleType="text/css" height="180px" preserveAspectRatio="none" style="width:642px;height:180px;background:#FFFFFF;" version="1.1" viewBox="0 0 642 180" width="642px" zoomAndPan="magnify"><defs/><g><rect height="40.5938" rx="5" ry="5" style="stroke:#00000000;stroke-width:1.5;fill:none;" width="96" x="10" y="45"/><text fill="#000000" font-family="sans-serif" font-size="14" lengthAdjust="spacing" textLength="26" x="15" y="59.9951">dds</text><text fill="#000000" font-family="sans-serif" font-size="14" lengthAdjust="spacing" textLength="0" x="101" y="59.9951"/><line style="stroke:#000000;stroke-width:1.0;" x1="84" x2="84" y1="45" y2="65.2969"/><line style="stroke:#000000;stroke-width:1.0;" x1="10" x2="106" y1="65.2969" y2="65.2969"/><text fill="#000000" font-family="sans-serif" font-size="14" lengthAdjust="spacing" textLength="64" x="15" y="80.292">algorithm</text><text fill="#000000" font-family="sans-serif" font-size="14" lengthAdjust="spacing" textLength="0" x="101" y="80.292"/><line style="stroke:#000000;stroke-width:1.0;" x1="84" x2="84" y1="65.2969" y2="85.5938"/><rect fill="none" height="40.5938" rx="5" ry="5" style="stroke:#000000;stroke-width:1.5;" width="96" x="10" y="45"/><rect height="20.2969" rx="5" ry="5" style="stroke:#00000000;stroke-width:1.5;fill:none;" width="80" x="205" y="20.5"/><text fill="#000000" font-family="sans-serif" font-size="14" lengthAdjust="spacing" textLength="51" x="210" y="35.4951">domain</text><text fill="#000000" font-family="sans-serif" font-size="14" lengthAdjust="spacing" textLength="9" x="271" y="35.4951">0</text><line style="stroke:#000000;stroke-width:1.0;" x1="266" x2="266" y1="20.5" y2="40.7969"/><rect fill="none" height="20.2969" rx="5" ry="5" style="stroke:#000000;stroke-width:1.5;" width="80" x="205" y="20.5"/><rect height="81.1875" rx="5" ry="5" style="stroke:#00000000;stroke-width:1.5;fill:none;" width="204" x="143" y="59"/><text fill="#000000" font-family="sans-serif" font-size="14" lengthAdjust="spacing" textLength="39" x="148" y="73.9951">name</text><text fill="#000000" font-family="sans-serif" font-size="14" lengthAdjust="spacing" textLength="92" x="250" y="73.9951">PursePlanner</text><line style="stroke:#000000;stroke-width:1.0;" x1="245" x2="245" y1="59" y2="79.2969"/><line style="stroke:#000000;stroke-width:1.0;" x1="143" x2="347" y1="79.2969" y2="79.2969"/><text fill="#000000" font-family="sans-serif" font-size="14" lengthAdjust="spacing" textLength="69" x="148" y="94.292">command</text><text fill="#000000" font-family="sans-serif" font-size="14" lengthAdjust="spacing" textLength="0" x="262" y="94.292"/><line style="stroke:#000000;stroke-width:1.0;" x1="245" x2="245" y1="79.2969" y2="99.5938"/><line style="stroke:#000000;stroke-width:1.0;" x1="143" x2="347" y1="99.5938" y2="99.5938"/><text fill="#000000" font-family="sans-serif" font-size="14" lengthAdjust="spacing" textLength="47" x="148" y="114.5889">notifier</text><text fill="#000000" font-family="sans-serif" font-size="14" lengthAdjust="spacing" textLength="0" x="262" y="114.5889"/><line style="stroke:#000000;stroke-width:1.0;" x1="245" x2="245" y1="99.5938" y2="119.8906"/><line style="stroke:#000000;stroke-width:1.0;" x1="143" x2="347" y1="119.8906" y2="119.8906"/><text fill="#000000" font-family="sans-serif" font-size="14" lengthAdjust="spacing" textLength="92" x="148" y="134.8857">PursePlanner</text><text fill="#000000" font-family="sans-serif" font-size="14" lengthAdjust="spacing" textLength="0" x="262" y="134.8857"/><line style="stroke:#000000;stroke-width:1.0;" x1="245" x2="245" y1="119.8906" y2="140.1875"/><rect fill="none" height="81.1875" rx="5" ry="5" style="stroke:#000000;stroke-width:1.5;" width="204" x="143" y="59"/><rect height="60.8906" rx="5" ry="5" style="stroke:#00000000;stroke-width:1.5;fill:none;" width="214" x="400" y="10"/><text fill="#000000" font-family="sans-serif" font-size="14" lengthAdjust="spacing" textLength="95" x="405" y="24.9951">request_topic</text><text fill="#000000" font-family="sans-serif" font-size="14" lengthAdjust="spacing" textLength="61" x="510" y="24.9951">fkin_cmd</text><line style="stroke:#000000;stroke-width:1.0;" x1="505" x2="505" y1="10" y2="30.2969"/><line style="stroke:#000000;stroke-width:1.0;" x1="400" x2="614" y1="30.2969" y2="30.2969"/><text fill="#000000" font-family="sans-serif" font-size="14" lengthAdjust="spacing" textLength="74" x="405" y="45.292">reply_topic</text><text fill="#000000" font-family="sans-serif" font-size="14" lengthAdjust="spacing" textLength="99" x="510" y="45.292">fkin_cmd_resp</text><line style="stroke:#000000;stroke-width:1.0;" x1="505" x2="505" y1="30.2969" y2="50.5938"/><line style="stroke:#000000;stroke-width:1.0;" x1="400" x2="614" y1="50.5938" y2="50.5938"/><text fill="#000000" font-family="sans-serif" font-size="14" lengthAdjust="spacing" textLength="60" x="405" y="65.5889">recipient</text><text fill="#000000" font-family="sans-serif" font-size="14" lengthAdjust="spacing" textLength="92" x="510" y="65.5889">PursePlanner</text><line style="stroke:#000000;stroke-width:1.0;" x1="505" x2="505" y1="50.5938" y2="70.8906"/><rect fill="none" height="60.8906" rx="5" ry="5" style="stroke:#000000;stroke-width:1.5;" width="214" x="400" y="10"/><rect height="40.5938" rx="5" ry="5" style="stroke:#00000000;stroke-width:1.5;fill:none;" width="246" x="384" y="89"/><text fill="#000000" font-family="sans-serif" font-size="14" lengthAdjust="spacing" textLength="78" x="389" y="103.9951">notify_topic</text><text fill="#000000" font-family="sans-serif" font-size="14" lengthAdjust="spacing" textLength="148" x="477" y="103.9951">fkin_state_notification</text><line style="stroke:#000000;stroke-width:1.0;" x1="472" x2="472" y1="89" y2="109.2969"/><line style="stroke:#000000;stroke-width:1.0;" x1="384" x2="630" y1="109.2969" y2="109.2969"/><text fill="#000000" font-family="sans-serif" font-size="14" lengthAdjust="spacing" textLength="59" x="389" y="124.292">identifier</text><text fill="#000000" font-family="sans-serif" font-size="14" lengthAdjust="spacing" textLength="92" x="477" y="124.292">PursePlanner</text><line style="stroke:#000000;stroke-width:1.0;" x1="472" x2="472" y1="109.2969" y2="129.5938"/><rect fill="none" height="40.5938" rx="5" ry="5" style="stroke:#000000;stroke-width:1.5;" width="246" x="384" y="89"/><rect height="20.2969" rx="5" ry="5" style="stroke:#00000000;stroke-width:1.5;fill:none;" width="171" x="421.5" y="148.5"/><text fill="#000000" font-family="sans-serif" font-size="14" lengthAdjust="spacing" textLength="121" x="426.5" y="163.4951">algorithm-specific</text><text fill="#000000" font-family="sans-serif" font-size="14" lengthAdjust="spacing" textLength="30" x="557.5" y="163.4951">data</text><line style="stroke:#000000;stroke-width:1.0;" x1="552.5" x2="552.5" y1="148.5" y2="168.7969"/><rect fill="none" height="20.2969" rx="5" ry="5" style="stroke:#000000;stroke-width:1.5;" width="171" x="421.5" y="148.5"/><path d="M94,54.5 L107,54.5 C116.0776,54.5 161.6359,46.2776 197.8593,39.4583 " fill="none" style="stroke:#000000;stroke-width:1.0;stroke-dasharray:3.0,3.0;"/><path d="M198.4315,42.4869 L200.1307,39.0292 L197.2871,36.4297 L205.4308,38.0279 L198.4315,42.4869 " fill="#000000" style="stroke:#000000;stroke-width:1.0;"/><ellipse cx="94" cy="54.5" fill="#000000" rx="3" ry="3" style="stroke:#000000;stroke-width:1.0;stroke-dasharray:3.0,3.0;"/><path d="M335,88.5 L348,88.5 C351.4476,88.5 374.5669,81.7602 402.1313,73.3316 " fill="none" style="stroke:#000000;stroke-width:1.0;stroke-dasharray:3.0,3.0;"/><path d="M403.0498,76.3256 L404.3768,72.6426 L401.2127,70.3375 L409.6165,71.0351 L403.0498,76.3256 " fill="#000000" style="stroke:#000000;stroke-width:1.0;"/><ellipse cx="335" cy="88.5" fill="#000000" rx="3" ry="3" style="stroke:#000000;stroke-width:1.0;stroke-dasharray:3.0,3.0;"/><path d="M335,109.5 L348,109.5 C357.429,109.5 367.1735,109.5 376.9801,109.5 " fill="none" style="stroke:#000000;stroke-width:1.0;stroke-dasharray:3.0,3.0;"/><path d="M376.9801,112.5028 L379.2323,109.5 L376.9801,106.4972 L384.4873,109.5 L376.9801,112.5028 " fill="#000000" style="stroke:#000000;stroke-width:1.0;"/><ellipse cx="335" cy="109.5" fill="#000000" rx="3" ry="3" style="stroke:#000000;stroke-width:1.0;stroke-dasharray:3.0,3.0;"/><path d="M335,129.5 L348,129.5 C364.6058,129.5 367.7674,135.9992 384,139.5 C397.2243,142.352 411.3401,144.949 425.1123,147.2442 " fill="none" style="stroke:#000000;stroke-width:1.0;stroke-dasharray:3.0,3.0;"/><path d="M424.6147,150.2874 L427.3947,147.6174 L425.6098,144.201 L432.7202,148.488 L424.6147,150.2874 " fill="#000000" style="stroke:#000000;stroke-width:1.0;"/><ellipse cx="335" cy="129.5" fill="#000000" rx="3" ry="3" style="stroke:#000000;stroke-width:1.0;stroke-dasharray:3.0,3.0;"/><path d="M94,75.5 L107,75.5 C116.462,75.5 126.2365,76.0583 136.0079,77.0047 " fill="none" style="stroke:#000000;stroke-width:1.0;stroke-dasharray:3.0,3.0;"/><path d="M135.6893,79.9913 L138.2478,77.2437 L136.3265,74.0181 L143.4744,77.8012 L135.6893,79.9913 " fill="#000000" style="stroke:#000000;stroke-width:1.0;"/><ellipse cx="94" cy="75.5" fill="#000000" rx="3" ry="3" style="stroke:#000000;stroke-width:1.0;stroke-dasharray:3.0,3.0;"/><!--MD5=[676eaf7eb6fe4f270520159afaf45b8a]
@startyaml
<style>
yamlDiagram {
  node {
    BackGroundColor transparent
    LineColor black
  }
  arrow {
    LineColor black
  }
}
</style>
dds:
  domain: 0
algorithm:
  name: PursePlanner
  command:
    request_topic: fkin_cmd
    reply_topic: fkin_cmd_resp
    recipient: PursePlanner
  notifier:
    notify_topic: fkin_state_notification
    identifier: PursePlanner
  PursePlanner:
    algorithm-specific: data
 @endyaml

PlantUML version 1.2021.7(Sun May 23 12:40:07 GMT 2021)
(GPL source distribution)
Java Runtime: OpenJDK Runtime Environment
JVM: OpenJDK 64-Bit Server VM
Default Encoding: ANSI_X3.4-1968
Language: en
Country: US
--></g></svg>