<?xml version="1.0" encoding="UTF-8" standalone="no"?><svg xmlns="http://www.w3.org/2000/svg" xmlns:xlink="http://www.w3.org/1999/xlink" contentScriptType="application/ecmascript" contentStyleType="text/css" height="82px" preserveAspectRatio="none" style="width:846px;height:82px;background:#FFFFFF;" version="1.1" viewBox="0 0 846 82" width="846px" zoomAndPan="magnify"><defs/><g><rect height="20.2969" rx="5" ry="5" style="stroke:#00000000;stroke-width:1.5;fill:none;" width="62" x="10" y="30.5"/><text fill="#000000" font-family="sans-serif" font-size="14" lengthAdjust="spacing" textLength="30" x="15" y="45.4951">map</text><text fill="#000000" font-family="sans-serif" font-size="14" lengthAdjust="spacing" textLength="0" x="67" y="45.4951"/><line style="stroke:#000000;stroke-width:1.0;" x1="50" x2="50" y1="30.5" y2="50.7969"/><rect fill="none" height="20.2969" rx="5" ry="5" style="stroke:#000000;stroke-width:1.5;" width="62" x="10" y="30.5"/><rect height="20.2969" rx="5" ry="5" style="stroke:#00000000;stroke-width:1.5;fill:none;" width="88" x="109" y="30.5"/><text fill="#000000" font-family="sans-serif" font-size="14" lengthAdjust="spacing" textLength="56" x="114" y="45.4951">settings</text><text fill="#000000" font-family="sans-serif" font-size="14" lengthAdjust="spacing" textLength="0" x="192" y="45.4951"/><line style="stroke:#000000;stroke-width:1.0;" x1="175" x2="175" y1="30.5" y2="50.7969"/><rect fill="none" height="20.2969" rx="5" ry="5" style="stroke:#000000;stroke-width:1.5;" width="88" x="109" y="30.5"/><rect height="20.2969" rx="5" ry="5" style="stroke:#00000000;stroke-width:1.5;fill:none;" width="62" x="234" y="30.5"/><text fill="#000000" font-family="sans-serif" font-size="14" lengthAdjust="spacing" textLength="30" x="239" y="45.4951">map</text><text fill="#000000" font-family="sans-serif" font-size="14" lengthAdjust="spacing" textLength="0" x="291" y="45.4951"/><line style="stroke:#000000;stroke-width:1.0;" x1="274" x2="274" y1="30.5" y2="50.7969"/><rect fill="none" height="20.2969" rx="5" ry="5" style="stroke:#000000;stroke-width:1.5;" width="62" x="234" y="30.5"/><rect height="60.8906" rx="5" ry="5" style="stroke:#00000000;stroke-width:1.5;fill:none;" width="166" x="333" y="10"/><text fill="#000000" font-family="sans-serif" font-size="14" lengthAdjust="spacing" textLength="26" x="338" y="24.9951">plot</text><text fill="#000000" font-family="sans-serif" font-size="14" lengthAdjust="spacing" textLength="45" x="444" y="24.9951">[bool:]</text><line style="stroke:#000000;stroke-width:1.0;" x1="439" x2="439" y1="10" y2="30.2969"/><line style="stroke:#000000;stroke-width:1.0;" x1="333" x2="499" y1="30.2969" y2="30.2969"/><text fill="#000000" font-family="sans-serif" font-size="14" lengthAdjust="spacing" textLength="96" x="338" y="45.292">time_step_ms</text><text fill="#000000" font-family="sans-serif" font-size="14" lengthAdjust="spacing" textLength="50" x="444" y="45.292">[int32:]</text><line style="stroke:#000000;stroke-width:1.0;" x1="439" x2="439" y1="30.2969" y2="50.5938"/><line style="stroke:#000000;stroke-width:1.0;" x1="333" x2="499" y1="50.5938" y2="50.5938"/><text fill="#000000" font-family="sans-serif" font-size="14" lengthAdjust="spacing" textLength="21" x="338" y="65.5889">nlp</text><text fill="#000000" font-family="sans-serif" font-size="14" lengthAdjust="spacing" textLength="0" x="456" y="65.5889"/><line style="stroke:#000000;stroke-width:1.0;" x1="439" x2="439" y1="50.5938" y2="70.8906"/><rect fill="none" height="60.8906" rx="5" ry="5" style="stroke:#000000;stroke-width:1.5;" width="166" x="333" y="10"/><rect height="20.2969" rx="5" ry="5" style="stroke:#00000000;stroke-width:1.5;fill:none;" width="62" x="536" y="50.5"/><text fill="#000000" font-family="sans-serif" font-size="14" lengthAdjust="spacing" textLength="30" x="541" y="65.4951">map</text><text fill="#000000" font-family="sans-serif" font-size="14" lengthAdjust="spacing" textLength="0" x="593" y="65.4951"/><line style="stroke:#000000;stroke-width:1.0;" x1="576" x2="576" y1="50.5" y2="70.7969"/><rect fill="none" height="20.2969" rx="5" ry="5" style="stroke:#000000;stroke-width:1.5;" width="62" x="536" y="50.5"/><rect height="20.2969" rx="5" ry="5" style="stroke:#00000000;stroke-width:1.5;fill:none;" width="60" x="635" y="50.5"/><text fill="#000000" font-family="sans-serif" font-size="14" lengthAdjust="spacing" textLength="28" x="640" y="65.4951">vars</text><text fill="#000000" font-family="sans-serif" font-size="14" lengthAdjust="spacing" textLength="0" x="690" y="65.4951"/><line style="stroke:#000000;stroke-width:1.0;" x1="673" x2="673" y1="50.5" y2="70.7969"/><rect fill="none" height="20.2969" rx="5" ry="5" style="stroke:#000000;stroke-width:1.5;" width="60" x="635" y="50.5"/><rect height="20.2969" rx="5" ry="5" style="stroke:#00000000;stroke-width:1.5;fill:none;" width="102" x="732" y="50.5"/><text fill="#000000" font-family="sans-serif" font-size="14" lengthAdjust="spacing" textLength="19" x="737" y="65.4951">list</text><text fill="#000000" font-family="sans-serif" font-size="14" lengthAdjust="spacing" textLength="63" x="766" y="65.4951">[double:]</text><line style="stroke:#000000;stroke-width:1.0;" x1="761" x2="761" y1="50.5" y2="70.7969"/><rect fill="none" height="20.2969" rx="5" ry="5" style="stroke:#000000;stroke-width:1.5;" width="102" x="732" y="50.5"/><path d="M683,60.5 L696,60.5 C705.2427,60.5 715.041,60.5 724.5934,60.5 " fill="none" style="stroke:#000000;stroke-width:1.0;stroke-dasharray:3.0,3.0;"/><path d="M724.5934,63.5371 L726.8712,60.5 L724.5934,57.4629 L732.1862,60.5 L724.5934,63.5371 " fill="#000000" style="stroke:#000000;stroke-width:1.0;"/><ellipse cx="683" cy="60.5" fill="#000000" rx="3" ry="3" style="stroke:#000000;stroke-width:1.0;stroke-dasharray:3.0,3.0;"/><path d="M586,60.5 L599,60.5 C608.3282,60.5 618.4037,60.5 627.7897,60.5 " fill="none" style="stroke:#000000;stroke-width:1.0;stroke-dasharray:3.0,3.0;"/><path d="M627.7897,63.5762 L630.0969,60.5 L627.7897,57.4238 L635.4803,60.5 L627.7897,63.5762 " fill="#000000" style="stroke:#000000;stroke-width:1.0;"/><ellipse cx="586" cy="60.5" fill="#000000" rx="3" ry="3" style="stroke:#000000;stroke-width:1.0;stroke-dasharray:3.0,3.0;"/><path d="M487,60.5 L500,60.5 C509.2902,60.5 519.3105,60.5 528.684,60.5 " fill="none" style="stroke:#000000;stroke-width:1.0;stroke-dasharray:3.0,3.0;"/><path d="M528.684,63.5765 L530.9914,60.5 L528.684,57.4235 L536.3753,60.5 L528.684,63.5765 " fill="#000000" style="stroke:#000000;stroke-width:1.0;"/><ellipse cx="487" cy="60.5" fill="#000000" rx="3" ry="3" style="stroke:#000000;stroke-width:1.0;stroke-dasharray:3.0,3.0;"/><path d="M284,40.5 L297,40.5 C306.253,40.5 315.9124,40.5 325.5498,40.5 " fill="none" style="stroke:#000000;stroke-width:1.0;stroke-dasharray:3.0,3.0;"/><path d="M325.5498,43.5864 L327.8646,40.5 L325.5498,37.4136 L333.2659,40.5 L325.5498,43.5864 " fill="#000000" style="stroke:#000000;stroke-width:1.0;"/><ellipse cx="284" cy="40.5" fill="#000000" rx="3" ry="3" style="stroke:#000000;stroke-width:1.0;stroke-dasharray:3.0,3.0;"/><path d="M185,40.5 L198,40.5 C207.2902,40.5 217.3105,40.5 226.684,40.5 " fill="none" style="stroke:#000000;stroke-width:1.0;stroke-dasharray:3.0,3.0;"/><path d="M226.684,43.5765 L228.9914,40.5 L226.684,37.4235 L234.3753,40.5 L226.684,43.5765 " fill="#000000" style="stroke:#000000;stroke-width:1.0;"/><ellipse cx="185" cy="40.5" fill="#000000" rx="3" ry="3" style="stroke:#000000;stroke-width:1.0;stroke-dasharray:3.0,3.0;"/><path d="M60,40.5 L73,40.5 C82.2571,40.5 92.1205,40.5 101.6372,40.5 " fill="none" style="stroke:#000000;stroke-width:1.0;stroke-dasharray:3.0,3.0;"/><path d="M101.6372,43.5158 L103.899,40.5 L101.6372,37.4842 L109.1767,40.5 L101.6372,43.5158 " fill="#000000" style="stroke:#000000;stroke-width:1.0;"/><ellipse cx="60" cy="40.5" fill="#000000" rx="3" ry="3" style="stroke:#000000;stroke-width:1.0;stroke-dasharray:3.0,3.0;"/><!--MD5=[145e68352c14cc035108ab9ae2ea7389]
@startyaml
<style>
 yamlDiagram {
   node {
     BackGroundColor transparent
     LineColor black
   }
   arrow {
     LineColor black
   }
 }
 </style>
map:
  settings:
    map:
      plot: [bool:]
      time_step_ms: [int32:]
      nlp:
        map:
          vars:
            list: [double:]
 @endyaml

PlantUML version 1.2021.7(Sun May 23 12:40:07 GMT 2021)
(GPL source distribution)
Java Runtime: OpenJDK Runtime Environment
JVM: OpenJDK 64-Bit Server VM
Default Encoding: ANSI_X3.4-1968
Language: en
Country: US
--></g></svg>