<?xml version="1.0" encoding="UTF-8" standalone="no"?><svg xmlns="http://www.w3.org/2000/svg" xmlns:xlink="http://www.w3.org/1999/xlink" contentScriptType="application/ecmascript" contentStyleType="text/css" height="311px" preserveAspectRatio="none" style="width:1235px;height:311px;background:#FFFFFF;" version="1.1" viewBox="0 0 1235 311" width="1235px" zoomAndPan="magnify"><defs/><g><rect height="20.2969" rx="5" ry="5" style="stroke:#00000000;stroke-width:1.5;fill:none;" width="169" x="10" y="109"/><text fill="#000000" font-family="sans-serif" font-size="14" lengthAdjust="spacing" textLength="137" x="15" y="123.9951">formulation-schema</text><text fill="#000000" font-family="sans-serif" font-size="14" lengthAdjust="spacing" textLength="0" x="174" y="123.9951"/><line style="stroke:#000000;stroke-width:1.0;" x1="157" x2="157" y1="109" y2="129.2969"/><rect fill="none" height="20.2969" rx="5" ry="5" style="stroke:#000000;stroke-width:1.5;" width="169" x="10" y="109"/><rect height="20.2969" rx="5" ry="5" style="stroke:#00000000;stroke-width:1.5;fill:none;" width="62" x="216" y="109"/><text fill="#000000" font-family="sans-serif" font-size="14" lengthAdjust="spacing" textLength="30" x="221" y="123.9951">map</text><text fill="#000000" font-family="sans-serif" font-size="14" lengthAdjust="spacing" textLength="0" x="273" y="123.9951"/><line style="stroke:#000000;stroke-width:1.0;" x1="256" x2="256" y1="109" y2="129.2969"/><rect fill="none" height="20.2969" rx="5" ry="5" style="stroke:#000000;stroke-width:1.5;" width="62" x="216" y="109"/><rect height="121.7813" rx="5" ry="5" style="stroke:#00000000;stroke-width:1.5;fill:none;" width="227" x="315" y="58"/><text fill="#000000" font-family="sans-serif" font-size="14" lengthAdjust="spacing" textLength="117" x="320" y="72.9951">heading_rot_max</text><text fill="#000000" font-family="sans-serif" font-size="14" lengthAdjust="spacing" textLength="63" x="474" y="72.9951">[double:]</text><line style="stroke:#000000;stroke-width:1.0;" x1="469" x2="469" y1="58" y2="78.2969"/><line style="stroke:#000000;stroke-width:1.0;" x1="315" x2="542" y1="78.2969" y2="78.2969"/><text fill="#000000" font-family="sans-serif" font-size="14" lengthAdjust="spacing" textLength="122" x="320" y="93.292">heading_acc_max</text><text fill="#000000" font-family="sans-serif" font-size="14" lengthAdjust="spacing" textLength="63" x="474" y="93.292">[double:]</text><line style="stroke:#000000;stroke-width:1.0;" x1="469" x2="469" y1="78.2969" y2="98.5938"/><line style="stroke:#000000;stroke-width:1.0;" x1="315" x2="542" y1="98.5938" y2="98.5938"/><text fill="#000000" font-family="sans-serif" font-size="14" lengthAdjust="spacing" textLength="120" x="320" y="113.5889">deploy_clockwise</text><text fill="#000000" font-family="sans-serif" font-size="14" lengthAdjust="spacing" textLength="45" x="474" y="113.5889">[bool:]</text><line style="stroke:#000000;stroke-width:1.0;" x1="469" x2="469" y1="98.5938" y2="118.8906"/><line style="stroke:#000000;stroke-width:1.0;" x1="315" x2="542" y1="118.8906" y2="118.8906"/><text fill="#000000" font-family="sans-serif" font-size="14" lengthAdjust="spacing" textLength="144" x="320" y="133.8857">decision_parameters</text><text fill="#000000" font-family="sans-serif" font-size="14" lengthAdjust="spacing" textLength="0" x="486" y="133.8857"/><line style="stroke:#000000;stroke-width:1.0;" x1="469" x2="469" y1="118.8906" y2="139.1875"/><line style="stroke:#000000;stroke-width:1.0;" x1="315" x2="542" y1="139.1875" y2="139.1875"/><text fill="#000000" font-family="sans-serif" font-size="14" lengthAdjust="spacing" textLength="76" x="320" y="154.1826">subsystem</text><text fill="#000000" font-family="sans-serif" font-size="14" lengthAdjust="spacing" textLength="0" x="486" y="154.1826"/><line style="stroke:#000000;stroke-width:1.0;" x1="469" x2="469" y1="139.1875" y2="159.4844"/><line style="stroke:#000000;stroke-width:1.0;" x1="315" x2="542" y1="159.4844" y2="159.4844"/><text fill="#000000" font-family="sans-serif" font-size="14" lengthAdjust="spacing" textLength="62" x="320" y="174.4795">objective</text><text fill="#000000" font-family="sans-serif" font-size="14" lengthAdjust="spacing" textLength="0" x="486" y="174.4795"/><line style="stroke:#000000;stroke-width:1.0;" x1="469" x2="469" y1="159.4844" y2="179.7813"/><rect fill="none" height="121.7813" rx="5" ry="5" style="stroke:#000000;stroke-width:1.5;" width="227" x="315" y="58"/><rect height="20.2969" rx="5" ry="5" style="stroke:#00000000;stroke-width:1.5;fill:none;" width="62" x="579" y="83"/><text fill="#000000" font-family="sans-serif" font-size="14" lengthAdjust="spacing" textLength="30" x="584" y="97.9951">map</text><text fill="#000000" font-family="sans-serif" font-size="14" lengthAdjust="spacing" textLength="0" x="636" y="97.9951"/><line style="stroke:#000000;stroke-width:1.0;" x1="619" x2="619" y1="83" y2="103.2969"/><rect fill="none" height="20.2969" rx="5" ry="5" style="stroke:#000000;stroke-width:1.5;" width="62" x="579" y="83"/><rect height="20.2969" rx="5" ry="5" style="stroke:#00000000;stroke-width:1.5;fill:none;" width="76" x="683.5" y="65"/><text fill="#000000" font-family="sans-serif" font-size="14" lengthAdjust="spacing" textLength="44" x="688.5" y="79.9951">ellipse</text><text fill="#000000" font-family="sans-serif" font-size="14" lengthAdjust="spacing" textLength="0" x="754.5" y="79.9951"/><line style="stroke:#000000;stroke-width:1.0;" x1="737.5" x2="737.5" y1="65" y2="85.2969"/><rect fill="none" height="20.2969" rx="5" ry="5" style="stroke:#000000;stroke-width:1.5;" width="76" x="683.5" y="65"/><rect height="20.2969" rx="5" ry="5" style="stroke:#00000000;stroke-width:1.5;fill:none;" width="62" x="802" y="47"/><text fill="#000000" font-family="sans-serif" font-size="14" lengthAdjust="spacing" textLength="30" x="807" y="61.9951">map</text><text fill="#000000" font-family="sans-serif" font-size="14" lengthAdjust="spacing" textLength="0" x="859" y="61.9951"/><line style="stroke:#000000;stroke-width:1.0;" x1="842" x2="842" y1="47" y2="67.2969"/><rect fill="none" height="20.2969" rx="5" ry="5" style="stroke:#000000;stroke-width:1.5;" width="62" x="802" y="47"/><rect height="40.5938" rx="5" ry="5" style="stroke:#00000000;stroke-width:1.5;fill:none;" width="78" x="953.5" y="18.5"/><text fill="#000000" font-family="sans-serif" font-size="14" lengthAdjust="spacing" textLength="38" x="958.5" y="33.4951">along</text><text fill="#000000" font-family="sans-serif" font-size="14" lengthAdjust="spacing" textLength="0" x="1026.5" y="33.4951"/><line style="stroke:#000000;stroke-width:1.0;" x1="1009.5" x2="1009.5" y1="18.5" y2="38.7969"/><line style="stroke:#000000;stroke-width:1.0;" x1="953.5" x2="1031.5" y1="38.7969" y2="38.7969"/><text fill="#000000" font-family="sans-serif" font-size="14" lengthAdjust="spacing" textLength="46" x="958.5" y="53.792">across</text><text fill="#000000" font-family="sans-serif" font-size="14" lengthAdjust="spacing" textLength="0" x="1026.5" y="53.792"/><line style="stroke:#000000;stroke-width:1.0;" x1="1009.5" x2="1009.5" y1="38.7969" y2="59.0938"/><rect fill="none" height="40.5938" rx="5" ry="5" style="stroke:#000000;stroke-width:1.5;" width="78" x="953.5" y="18.5"/><rect height="20.2969" rx="5" ry="5" style="stroke:#00000000;stroke-width:1.5;fill:none;" width="102" x="1121" y="10"/><text fill="#000000" font-family="sans-serif" font-size="14" lengthAdjust="spacing" textLength="19" x="1126" y="24.9951">list</text><text fill="#000000" font-family="sans-serif" font-size="14" lengthAdjust="spacing" textLength="63" x="1155" y="24.9951">[double:]</text><line style="stroke:#000000;stroke-width:1.0;" x1="1150" x2="1150" y1="10" y2="30.2969"/><rect fill="none" height="20.2969" rx="5" ry="5" style="stroke:#000000;stroke-width:1.5;" width="102" x="1121" y="10"/><rect height="20.2969" rx="5" ry="5" style="stroke:#00000000;stroke-width:1.5;fill:none;" width="102" x="1121" y="48"/><text fill="#000000" font-family="sans-serif" font-size="14" lengthAdjust="spacing" textLength="19" x="1126" y="62.9951">list</text><text fill="#000000" font-family="sans-serif" font-size="14" lengthAdjust="spacing" textLength="63" x="1155" y="62.9951">[double:]</text><line style="stroke:#000000;stroke-width:1.0;" x1="1150" x2="1150" y1="48" y2="68.2969"/><rect fill="none" height="20.2969" rx="5" ry="5" style="stroke:#000000;stroke-width:1.5;" width="102" x="1121" y="48"/><rect height="20.2969" rx="5" ry="5" style="stroke:#00000000;stroke-width:1.5;fill:none;" width="62" x="579" y="139"/><text fill="#000000" font-family="sans-serif" font-size="14" lengthAdjust="spacing" textLength="30" x="584" y="153.9951">map</text><text fill="#000000" font-family="sans-serif" font-size="14" lengthAdjust="spacing" textLength="0" x="636" y="153.9951"/><line style="stroke:#000000;stroke-width:1.0;" x1="619" x2="619" y1="139" y2="159.2969"/><rect fill="none" height="20.2969" rx="5" ry="5" style="stroke:#000000;stroke-width:1.5;" width="62" x="579" y="139"/><rect height="20.2969" rx="5" ry="5" style="stroke:#00000000;stroke-width:1.5;fill:none;" width="55" x="694" y="139"/><text fill="#000000" font-family="sans-serif" font-size="14" lengthAdjust="spacing" textLength="23" x="699" y="153.9951">x_1</text><text fill="#000000" font-family="sans-serif" font-size="14" lengthAdjust="spacing" textLength="0" x="744" y="153.9951"/><line style="stroke:#000000;stroke-width:1.0;" x1="727" x2="727" y1="139" y2="159.2969"/><rect fill="none" height="20.2969" rx="5" ry="5" style="stroke:#000000;stroke-width:1.5;" width="55" x="694" y="139"/><rect height="20.2969" rx="5" ry="5" style="stroke:#00000000;stroke-width:1.5;fill:none;" width="62" x="802" y="139"/><text fill="#000000" font-family="sans-serif" font-size="14" lengthAdjust="spacing" textLength="30" x="807" y="153.9951">map</text><text fill="#000000" font-family="sans-serif" font-size="14" lengthAdjust="spacing" textLength="0" x="859" y="153.9951"/><line style="stroke:#000000;stroke-width:1.0;" x1="842" x2="842" y1="139" y2="159.2969"/><rect fill="none" height="20.2969" rx="5" ry="5" style="stroke:#000000;stroke-width:1.5;" width="62" x="802" y="139"/><rect height="142.0781" rx="5" ry="5" style="stroke:#00000000;stroke-width:1.5;fill:none;" width="181" x="902" y="78"/><text fill="#000000" font-family="sans-serif" font-size="14" lengthAdjust="spacing" textLength="51" x="907" y="92.9951">gamma</text><text fill="#000000" font-family="sans-serif" font-size="14" lengthAdjust="spacing" textLength="63" x="1015" y="92.9951">[double:]</text><line style="stroke:#000000;stroke-width:1.0;" x1="1010" x2="1010" y1="78" y2="98.2969"/><line style="stroke:#000000;stroke-width:1.0;" x1="902" x2="1083" y1="98.2969" y2="98.2969"/><text fill="#000000" font-family="sans-serif" font-size="14" lengthAdjust="spacing" textLength="24" x="907" y="113.292">k_d</text><text fill="#000000" font-family="sans-serif" font-size="14" lengthAdjust="spacing" textLength="63" x="1015" y="113.292">[double:]</text><line style="stroke:#000000;stroke-width:1.0;" x1="1010" x2="1010" y1="98.2969" y2="118.5938"/><line style="stroke:#000000;stroke-width:1.0;" x1="902" x2="1083" y1="118.5938" y2="118.5938"/><text fill="#000000" font-family="sans-serif" font-size="14" lengthAdjust="spacing" textLength="33" x="907" y="133.5889">k_pd</text><text fill="#000000" font-family="sans-serif" font-size="14" lengthAdjust="spacing" textLength="63" x="1015" y="133.5889">[double:]</text><line style="stroke:#000000;stroke-width:1.0;" x1="1010" x2="1010" y1="118.5938" y2="138.8906"/><line style="stroke:#000000;stroke-width:1.0;" x1="902" x2="1083" y1="138.8906" y2="138.8906"/><text fill="#000000" font-family="sans-serif" font-size="14" lengthAdjust="spacing" textLength="63" x="907" y="153.8857">Delta_chi</text><text fill="#000000" font-family="sans-serif" font-size="14" lengthAdjust="spacing" textLength="63" x="1015" y="153.8857">[double:]</text><line style="stroke:#000000;stroke-width:1.0;" x1="1010" x2="1010" y1="138.8906" y2="159.1875"/><line style="stroke:#000000;stroke-width:1.0;" x1="902" x2="1083" y1="159.1875" y2="159.1875"/><text fill="#000000" font-family="sans-serif" font-size="14" lengthAdjust="spacing" textLength="36" x="907" y="174.1826">Delta</text><text fill="#000000" font-family="sans-serif" font-size="14" lengthAdjust="spacing" textLength="63" x="1015" y="174.1826">[double:]</text><line style="stroke:#000000;stroke-width:1.0;" x1="1010" x2="1010" y1="159.1875" y2="179.4844"/><line style="stroke:#000000;stroke-width:1.0;" x1="902" x2="1083" y1="179.4844" y2="179.4844"/><text fill="#000000" font-family="sans-serif" font-size="14" lengthAdjust="spacing" textLength="98" x="907" y="194.4795">deploy_vicinity</text><text fill="#000000" font-family="sans-serif" font-size="14" lengthAdjust="spacing" textLength="63" x="1015" y="194.4795">[double:]</text><line style="stroke:#000000;stroke-width:1.0;" x1="1010" x2="1010" y1="179.4844" y2="199.7813"/><line style="stroke:#000000;stroke-width:1.0;" x1="902" x2="1083" y1="199.7813" y2="199.7813"/><text fill="#000000" font-family="sans-serif" font-size="14" lengthAdjust="spacing" textLength="83" x="907" y="214.7764">omega_max</text><text fill="#000000" font-family="sans-serif" font-size="14" lengthAdjust="spacing" textLength="63" x="1015" y="214.7764">[double:]</text><line style="stroke:#000000;stroke-width:1.0;" x1="1010" x2="1010" y1="199.7813" y2="220.0781"/><rect fill="none" height="142.0781" rx="5" ry="5" style="stroke:#000000;stroke-width:1.5;" width="181" x="902" y="78"/><rect height="20.2969" rx="5" ry="5" style="stroke:#00000000;stroke-width:1.5;fill:none;" width="62" x="579" y="197"/><text fill="#000000" font-family="sans-serif" font-size="14" lengthAdjust="spacing" textLength="30" x="584" y="211.9951">map</text><text fill="#000000" font-family="sans-serif" font-size="14" lengthAdjust="spacing" textLength="0" x="636" y="211.9951"/><line style="stroke:#000000;stroke-width:1.0;" x1="619" x2="619" y1="197" y2="217.2969"/><rect fill="none" height="20.2969" rx="5" ry="5" style="stroke:#000000;stroke-width:1.5;" width="62" x="579" y="197"/><rect height="20.2969" rx="5" ry="5" style="stroke:#00000000;stroke-width:1.5;fill:none;" width="87" x="678" y="238"/><text fill="#000000" font-family="sans-serif" font-size="14" lengthAdjust="spacing" textLength="55" x="683" y="252.9951">terminal</text><text fill="#000000" font-family="sans-serif" font-size="14" lengthAdjust="spacing" textLength="0" x="760" y="252.9951"/><line style="stroke:#000000;stroke-width:1.0;" x1="743" x2="743" y1="238" y2="258.2969"/><rect fill="none" height="20.2969" rx="5" ry="5" style="stroke:#000000;stroke-width:1.5;" width="87" x="678" y="238"/><rect height="20.2969" rx="5" ry="5" style="stroke:#00000000;stroke-width:1.5;fill:none;" width="62" x="802" y="248"/><text fill="#000000" font-family="sans-serif" font-size="14" lengthAdjust="spacing" textLength="30" x="807" y="262.9951">map</text><text fill="#000000" font-family="sans-serif" font-size="14" lengthAdjust="spacing" textLength="0" x="859" y="262.9951"/><line style="stroke:#000000;stroke-width:1.0;" x1="842" x2="842" y1="248" y2="268.2969"/><rect fill="none" height="20.2969" rx="5" ry="5" style="stroke:#000000;stroke-width:1.5;" width="62" x="802" y="248"/><rect height="60.8906" rx="5" ry="5" style="stroke:#00000000;stroke-width:1.5;fill:none;" width="183" x="901" y="238.5"/><text fill="#000000" font-family="sans-serif" font-size="14" lengthAdjust="spacing" textLength="87" x="906" y="253.4951">time_penalty</text><text fill="#000000" font-family="sans-serif" font-size="14" lengthAdjust="spacing" textLength="63" x="1016" y="253.4951">[double:]</text><line style="stroke:#000000;stroke-width:1.0;" x1="1011" x2="1011" y1="238.5" y2="258.7969"/><line style="stroke:#000000;stroke-width:1.0;" x1="901" x2="1084" y1="258.7969" y2="258.7969"/><text fill="#000000" font-family="sans-serif" font-size="14" lengthAdjust="spacing" textLength="82" x="906" y="273.792">tdiff_penalty</text><text fill="#000000" font-family="sans-serif" font-size="14" lengthAdjust="spacing" textLength="63" x="1016" y="273.792">[double:]</text><line style="stroke:#000000;stroke-width:1.0;" x1="1011" x2="1011" y1="258.7969" y2="279.0938"/><line style="stroke:#000000;stroke-width:1.0;" x1="901" x2="1084" y1="279.0938" y2="279.0938"/><text fill="#000000" font-family="sans-serif" font-size="14" lengthAdjust="spacing" textLength="100" x="906" y="294.0889">fish_trap_slack</text><text fill="#000000" font-family="sans-serif" font-size="14" lengthAdjust="spacing" textLength="63" x="1016" y="294.0889">[double:]</text><line style="stroke:#000000;stroke-width:1.0;" x1="1011" x2="1011" y1="279.0938" y2="299.3906"/><rect fill="none" height="60.8906" rx="5" ry="5" style="stroke:#000000;stroke-width:1.5;" width="183" x="901" y="238.5"/><path d="M1020,28 L1033,28 C1059.5201,28 1088.8491,26.52 1113.6646,24.8332 " fill="none" style="stroke:#000000;stroke-width:1.0;stroke-dasharray:3.0,3.0;"/><path d="M1113.8761,27.8525 L1115.9291,24.6745 L1113.4531,21.8138 L1121.2129,24.3044 L1113.8761,27.8525 " fill="#000000" style="stroke:#000000;stroke-width:1.0;"/><ellipse cx="1020" cy="28" fill="#000000" rx="3" ry="3" style="stroke:#000000;stroke-width:1.0;stroke-dasharray:3.0,3.0;"/><path d="M1020,49 L1033,49 C1059.5318,49 1088.8625,50.665 1113.676,52.5627 " fill="none" style="stroke:#000000;stroke-width:1.0;stroke-dasharray:3.0,3.0;"/><path d="M1113.4381,55.5817 L1115.9403,52.7411 L1113.9139,49.5436 L1121.2236,53.1575 L1113.4381,55.5817 " fill="#000000" style="stroke:#000000;stroke-width:1.0;"/><ellipse cx="1020" cy="49" fill="#000000" rx="3" ry="3" style="stroke:#000000;stroke-width:1.0;stroke-dasharray:3.0,3.0;"/><path d="M852,57 L865,57 C892.1273,57 922.1942,52.9243 946.2608,48.6517 " fill="none" style="stroke:#000000;stroke-width:1.0;stroke-dasharray:3.0,3.0;"/><path d="M946.8165,51.6883 L948.5383,48.2349 L945.7051,45.615 L953.8524,47.2625 L946.8165,51.6883 " fill="#000000" style="stroke:#000000;stroke-width:1.0;"/><ellipse cx="852" cy="57" fill="#000000" rx="3" ry="3" style="stroke:#000000;stroke-width:1.0;stroke-dasharray:3.0,3.0;"/><path d="M748,75 L761,75 C773.3905,75 786.6333,72.4266 798.3124,69.2258 " fill="none" style="stroke:#000000;stroke-width:1.0;stroke-dasharray:3.0,3.0;"/><path d="M799.1817,72.1955 L800.5397,68.5738 L797.4431,66.256 L805.7367,67.0525 L799.1817,72.1955 " fill="#000000" style="stroke:#000000;stroke-width:1.0;"/><ellipse cx="748" cy="75" fill="#000000" rx="3" ry="3" style="stroke:#000000;stroke-width:1.0;stroke-dasharray:3.0,3.0;"/><path d="M629,93 L642,93 C655.8756,93 670.7871,90.3276 683.8763,87.0422 " fill="none" style="stroke:#000000;stroke-width:1.0;stroke-dasharray:3.0,3.0;"/><path d="M684.6721,90.032 L686.1186,86.4453 L683.0804,84.0524 L691.3508,85.0525 L684.6721,90.032 " fill="#000000" style="stroke:#000000;stroke-width:1.0;"/><ellipse cx="629" cy="93" fill="#000000" rx="3" ry="3" style="stroke:#000000;stroke-width:1.0;stroke-dasharray:3.0,3.0;"/><path d="M530,129 L543,129 C561.5581,129 579.8976,118.0233 592.6014,108.1922 " fill="none" style="stroke:#000000;stroke-width:1.0;stroke-dasharray:3.0,3.0;"/><path d="M594.5903,110.6326 L594.4316,106.7005 L590.6124,105.7519 L598.7022,103.2199 L594.5903,110.6326 " fill="#000000" style="stroke:#000000;stroke-width:1.0;"/><ellipse cx="530" cy="129" fill="#000000" rx="3" ry="3" style="stroke:#000000;stroke-width:1.0;stroke-dasharray:3.0,3.0;"/><path d="M852,149 L865,149 C874.6635,149 884.7406,149 894.8064,149 " fill="none" style="stroke:#000000;stroke-width:1.0;stroke-dasharray:3.0,3.0;"/><path d="M894.8064,152.0753 L897.1129,149 L894.8064,145.9247 L902.4946,149 L894.8064,152.0753 " fill="#000000" style="stroke:#000000;stroke-width:1.0;"/><ellipse cx="852" cy="149" fill="#000000" rx="3" ry="3" style="stroke:#000000;stroke-width:1.0;stroke-dasharray:3.0,3.0;"/><path d="M738,149 L751,149 C765.1935,149 780.7775,149 794.4828,149 " fill="none" style="stroke:#000000;stroke-width:1.0;stroke-dasharray:3.0,3.0;"/><path d="M794.4828,152.1311 L796.8312,149 L794.4828,145.8689 L802.3106,149 L794.4828,152.1311 " fill="#000000" style="stroke:#000000;stroke-width:1.0;"/><ellipse cx="738" cy="149" fill="#000000" rx="3" ry="3" style="stroke:#000000;stroke-width:1.0;stroke-dasharray:3.0,3.0;"/><path d="M629,149 L642,149 C656.5607,149 672.631,149 686.4547,149 " fill="none" style="stroke:#000000;stroke-width:1.0;stroke-dasharray:3.0,3.0;"/><path d="M686.4547,152.1405 L688.81,149 L686.4547,145.8595 L694.3058,149 L686.4547,152.1405 " fill="#000000" style="stroke:#000000;stroke-width:1.0;"/><ellipse cx="629" cy="149" fill="#000000" rx="3" ry="3" style="stroke:#000000;stroke-width:1.0;stroke-dasharray:3.0,3.0;"/><path d="M530,149 L543,149 C552.2902,149 562.3105,149 571.684,149 " fill="none" style="stroke:#000000;stroke-width:1.0;stroke-dasharray:3.0,3.0;"/><path d="M571.684,152.0765 L573.9914,149 L571.684,145.9235 L579.3753,149 L571.684,152.0765 " fill="#000000" style="stroke:#000000;stroke-width:1.0;"/><ellipse cx="530" cy="149" fill="#000000" rx="3" ry="3" style="stroke:#000000;stroke-width:1.0;stroke-dasharray:3.0,3.0;"/><path d="M852,258 L865,258 C874.2553,258 883.8759,258.2936 893.4955,258.7848 " fill="none" style="stroke:#000000;stroke-width:1.0;stroke-dasharray:3.0,3.0;"/><path d="M893.3217,261.8677 L895.8078,258.9151 L893.6693,255.7018 L901.203,259.2192 L893.3217,261.8677 " fill="#000000" style="stroke:#000000;stroke-width:1.0;"/><ellipse cx="852" cy="258" fill="#000000" rx="3" ry="3" style="stroke:#000000;stroke-width:1.0;stroke-dasharray:3.0,3.0;"/><path d="M753,248 L766,248 C775.3035,248 785.2585,248.9689 794.558,250.3036 " fill="none" style="stroke:#000000;stroke-width:1.0;stroke-dasharray:3.0,3.0;"/><path d="M794.0804,253.3551 L796.8466,250.6618 L795.0355,247.2521 L802.1867,251.4975 L794.0804,253.3551 " fill="#000000" style="stroke:#000000;stroke-width:1.0;"/><ellipse cx="753" cy="248" fill="#000000" rx="3" ry="3" style="stroke:#000000;stroke-width:1.0;stroke-dasharray:3.0,3.0;"/><path d="M629,207 L642,207 C665.391,207 688.7414,221.3355 703.9207,233.0531 " fill="none" style="stroke:#000000;stroke-width:1.0;stroke-dasharray:3.0,3.0;"/><path d="M701.9959,235.4456 L705.7151,234.4967 L705.8455,230.6605 L709.9021,237.8652 L701.9959,235.4456 " fill="#000000" style="stroke:#000000;stroke-width:1.0;"/><ellipse cx="629" cy="207" fill="#000000" rx="3" ry="3" style="stroke:#000000;stroke-width:1.0;stroke-dasharray:3.0,3.0;"/><path d="M530,170 L543,170 C562.0746,170 580.7851,181.7681 593.4755,192.0307 " fill="none" style="stroke:#000000;stroke-width:1.0;stroke-dasharray:3.0,3.0;"/><path d="M591.5319,194.3192 L595.1919,193.4884 L595.419,189.7421 L599.1969,196.8896 L591.5319,194.3192 " fill="#000000" style="stroke:#000000;stroke-width:1.0;"/><ellipse cx="530" cy="170" fill="#000000" rx="3" ry="3" style="stroke:#000000;stroke-width:1.0;stroke-dasharray:3.0,3.0;"/><path d="M266,119 L279,119 C288.2872,119 297.9001,119 307.5646,119 " fill="none" style="stroke:#000000;stroke-width:1.0;stroke-dasharray:3.0,3.0;"/><path d="M307.5646,122.1026 L309.8915,119 L307.5646,115.8974 L315.3211,119 L307.5646,122.1026 " fill="#000000" style="stroke:#000000;stroke-width:1.0;"/><ellipse cx="266" cy="119" fill="#000000" rx="3" ry="3" style="stroke:#000000;stroke-width:1.0;stroke-dasharray:3.0,3.0;"/><path d="M167,119 L180,119 C189.2902,119 199.3105,119 208.684,119 " fill="none" style="stroke:#000000;stroke-width:1.0;stroke-dasharray:3.0,3.0;"/><path d="M208.684,122.0765 L210.9914,119 L208.684,115.9235 L216.3753,119 L208.684,122.0765 " fill="#000000" style="stroke:#000000;stroke-width:1.0;"/><ellipse cx="167" cy="119" fill="#000000" rx="3" ry="3" style="stroke:#000000;stroke-width:1.0;stroke-dasharray:3.0,3.0;"/><!--MD5=[dd7cc08f0433cab0963ba3dd19679aa5]
@startyaml
  <style>
  yamlDiagram {
    node {
      BackGroundColor transparent
      LineColor black
    }
    arrow {
      LineColor black
    }
  }
  </style>
  formulation-schema:
    map:
      heading_rot_max: [double:]
      heading_acc_max: [double:]
      deploy_clockwise: [bool:]
      decision_parameters:
        map:
          ellipse:
            map:
              along:
                list: [double:]
              across:
                list: [double:]
      subsystem:
        map:
          x_1:
            map:
              gamma: [double:]
              k_d: [double:]
              k_pd: [double:]
              Delta_chi: [double:]
              Delta: [double:]
              deploy_vicinity: [double:]
              omega_max: [double:]
      objective:
        map:
          terminal:
            map:
              time_penalty: [double:]
              tdiff_penalty: [double:]
              fish_trap_slack: [double:]
@endyaml

PlantUML version 1.2021.7(Sun May 23 12:40:07 GMT 2021)
(GPL source distribution)
Java Runtime: OpenJDK Runtime Environment
JVM: OpenJDK 64-Bit Server VM
Default Encoding: ANSI_X3.4-1968
Language: en
Country: US
--></g></svg>