<?xml version="1.0" encoding="UTF-8" standalone="no"?><svg xmlns="http://www.w3.org/2000/svg" xmlns:xlink="http://www.w3.org/1999/xlink" contentScriptType="application/ecmascript" contentStyleType="text/css" height="260px" preserveAspectRatio="none" style="width:1054px;height:260px;background:#FFFFFF;" version="1.1" viewBox="0 0 1054 260" width="1054px" zoomAndPan="magnify"><defs/><g><rect height="20.2969" rx="5" ry="5" style="stroke:#00000000;stroke-width:1.5;fill:none;" width="132" x="10" y="140.5"/><text fill="#000000" font-family="sans-serif" font-size="14" lengthAdjust="spacing" textLength="100" x="15" y="155.4951">shoot-schema</text><text fill="#000000" font-family="sans-serif" font-size="14" lengthAdjust="spacing" textLength="0" x="137" y="155.4951"/><line style="stroke:#000000;stroke-width:1.0;" x1="120" x2="120" y1="140.5" y2="160.7969"/><rect fill="none" height="20.2969" rx="5" ry="5" style="stroke:#000000;stroke-width:1.5;" width="132" x="10" y="140.5"/><rect height="20.2969" rx="5" ry="5" style="stroke:#00000000;stroke-width:1.5;fill:none;" width="62" x="179" y="140.5"/><text fill="#000000" font-family="sans-serif" font-size="14" lengthAdjust="spacing" textLength="30" x="184" y="155.4951">map</text><text fill="#000000" font-family="sans-serif" font-size="14" lengthAdjust="spacing" textLength="0" x="236" y="155.4951"/><line style="stroke:#000000;stroke-width:1.0;" x1="219" x2="219" y1="140.5" y2="160.7969"/><rect fill="none" height="20.2969" rx="5" ry="5" style="stroke:#000000;stroke-width:1.5;" width="62" x="179" y="140.5"/><rect height="101.4844" rx="5" ry="5" style="stroke:#00000000;stroke-width:1.5;fill:none;" width="159" x="278" y="100"/><text fill="#000000" font-family="sans-serif" font-size="14" lengthAdjust="spacing" textLength="70" x="283" y="114.9951">technique</text><text fill="#000000" font-family="sans-serif" font-size="14" lengthAdjust="spacing" textLength="54" x="378" y="114.9951">[string:]</text><line style="stroke:#000000;stroke-width:1.0;" x1="373" x2="373" y1="100" y2="120.2969"/><line style="stroke:#000000;stroke-width:1.0;" x1="278" x2="437" y1="120.2969" y2="120.2969"/><text fill="#000000" font-family="sans-serif" font-size="14" lengthAdjust="spacing" textLength="65" x="283" y="135.292">elements</text><text fill="#000000" font-family="sans-serif" font-size="14" lengthAdjust="spacing" textLength="0" x="390" y="135.292"/><line style="stroke:#000000;stroke-width:1.0;" x1="373" x2="373" y1="120.2969" y2="140.5938"/><line style="stroke:#000000;stroke-width:1.0;" x1="278" x2="437" y1="140.5938" y2="140.5938"/><text fill="#000000" font-family="sans-serif" font-size="14" lengthAdjust="spacing" textLength="52" x="283" y="155.5889">horizon</text><text fill="#000000" font-family="sans-serif" font-size="14" lengthAdjust="spacing" textLength="0" x="390" y="155.5889"/><line style="stroke:#000000;stroke-width:1.0;" x1="373" x2="373" y1="140.5938" y2="160.8906"/><line style="stroke:#000000;stroke-width:1.0;" x1="278" x2="437" y1="160.8906" y2="160.8906"/><text fill="#000000" font-family="sans-serif" font-size="14" lengthAdjust="spacing" textLength="85" x="283" y="175.8857">checkpoints</text><text fill="#000000" font-family="sans-serif" font-size="14" lengthAdjust="spacing" textLength="41" x="378" y="175.8857">[uint:]</text><line style="stroke:#000000;stroke-width:1.0;" x1="373" x2="373" y1="160.8906" y2="181.1875"/><line style="stroke:#000000;stroke-width:1.0;" x1="278" x2="437" y1="181.1875" y2="181.1875"/><text fill="#000000" font-family="sans-serif" font-size="14" lengthAdjust="spacing" textLength="52" x="283" y="196.1826">options</text><text fill="#000000" font-family="sans-serif" font-size="14" lengthAdjust="spacing" textLength="0" x="390" y="196.1826"/><line style="stroke:#000000;stroke-width:1.0;" x1="373" x2="373" y1="181.1875" y2="201.4844"/><rect fill="none" height="101.4844" rx="5" ry="5" style="stroke:#000000;stroke-width:1.5;" width="159" x="278" y="100"/><rect height="20.2969" rx="5" ry="5" style="stroke:#00000000;stroke-width:1.5;fill:none;" width="62" x="474" y="71.5"/><text fill="#000000" font-family="sans-serif" font-size="14" lengthAdjust="spacing" textLength="30" x="479" y="86.4951">map</text><text fill="#000000" font-family="sans-serif" font-size="14" lengthAdjust="spacing" textLength="0" x="531" y="86.4951"/><line style="stroke:#000000;stroke-width:1.0;" x1="514" x2="514" y1="71.5" y2="91.7969"/><rect fill="none" height="20.2969" rx="5" ry="5" style="stroke:#000000;stroke-width:1.5;" width="62" x="474" y="71.5"/><rect height="81.1875" rx="5" ry="5" style="stroke:#00000000;stroke-width:1.5;fill:none;" width="195" x="575.5" y="10"/><text fill="#000000" font-family="sans-serif" font-size="14" lengthAdjust="spacing" textLength="40" x="580.5" y="24.9951">count</text><text fill="#000000" font-family="sans-serif" font-size="14" lengthAdjust="spacing" textLength="41" x="702.5" y="24.9951">[uint:]</text><line style="stroke:#000000;stroke-width:1.0;" x1="697.5" x2="697.5" y1="10" y2="30.2969"/><line style="stroke:#000000;stroke-width:1.0;" x1="575.5" x2="770.5" y1="30.2969" y2="30.2969"/><text fill="#000000" font-family="sans-serif" font-size="14" lengthAdjust="spacing" textLength="112" x="580.5" y="45.292">regular_intervals</text><text fill="#000000" font-family="sans-serif" font-size="14" lengthAdjust="spacing" textLength="45" x="702.5" y="45.292">[bool:]</text><line style="stroke:#000000;stroke-width:1.0;" x1="697.5" x2="697.5" y1="30.2969" y2="50.5938"/><line style="stroke:#000000;stroke-width:1.0;" x1="575.5" x2="770.5" y1="50.5938" y2="50.5938"/><text fill="#000000" font-family="sans-serif" font-size="14" lengthAdjust="spacing" textLength="25" x="580.5" y="65.5889">min</text><text fill="#000000" font-family="sans-serif" font-size="14" lengthAdjust="spacing" textLength="63" x="702.5" y="65.5889">[double:]</text><line style="stroke:#000000;stroke-width:1.0;" x1="697.5" x2="697.5" y1="50.5938" y2="70.8906"/><line style="stroke:#000000;stroke-width:1.0;" x1="575.5" x2="770.5" y1="70.8906" y2="70.8906"/><text fill="#000000" font-family="sans-serif" font-size="14" lengthAdjust="spacing" textLength="28" x="580.5" y="85.8857">max</text><text fill="#000000" font-family="sans-serif" font-size="14" lengthAdjust="spacing" textLength="63" x="702.5" y="85.8857">[double:]</text><line style="stroke:#000000;stroke-width:1.0;" x1="697.5" x2="697.5" y1="70.8906" y2="91.1875"/><rect fill="none" height="81.1875" rx="5" ry="5" style="stroke:#000000;stroke-width:1.5;" width="195" x="575.5" y="10"/><rect height="20.2969" rx="5" ry="5" style="stroke:#00000000;stroke-width:1.5;fill:none;" width="62" x="474" y="139.5"/><text fill="#000000" font-family="sans-serif" font-size="14" lengthAdjust="spacing" textLength="30" x="479" y="154.4951">map</text><text fill="#000000" font-family="sans-serif" font-size="14" lengthAdjust="spacing" textLength="0" x="531" y="154.4951"/><line style="stroke:#000000;stroke-width:1.0;" x1="514" x2="514" y1="139.5" y2="159.7969"/><rect fill="none" height="20.2969" rx="5" ry="5" style="stroke:#000000;stroke-width:1.5;" width="62" x="474" y="139.5"/><rect height="81.1875" rx="5" ry="5" style="stroke:#00000000;stroke-width:1.5;fill:none;" width="130" x="608" y="109"/><text fill="#000000" font-family="sans-serif" font-size="14" lengthAdjust="spacing" textLength="44" x="613" y="123.9951">length</text><text fill="#000000" font-family="sans-serif" font-size="14" lengthAdjust="spacing" textLength="63" x="670" y="123.9951">[double:]</text><line style="stroke:#000000;stroke-width:1.0;" x1="665" x2="665" y1="109" y2="129.2969"/><line style="stroke:#000000;stroke-width:1.0;" x1="608" x2="738" y1="129.2969" y2="129.2969"/><text fill="#000000" font-family="sans-serif" font-size="14" lengthAdjust="spacing" textLength="47" x="613" y="144.292">flexible</text><text fill="#000000" font-family="sans-serif" font-size="14" lengthAdjust="spacing" textLength="45" x="670" y="144.292">[bool:]</text><line style="stroke:#000000;stroke-width:1.0;" x1="665" x2="665" y1="129.2969" y2="149.5938"/><line style="stroke:#000000;stroke-width:1.0;" x1="608" x2="738" y1="149.5938" y2="149.5938"/><text fill="#000000" font-family="sans-serif" font-size="14" lengthAdjust="spacing" textLength="25" x="613" y="164.5889">min</text><text fill="#000000" font-family="sans-serif" font-size="14" lengthAdjust="spacing" textLength="63" x="670" y="164.5889">[double:]</text><line style="stroke:#000000;stroke-width:1.0;" x1="665" x2="665" y1="149.5938" y2="169.8906"/><line style="stroke:#000000;stroke-width:1.0;" x1="608" x2="738" y1="169.8906" y2="169.8906"/><text fill="#000000" font-family="sans-serif" font-size="14" lengthAdjust="spacing" textLength="28" x="613" y="184.8857">max</text><text fill="#000000" font-family="sans-serif" font-size="14" lengthAdjust="spacing" textLength="63" x="670" y="184.8857">[double:]</text><line style="stroke:#000000;stroke-width:1.0;" x1="665" x2="665" y1="169.8906" y2="190.1875"/><rect fill="none" height="81.1875" rx="5" ry="5" style="stroke:#000000;stroke-width:1.5;" width="130" x="608" y="109"/><rect height="20.2969" rx="5" ry="5" style="stroke:#00000000;stroke-width:1.5;fill:none;" width="62" x="474" y="199.5"/><text fill="#000000" font-family="sans-serif" font-size="14" lengthAdjust="spacing" textLength="30" x="479" y="214.4951">map</text><text fill="#000000" font-family="sans-serif" font-size="14" lengthAdjust="spacing" textLength="0" x="531" y="214.4951"/><line style="stroke:#000000;stroke-width:1.0;" x1="514" x2="514" y1="199.5" y2="219.7969"/><rect fill="none" height="20.2969" rx="5" ry="5" style="stroke:#000000;stroke-width:1.5;" width="62" x="474" y="199.5"/><rect height="40.5938" rx="5" ry="5" style="stroke:#00000000;stroke-width:1.5;fill:none;" width="200" x="573" y="208"/><text fill="#000000" font-family="sans-serif" font-size="14" lengthAdjust="spacing" textLength="113" x="578" y="222.9951">integrator_name</text><text fill="#000000" font-family="sans-serif" font-size="14" lengthAdjust="spacing" textLength="54" x="714" y="222.9951">[string:]</text><line style="stroke:#000000;stroke-width:1.0;" x1="709" x2="709" y1="208" y2="228.2969"/><line style="stroke:#000000;stroke-width:1.0;" x1="573" x2="773" y1="228.2969" y2="228.2969"/><text fill="#000000" font-family="sans-serif" font-size="14" lengthAdjust="spacing" textLength="126" x="578" y="243.292">integrator_options</text><text fill="#000000" font-family="sans-serif" font-size="14" lengthAdjust="spacing" textLength="0" x="726" y="243.292"/><line style="stroke:#000000;stroke-width:1.0;" x1="709" x2="709" y1="228.2969" y2="248.5938"/><rect fill="none" height="40.5938" rx="5" ry="5" style="stroke:#000000;stroke-width:1.5;" width="200" x="573" y="208"/><rect height="20.2969" rx="5" ry="5" style="stroke:#00000000;stroke-width:1.5;fill:none;" width="62" x="810" y="228.5"/><text fill="#000000" font-family="sans-serif" font-size="14" lengthAdjust="spacing" textLength="30" x="815" y="243.4951">map</text><text fill="#000000" font-family="sans-serif" font-size="14" lengthAdjust="spacing" textLength="0" x="867" y="243.4951"/><line style="stroke:#000000;stroke-width:1.0;" x1="850" x2="850" y1="228.5" y2="248.7969"/><rect fill="none" height="20.2969" rx="5" ry="5" style="stroke:#000000;stroke-width:1.5;" width="62" x="810" y="228.5"/><rect height="20.2969" rx="5" ry="5" style="stroke:#00000000;stroke-width:1.5;fill:none;" width="133" x="909" y="228.5"/><text fill="#000000" font-family="sans-serif" font-size="14" lengthAdjust="spacing" textLength="68" x="914" y="243.4951">print_time</text><text fill="#000000" font-family="sans-serif" font-size="14" lengthAdjust="spacing" textLength="45" x="992" y="243.4951">[bool:]</text><line style="stroke:#000000;stroke-width:1.0;" x1="987" x2="987" y1="228.5" y2="248.7969"/><rect fill="none" height="20.2969" rx="5" ry="5" style="stroke:#000000;stroke-width:1.5;" width="133" x="909" y="228.5"/><path d="M524,81.5 L537,81.5 C547.1949,81.5 557.715,80.6558 568.1754,79.246 " fill="none" style="stroke:#000000;stroke-width:1.0;stroke-dasharray:3.0,3.0;"/><path d="M568.6244,82.2863 L570.4556,78.9092 L567.7264,76.2057 L575.7761,78.1234 L568.6244,82.2863 " fill="#000000" style="stroke:#000000;stroke-width:1.0;"/><ellipse cx="524" cy="81.5" fill="#000000" rx="3" ry="3" style="stroke:#000000;stroke-width:1.0;stroke-dasharray:3.0,3.0;"/><path d="M425,129.5 L438,129.5 C460.2254,129.5 480.071,111.6544 492.1758,97.7255 " fill="none" style="stroke:#000000;stroke-width:1.0;stroke-dasharray:3.0,3.0;"/><path d="M494.5942,99.7246 L493.6751,95.9117 L489.7574,95.7264 L497.1736,91.6796 L494.5942,99.7246 " fill="#000000" style="stroke:#000000;stroke-width:1.0;"/><ellipse cx="425" cy="129.5" fill="#000000" rx="3" ry="3" style="stroke:#000000;stroke-width:1.0;stroke-dasharray:3.0,3.0;"/><path d="M524,149.5 L537,149.5 C557.7418,149.5 580.2696,149.5 600.8926,149.5 " fill="none" style="stroke:#000000;stroke-width:1.0;stroke-dasharray:3.0,3.0;"/><path d="M600.8926,152.502 L603.1441,149.5 L600.8926,146.498 L608.3976,149.5 L600.8926,152.502 " fill="#000000" style="stroke:#000000;stroke-width:1.0;"/><ellipse cx="524" cy="149.5" fill="#000000" rx="3" ry="3" style="stroke:#000000;stroke-width:1.0;stroke-dasharray:3.0,3.0;"/><path d="M425,149.5 L438,149.5 C447.2902,149.5 457.3105,149.5 466.684,149.5 " fill="none" style="stroke:#000000;stroke-width:1.0;stroke-dasharray:3.0,3.0;"/><path d="M466.684,152.5765 L468.9914,149.5 L466.684,146.4235 L474.3753,149.5 L466.684,152.5765 " fill="#000000" style="stroke:#000000;stroke-width:1.0;"/><ellipse cx="425" cy="149.5" fill="#000000" rx="3" ry="3" style="stroke:#000000;stroke-width:1.0;stroke-dasharray:3.0,3.0;"/><path d="M860,238.5 L873,238.5 C882.292,238.5 892.0602,238.5 901.719,238.5 " fill="none" style="stroke:#000000;stroke-width:1.0;stroke-dasharray:3.0,3.0;"/><path d="M901.719,241.5846 L904.0324,238.5 L901.719,235.4154 L909.4304,238.5 L901.719,241.5846 " fill="#000000" style="stroke:#000000;stroke-width:1.0;"/><ellipse cx="860" cy="238.5" fill="#000000" rx="3" ry="3" style="stroke:#000000;stroke-width:1.0;stroke-dasharray:3.0,3.0;"/><path d="M761,238.5 L774,238.5 C783.2902,238.5 793.3105,238.5 802.684,238.5 " fill="none" style="stroke:#000000;stroke-width:1.0;stroke-dasharray:3.0,3.0;"/><path d="M802.684,241.5765 L804.9914,238.5 L802.684,235.4235 L810.3753,238.5 L802.684,241.5765 " fill="#000000" style="stroke:#000000;stroke-width:1.0;"/><ellipse cx="761" cy="238.5" fill="#000000" rx="3" ry="3" style="stroke:#000000;stroke-width:1.0;stroke-dasharray:3.0,3.0;"/><path d="M524,209.5 L537,209.5 C546.2782,209.5 555.8793,209.9423 565.489,210.6919 " fill="none" style="stroke:#000000;stroke-width:1.0;stroke-dasharray:3.0,3.0;"/><path d="M565.2232,213.7729 L567.7998,210.8913 L565.7548,207.6109 L573.1916,211.3564 L565.2232,213.7729 " fill="#000000" style="stroke:#000000;stroke-width:1.0;"/><ellipse cx="524" cy="209.5" fill="#000000" rx="3" ry="3" style="stroke:#000000;stroke-width:1.0;stroke-dasharray:3.0,3.0;"/><path d="M425,190.5 L438,190.5 C449.9996,190.5 462.7648,193.3955 473.8691,196.9259 " fill="none" style="stroke:#000000;stroke-width:1.0;stroke-dasharray:3.0,3.0;"/><path d="M472.862,199.8829 L476.0869,197.6812 L474.8762,193.9689 L481.2616,199.4436 L472.862,199.8829 " fill="#000000" style="stroke:#000000;stroke-width:1.0;"/><ellipse cx="425" cy="190.5" fill="#000000" rx="3" ry="3" style="stroke:#000000;stroke-width:1.0;stroke-dasharray:3.0,3.0;"/><path d="M229,150.5 L242,150.5 C251.2948,150.5 261.0121,150.5 270.691,150.5 " fill="none" style="stroke:#000000;stroke-width:1.0;stroke-dasharray:3.0,3.0;"/><path d="M270.691,153.5981 L273.0145,150.5 L270.691,147.4019 L278.4361,150.5 L270.691,153.5981 " fill="#000000" style="stroke:#000000;stroke-width:1.0;"/><ellipse cx="229" cy="150.5" fill="#000000" rx="3" ry="3" style="stroke:#000000;stroke-width:1.0;stroke-dasharray:3.0,3.0;"/><path d="M130,150.5 L143,150.5 C152.2902,150.5 162.3105,150.5 171.684,150.5 " fill="none" style="stroke:#000000;stroke-width:1.0;stroke-dasharray:3.0,3.0;"/><path d="M171.684,153.5765 L173.9914,150.5 L171.684,147.4235 L179.3753,150.5 L171.684,153.5765 " fill="#000000" style="stroke:#000000;stroke-width:1.0;"/><ellipse cx="130" cy="150.5" fill="#000000" rx="3" ry="3" style="stroke:#000000;stroke-width:1.0;stroke-dasharray:3.0,3.0;"/><!--MD5=[76c8da4e9952e9dd503010ff9904204a]
@startyaml
<style>
yamlDiagram {
  node {
    BackGroundColor transparent
    LineColor black
  }
  arrow {
    LineColor black
  }
}
</style>
shoot-schema:
  map:
    technique: [string:]
    elements:
      map:
        count: [uint:]
        regular_intervals: [bool:]
        min: [double:]
        max: [double:]
    horizon:
      map:
        length: [double:]
        flexible: [bool:]
        min: [double:]
        max: [double:]
    checkpoints: [uint:]
    options:
      map:
        integrator_name: [string:]
        integrator_options:
          map:
            print_time: [bool:]
 @endyaml

PlantUML version 1.2021.7(Sun May 23 12:40:07 GMT 2021)
(GPL source distribution)
Java Runtime: OpenJDK Runtime Environment
JVM: OpenJDK 64-Bit Server VM
Default Encoding: ANSI_X3.4-1968
Language: en
Country: US
--></g></svg>