<?xml version="1.0" encoding="UTF-8" standalone="no"?><svg xmlns="http://www.w3.org/2000/svg" xmlns:xlink="http://www.w3.org/1999/xlink" contentScriptType="application/ecmascript" contentStyleType="text/css" height="221px" preserveAspectRatio="none" style="width:1200px;height:221px;background:#FFFFFF;" version="1.1" viewBox="0 0 1200 221" width="1200px" zoomAndPan="magnify"><defs/><g><rect height="20.2969" rx="5" ry="5" style="stroke:#00000000;stroke-width:1.5;fill:none;" width="88" x="10" y="80.5"/><text fill="#000000" font-family="sans-serif" font-size="14" lengthAdjust="spacing" textLength="56" x="15" y="95.4951">settings</text><text fill="#000000" font-family="sans-serif" font-size="14" lengthAdjust="spacing" textLength="0" x="93" y="95.4951"/><line style="stroke:#000000;stroke-width:1.0;" x1="76" x2="76" y1="80.5" y2="100.7969"/><rect fill="none" height="20.2969" rx="5" ry="5" style="stroke:#000000;stroke-width:1.5;" width="88" x="10" y="80.5"/><rect height="20.2969" rx="5" ry="5" style="stroke:#00000000;stroke-width:1.5;fill:none;" width="62" x="135" y="80.5"/><text fill="#000000" font-family="sans-serif" font-size="14" lengthAdjust="spacing" textLength="30" x="140" y="95.4951">map</text><text fill="#000000" font-family="sans-serif" font-size="14" lengthAdjust="spacing" textLength="0" x="192" y="95.4951"/><line style="stroke:#000000;stroke-width:1.0;" x1="175" x2="175" y1="80.5" y2="100.7969"/><rect fill="none" height="20.2969" rx="5" ry="5" style="stroke:#000000;stroke-width:1.5;" width="62" x="135" y="80.5"/><rect height="81.1875" rx="5" ry="5" style="stroke:#00000000;stroke-width:1.5;fill:none;" width="166" x="234" y="50"/><text fill="#000000" font-family="sans-serif" font-size="14" lengthAdjust="spacing" textLength="26" x="239" y="64.9951">plot</text><text fill="#000000" font-family="sans-serif" font-size="14" lengthAdjust="spacing" textLength="45" x="345" y="64.9951">[bool:]</text><line style="stroke:#000000;stroke-width:1.0;" x1="340" x2="340" y1="50" y2="70.2969"/><line style="stroke:#000000;stroke-width:1.0;" x1="234" x2="400" y1="70.2969" y2="70.2969"/><text fill="#000000" font-family="sans-serif" font-size="14" lengthAdjust="spacing" textLength="96" x="239" y="85.292">time_step_ms</text><text fill="#000000" font-family="sans-serif" font-size="14" lengthAdjust="spacing" textLength="50" x="345" y="85.292">[int32:]</text><line style="stroke:#000000;stroke-width:1.0;" x1="340" x2="340" y1="70.2969" y2="90.5938"/><line style="stroke:#000000;stroke-width:1.0;" x1="234" x2="400" y1="90.5938" y2="90.5938"/><text fill="#000000" font-family="sans-serif" font-size="14" lengthAdjust="spacing" textLength="21" x="239" y="105.5889">nlp</text><text fill="#000000" font-family="sans-serif" font-size="14" lengthAdjust="spacing" textLength="0" x="357" y="105.5889"/><line style="stroke:#000000;stroke-width:1.0;" x1="340" x2="340" y1="90.5938" y2="110.8906"/><line style="stroke:#000000;stroke-width:1.0;" x1="234" x2="400" y1="110.8906" y2="110.8906"/><text fill="#000000" font-family="sans-serif" font-size="14" lengthAdjust="spacing" textLength="67" x="239" y="125.8857">integrator</text><text fill="#000000" font-family="sans-serif" font-size="14" lengthAdjust="spacing" textLength="0" x="357" y="125.8857"/><line style="stroke:#000000;stroke-width:1.0;" x1="340" x2="340" y1="110.8906" y2="131.1875"/><rect fill="none" height="81.1875" rx="5" ry="5" style="stroke:#000000;stroke-width:1.5;" width="166" x="234" y="50"/><rect height="20.2969" rx="5" ry="5" style="stroke:#00000000;stroke-width:1.5;fill:none;" width="62" x="437" y="74.5"/><text fill="#000000" font-family="sans-serif" font-size="14" lengthAdjust="spacing" textLength="30" x="442" y="89.4951">map</text><text fill="#000000" font-family="sans-serif" font-size="14" lengthAdjust="spacing" textLength="0" x="494" y="89.4951"/><line style="stroke:#000000;stroke-width:1.0;" x1="477" x2="477" y1="74.5" y2="94.7969"/><rect fill="none" height="20.2969" rx="5" ry="5" style="stroke:#000000;stroke-width:1.5;" width="62" x="437" y="74.5"/><rect height="81.1875" rx="5" ry="5" style="stroke:#00000000;stroke-width:1.5;fill:none;" width="256" x="536" y="19"/><text fill="#000000" font-family="sans-serif" font-size="14" lengthAdjust="spacing" textLength="77" x="541" y="33.9951">formulation</text><text fill="#000000" font-family="sans-serif" font-size="14" lengthAdjust="spacing" textLength="144" x="643" y="33.9951">*formulation-schema</text><line style="stroke:#000000;stroke-width:1.0;" x1="638" x2="638" y1="19" y2="39.2969"/><line style="stroke:#000000;stroke-width:1.0;" x1="536" x2="792" y1="39.2969" y2="39.2969"/><text fill="#000000" font-family="sans-serif" font-size="14" lengthAdjust="spacing" textLength="90" x="541" y="54.292">with_callback</text><text fill="#000000" font-family="sans-serif" font-size="14" lengthAdjust="spacing" textLength="45" x="643" y="54.292">[bool:]</text><line style="stroke:#000000;stroke-width:1.0;" x1="638" x2="638" y1="39.2969" y2="59.5938"/><line style="stroke:#000000;stroke-width:1.0;" x1="536" x2="792" y1="59.5938" y2="59.5938"/><text fill="#000000" font-family="sans-serif" font-size="14" lengthAdjust="spacing" textLength="41" x="541" y="74.5889">solver</text><text fill="#000000" font-family="sans-serif" font-size="14" lengthAdjust="spacing" textLength="0" x="655" y="74.5889"/><line style="stroke:#000000;stroke-width:1.0;" x1="638" x2="638" y1="59.5938" y2="79.8906"/><line style="stroke:#000000;stroke-width:1.0;" x1="536" x2="792" y1="79.8906" y2="79.8906"/><text fill="#000000" font-family="sans-serif" font-size="14" lengthAdjust="spacing" textLength="92" x="541" y="94.8857">discretization</text><text fill="#000000" font-family="sans-serif" font-size="14" lengthAdjust="spacing" textLength="0" x="655" y="94.8857"/><line style="stroke:#000000;stroke-width:1.0;" x1="638" x2="638" y1="79.8906" y2="100.1875"/><rect fill="none" height="81.1875" rx="5" ry="5" style="stroke:#000000;stroke-width:1.5;" width="256" x="536" y="19"/><rect height="20.2969" rx="5" ry="5" style="stroke:#00000000;stroke-width:1.5;fill:none;" width="62" x="829" y="30.5"/><text fill="#000000" font-family="sans-serif" font-size="14" lengthAdjust="spacing" textLength="30" x="834" y="45.4951">map</text><text fill="#000000" font-family="sans-serif" font-size="14" lengthAdjust="spacing" textLength="0" x="886" y="45.4951"/><line style="stroke:#000000;stroke-width:1.0;" x1="869" x2="869" y1="30.5" y2="50.7969"/><rect fill="none" height="20.2969" rx="5" ry="5" style="stroke:#000000;stroke-width:1.5;" width="62" x="829" y="30.5"/><rect height="40.5938" rx="5" ry="5" style="stroke:#00000000;stroke-width:1.5;fill:none;" width="174" x="971" y="10"/><text fill="#000000" font-family="sans-serif" font-size="14" lengthAdjust="spacing" textLength="39" x="976" y="24.9951">name</text><text fill="#000000" font-family="sans-serif" font-size="14" lengthAdjust="spacing" textLength="54" x="1038" y="24.9951">[string:]</text><line style="stroke:#000000;stroke-width:1.0;" x1="1033" x2="1033" y1="10" y2="30.2969"/><line style="stroke:#000000;stroke-width:1.0;" x1="971" x2="1145" y1="30.2969" y2="30.2969"/><text fill="#000000" font-family="sans-serif" font-size="14" lengthAdjust="spacing" textLength="52" x="976" y="45.292">options</text><text fill="#000000" font-family="sans-serif" font-size="14" lengthAdjust="spacing" textLength="102" x="1038" y="45.292">*ipopt-schema</text><line style="stroke:#000000;stroke-width:1.0;" x1="1033" x2="1033" y1="30.2969" y2="50.5938"/><rect fill="none" height="40.5938" rx="5" ry="5" style="stroke:#000000;stroke-width:1.5;" width="174" x="971" y="10"/><rect height="20.2969" rx="5" ry="5" style="stroke:#00000000;stroke-width:1.5;fill:none;" width="62" x="829" y="79.5"/><text fill="#000000" font-family="sans-serif" font-size="14" lengthAdjust="spacing" textLength="30" x="834" y="94.4951">map</text><text fill="#000000" font-family="sans-serif" font-size="14" lengthAdjust="spacing" textLength="0" x="886" y="94.4951"/><line style="stroke:#000000;stroke-width:1.0;" x1="869" x2="869" y1="79.5" y2="99.7969"/><rect fill="none" height="20.2969" rx="5" ry="5" style="stroke:#000000;stroke-width:1.5;" width="62" x="829" y="79.5"/><rect height="40.5938" rx="5" ry="5" style="stroke:#00000000;stroke-width:1.5;fill:none;" width="150" x="983" y="69"/><text fill="#000000" font-family="sans-serif" font-size="14" lengthAdjust="spacing" textLength="23" x="988" y="83.9951">x_1</text><text fill="#000000" font-family="sans-serif" font-size="14" lengthAdjust="spacing" textLength="107" x="1021" y="83.9951">*shoot-schema</text><line style="stroke:#000000;stroke-width:1.0;" x1="1016" x2="1016" y1="69" y2="89.2969"/><line style="stroke:#000000;stroke-width:1.0;" x1="983" x2="1133" y1="89.2969" y2="89.2969"/><text fill="#000000" font-family="sans-serif" font-size="14" lengthAdjust="spacing" textLength="21" x="988" y="104.292">x-2</text><text fill="#000000" font-family="sans-serif" font-size="14" lengthAdjust="spacing" textLength="107" x="1021" y="104.292">*shoot-schema</text><line style="stroke:#000000;stroke-width:1.0;" x1="1016" x2="1016" y1="89.2969" y2="109.5938"/><rect fill="none" height="40.5938" rx="5" ry="5" style="stroke:#000000;stroke-width:1.5;" width="150" x="983" y="69"/><rect height="20.2969" rx="5" ry="5" style="stroke:#00000000;stroke-width:1.5;fill:none;" width="62" x="437" y="125.5"/><text fill="#000000" font-family="sans-serif" font-size="14" lengthAdjust="spacing" textLength="30" x="442" y="140.4951">map</text><text fill="#000000" font-family="sans-serif" font-size="14" lengthAdjust="spacing" textLength="0" x="494" y="140.4951"/><line style="stroke:#000000;stroke-width:1.0;" x1="477" x2="477" y1="125.5" y2="145.7969"/><rect fill="none" height="20.2969" rx="5" ry="5" style="stroke:#000000;stroke-width:1.5;" width="62" x="437" y="125.5"/><rect height="40.5938" rx="5" ry="5" style="stroke:#00000000;stroke-width:1.5;fill:none;" width="126" x="601" y="128"/><text fill="#000000" font-family="sans-serif" font-size="14" lengthAdjust="spacing" textLength="39" x="606" y="142.9951">name</text><text fill="#000000" font-family="sans-serif" font-size="14" lengthAdjust="spacing" textLength="54" x="668" y="142.9951">[string:]</text><line style="stroke:#000000;stroke-width:1.0;" x1="663" x2="663" y1="128" y2="148.2969"/><line style="stroke:#000000;stroke-width:1.0;" x1="601" x2="727" y1="148.2969" y2="148.2969"/><text fill="#000000" font-family="sans-serif" font-size="14" lengthAdjust="spacing" textLength="52" x="606" y="163.292">options</text><text fill="#000000" font-family="sans-serif" font-size="14" lengthAdjust="spacing" textLength="0" x="680" y="163.292"/><line style="stroke:#000000;stroke-width:1.0;" x1="663" x2="663" y1="148.2969" y2="168.5938"/><rect fill="none" height="40.5938" rx="5" ry="5" style="stroke:#000000;stroke-width:1.5;" width="126" x="601" y="128"/><rect height="20.2969" rx="5" ry="5" style="stroke:#00000000;stroke-width:1.5;fill:none;" width="62" x="829" y="153.5"/><text fill="#000000" font-family="sans-serif" font-size="14" lengthAdjust="spacing" textLength="30" x="834" y="168.4951">map</text><text fill="#000000" font-family="sans-serif" font-size="14" lengthAdjust="spacing" textLength="0" x="886" y="168.4951"/><line style="stroke:#000000;stroke-width:1.0;" x1="869" x2="869" y1="153.5" y2="173.7969"/><rect fill="none" height="20.2969" rx="5" ry="5" style="stroke:#000000;stroke-width:1.5;" width="62" x="829" y="153.5"/><rect height="81.1875" rx="5" ry="5" style="stroke:#00000000;stroke-width:1.5;fill:none;" width="260" x="928" y="128"/><text fill="#000000" font-family="sans-serif" font-size="14" lengthAdjust="spacing" textLength="72" x="933" y="142.9951">print_stats</text><text fill="#000000" font-family="sans-serif" font-size="14" lengthAdjust="spacing" textLength="45" x="1129" y="142.9951">[bool:]</text><line style="stroke:#000000;stroke-width:1.0;" x1="1124" x2="1124" y1="128" y2="148.2969"/><line style="stroke:#000000;stroke-width:1.0;" x1="928" x2="1188" y1="148.2969" y2="148.2969"/><text fill="#000000" font-family="sans-serif" font-size="14" lengthAdjust="spacing" textLength="137" x="933" y="163.292">collocation_scheme</text><text fill="#000000" font-family="sans-serif" font-size="14" lengthAdjust="spacing" textLength="54" x="1129" y="163.292">[string:]</text><line style="stroke:#000000;stroke-width:1.0;" x1="1124" x2="1124" y1="148.2969" y2="168.5938"/><line style="stroke:#000000;stroke-width:1.0;" x1="928" x2="1188" y1="168.5938" y2="168.5938"/><text fill="#000000" font-family="sans-serif" font-size="14" lengthAdjust="spacing" textLength="130" x="933" y="183.5889">interpolation_order</text><text fill="#000000" font-family="sans-serif" font-size="14" lengthAdjust="spacing" textLength="41" x="1129" y="183.5889">[uint:]</text><line style="stroke:#000000;stroke-width:1.0;" x1="1124" x2="1124" y1="168.5938" y2="188.8906"/><line style="stroke:#000000;stroke-width:1.0;" x1="928" x2="1188" y1="188.8906" y2="188.8906"/><text fill="#000000" font-family="sans-serif" font-size="14" lengthAdjust="spacing" textLength="186" x="933" y="203.8857">number_of_finite_elements</text><text fill="#000000" font-family="sans-serif" font-size="14" lengthAdjust="spacing" textLength="41" x="1129" y="203.8857">[uint:]</text><line style="stroke:#000000;stroke-width:1.0;" x1="1124" x2="1124" y1="188.8906" y2="209.1875"/><rect fill="none" height="81.1875" rx="5" ry="5" style="stroke:#000000;stroke-width:1.5;" width="260" x="928" y="128"/><path d="M879,40.5 L892,40.5 C915.2467,40.5 940.2968,39.5048 963.699,38.1423 " fill="none" style="stroke:#000000;stroke-width:1.0;stroke-dasharray:3.0,3.0;"/><path d="M963.8807,41.1566 L965.9597,38.006 L963.5172,35.128 L971.2348,37.6878 L963.8807,41.1566 " fill="#000000" style="stroke:#000000;stroke-width:1.0;"/><ellipse cx="879" cy="40.5" fill="#000000" rx="3" ry="3" style="stroke:#000000;stroke-width:1.0;stroke-dasharray:3.0,3.0;"/><path d="M780,69.5 L793,69.5 C809.3659,69.5 826.2502,62.0289 838.9105,54.6708 " fill="none" style="stroke:#000000;stroke-width:1.0;stroke-dasharray:3.0,3.0;"/><path d="M840.5217,57.2983 L840.8811,53.4624 L837.2993,52.0433 L845.4793,50.6428 L840.5217,57.2983 " fill="#000000" style="stroke:#000000;stroke-width:1.0;"/><ellipse cx="780" cy="69.5" fill="#000000" rx="3" ry="3" style="stroke:#000000;stroke-width:1.0;stroke-dasharray:3.0,3.0;"/><path d="M879,89.5 L892,89.5 C919.1972,89.5 948.9085,89.5 975.5564,89.5 " fill="none" style="stroke:#000000;stroke-width:1.0;stroke-dasharray:3.0,3.0;"/><path d="M975.5564,92.6186 L977.8954,89.5 L975.5564,86.3814 L983.353,89.5 L975.5564,92.6186 " fill="#000000" style="stroke:#000000;stroke-width:1.0;"/><ellipse cx="879" cy="89.5" fill="#000000" rx="3" ry="3" style="stroke:#000000;stroke-width:1.0;stroke-dasharray:3.0,3.0;"/><path d="M780,89.5 L793,89.5 C802.2902,89.5 812.3105,89.5 821.684,89.5 " fill="none" style="stroke:#000000;stroke-width:1.0;stroke-dasharray:3.0,3.0;"/><path d="M821.684,92.5765 L823.9914,89.5 L821.684,86.4235 L829.3753,89.5 L821.684,92.5765 " fill="#000000" style="stroke:#000000;stroke-width:1.0;"/><ellipse cx="780" cy="89.5" fill="#000000" rx="3" ry="3" style="stroke:#000000;stroke-width:1.0;stroke-dasharray:3.0,3.0;"/><path d="M487,84.5 L500,84.5 C509.2899,84.5 518.8429,84.1007 528.4441,83.4031 " fill="none" style="stroke:#000000;stroke-width:1.0;stroke-dasharray:3.0,3.0;"/><path d="M528.6927,86.4857 L530.756,83.2167 L528.1955,80.3206 L536.1504,82.7816 L528.6927,86.4857 " fill="#000000" style="stroke:#000000;stroke-width:1.0;"/><ellipse cx="487" cy="84.5" fill="#000000" rx="3" ry="3" style="stroke:#000000;stroke-width:1.0;stroke-dasharray:3.0,3.0;"/><path d="M388,100.5 L401,100.5 C411.0303,100.5 421.6814,98.7581 431.4517,96.4237 " fill="none" style="stroke:#000000;stroke-width:1.0;stroke-dasharray:3.0,3.0;"/><path d="M432.2043,99.3336 L433.6341,95.8593 L430.6991,93.5138 L438.7264,94.5422 L432.2043,99.3336 " fill="#000000" style="stroke:#000000;stroke-width:1.0;"/><ellipse cx="388" cy="100.5" fill="#000000" rx="3" ry="3" style="stroke:#000000;stroke-width:1.0;stroke-dasharray:3.0,3.0;"/><path d="M879,163.5 L892,163.5 C901.2997,163.5 910.892,163.5799 920.5544,163.7194 " fill="none" style="stroke:#000000;stroke-width:1.0;stroke-dasharray:3.0,3.0;"/><path d="M920.5047,166.8233 L922.8824,163.7567 L920.6042,160.6154 L928.3143,163.8437 L920.5047,166.8233 " fill="#000000" style="stroke:#000000;stroke-width:1.0;"/><ellipse cx="879" cy="163.5" fill="#000000" rx="3" ry="3" style="stroke:#000000;stroke-width:1.0;stroke-dasharray:3.0,3.0;"/><path d="M715.5,158.5 L728.5,158.5 C759.8514,158.5 795.3926,159.9477 821.5372,161.2851 " fill="none" style="stroke:#000000;stroke-width:1.0;stroke-dasharray:3.0,3.0;"/><path d="M821.3733,164.404 L823.8764,161.408 L821.7011,158.1662 L829.3344,161.6949 L821.3733,164.404 " fill="#000000" style="stroke:#000000;stroke-width:1.0;"/><ellipse cx="715.5" cy="158.5" fill="#000000" rx="3" ry="3" style="stroke:#000000;stroke-width:1.0;stroke-dasharray:3.0,3.0;"/><path d="M487,135.5 L500,135.5 C530.8442,135.5 564.8588,137.8275 593.8386,140.5128 " fill="none" style="stroke:#000000;stroke-width:1.0;stroke-dasharray:3.0,3.0;"/><path d="M593.5478,143.5698 L596.1314,140.7309 L594.1294,137.4557 L601.4812,141.2398 L593.5478,143.5698 " fill="#000000" style="stroke:#000000;stroke-width:1.0;"/><ellipse cx="487" cy="135.5" fill="#000000" rx="3" ry="3" style="stroke:#000000;stroke-width:1.0;stroke-dasharray:3.0,3.0;"/><path d="M388,120.5 L401,120.5 C410.5255,120.5 420.6345,121.9826 430.0186,124.0156 " fill="none" style="stroke:#000000;stroke-width:1.0;stroke-dasharray:3.0,3.0;"/><path d="M429.3264,126.9538 L432.2223,124.5348 L430.7109,121.0775 L437.3641,125.7463 L429.3264,126.9538 " fill="#000000" style="stroke:#000000;stroke-width:1.0;"/><ellipse cx="388" cy="120.5" fill="#000000" rx="3" ry="3" style="stroke:#000000;stroke-width:1.0;stroke-dasharray:3.0,3.0;"/><path d="M185,90.5 L198,90.5 C207.253,90.5 216.9124,90.5 226.5498,90.5 " fill="none" style="stroke:#000000;stroke-width:1.0;stroke-dasharray:3.0,3.0;"/><path d="M226.5498,93.5864 L228.8646,90.5 L226.5498,87.4136 L234.2659,90.5 L226.5498,93.5864 " fill="#000000" style="stroke:#000000;stroke-width:1.0;"/><ellipse cx="185" cy="90.5" fill="#000000" rx="3" ry="3" style="stroke:#000000;stroke-width:1.0;stroke-dasharray:3.0,3.0;"/><path d="M86,90.5 L99,90.5 C108.2902,90.5 118.3105,90.5 127.684,90.5 " fill="none" style="stroke:#000000;stroke-width:1.0;stroke-dasharray:3.0,3.0;"/><path d="M127.684,93.5765 L129.9914,90.5 L127.684,87.4235 L135.3753,90.5 L127.684,93.5765 " fill="#000000" style="stroke:#000000;stroke-width:1.0;"/><ellipse cx="86" cy="90.5" fill="#000000" rx="3" ry="3" style="stroke:#000000;stroke-width:1.0;stroke-dasharray:3.0,3.0;"/><!--MD5=[a81e449f2571fef9ed9ca99dfe978062]
@startyaml
<style>
yamlDiagram {
  node {
    BackGroundColor transparent
    LineColor black
  }
  arrow {
    LineColor black
  }
}
</style>
settings:
  map:
    plot: [bool:]
    time_step_ms: [int32:]
    nlp:
      map:
        formulation:
          *formulation-schema
        with_callback: [bool:]
        solver:
          map:
            name: [string:]
            options:
              *ipopt-schema
        discretization:
          map:
            x_1:
              *shoot-schema
            x-2:
              *shoot-schema
    integrator:
      map:
        name: [string:]
        options:
          map:
            print_stats: [bool:]
            collocation_scheme: [string:]
            interpolation_order: [uint:]
            number_of_finite_elements: [uint:]
 @endyaml

PlantUML version 1.2021.7(Sun May 23 12:40:07 GMT 2021)
(GPL source distribution)
Java Runtime: OpenJDK Runtime Environment
JVM: OpenJDK 64-Bit Server VM
Default Encoding: ANSI_X3.4-1968
Language: en
Country: US
--></g></svg>