<?xml version="1.0" encoding="UTF-8" standalone="no"?><svg xmlns="http://www.w3.org/2000/svg" xmlns:xlink="http://www.w3.org/1999/xlink" contentScriptType="application/ecmascript" contentStyleType="text/css" height="42px" preserveAspectRatio="none" style="width:482px;height:42px;background:#FFFFFF;" version="1.1" viewBox="0 0 482 42" width="482px" zoomAndPan="magnify"><defs/><g><rect height="20.2969" rx="5" ry="5" style="stroke:#00000000;stroke-width:1.5;fill:none;" width="137" x="10" y="10"/><text fill="#000000" font-family="sans-serif" font-size="14" lengthAdjust="spacing" textLength="105" x="15" y="24.9951">initial_condition</text><text fill="#000000" font-family="sans-serif" font-size="14" lengthAdjust="spacing" textLength="0" x="142" y="24.9951"/><line style="stroke:#000000;stroke-width:1.0;" x1="125" x2="125" y1="10" y2="30.2969"/><rect fill="none" height="20.2969" rx="5" ry="5" style="stroke:#000000;stroke-width:1.5;" width="137" x="10" y="10"/><rect height="20.2969" rx="5" ry="5" style="stroke:#00000000;stroke-width:1.5;fill:none;" width="62" x="184" y="10"/><text fill="#000000" font-family="sans-serif" font-size="14" lengthAdjust="spacing" textLength="30" x="189" y="24.9951">map</text><text fill="#000000" font-family="sans-serif" font-size="14" lengthAdjust="spacing" textLength="0" x="241" y="24.9951"/><line style="stroke:#000000;stroke-width:1.0;" x1="224" x2="224" y1="10" y2="30.2969"/><rect fill="none" height="20.2969" rx="5" ry="5" style="stroke:#000000;stroke-width:1.5;" width="62" x="184" y="10"/><rect height="20.2969" rx="5" ry="5" style="stroke:#00000000;stroke-width:1.5;fill:none;" width="48" x="283" y="10"/><text fill="#000000" font-family="sans-serif" font-size="14" lengthAdjust="spacing" textLength="16" x="288" y="24.9951">x0</text><text fill="#000000" font-family="sans-serif" font-size="14" lengthAdjust="spacing" textLength="0" x="326" y="24.9951"/><line style="stroke:#000000;stroke-width:1.0;" x1="309" x2="309" y1="10" y2="30.2969"/><rect fill="none" height="20.2969" rx="5" ry="5" style="stroke:#000000;stroke-width:1.5;" width="48" x="283" y="10"/><rect height="20.2969" rx="5" ry="5" style="stroke:#00000000;stroke-width:1.5;fill:none;" width="102" x="368" y="10"/><text fill="#000000" font-family="sans-serif" font-size="14" lengthAdjust="spacing" textLength="19" x="373" y="24.9951">list</text><text fill="#000000" font-family="sans-serif" font-size="14" lengthAdjust="spacing" textLength="63" x="402" y="24.9951">[double:]</text><line style="stroke:#000000;stroke-width:1.0;" x1="397" x2="397" y1="10" y2="30.2969"/><rect fill="none" height="20.2969" rx="5" ry="5" style="stroke:#000000;stroke-width:1.5;" width="102" x="368" y="10"/><path d="M319,20 L332,20 C341.2427,20 351.041,20 360.5934,20 " fill="none" style="stroke:#000000;stroke-width:1.0;stroke-dasharray:3.0,3.0;"/><path d="M360.5934,23.0371 L362.8712,20 L360.5934,16.9629 L368.1862,20 L360.5934,23.0371 " fill="#000000" style="stroke:#000000;stroke-width:1.0;"/><ellipse cx="319" cy="20" fill="#000000" rx="3" ry="3" style="stroke:#000000;stroke-width:1.0;stroke-dasharray:3.0,3.0;"/><path d="M234,20 L247,20 C256.3614,20 266.5514,20 275.8101,20 " fill="none" style="stroke:#000000;stroke-width:1.0;stroke-dasharray:3.0,3.0;"/><path d="M275.8101,23.0079 L278.0659,20 L275.8101,16.9921 L283.3297,20 L275.8101,23.0079 " fill="#000000" style="stroke:#000000;stroke-width:1.0;"/><ellipse cx="234" cy="20" fill="#000000" rx="3" ry="3" style="stroke:#000000;stroke-width:1.0;stroke-dasharray:3.0,3.0;"/><path d="M135,20 L148,20 C157.2902,20 167.3105,20 176.684,20 " fill="none" style="stroke:#000000;stroke-width:1.0;stroke-dasharray:3.0,3.0;"/><path d="M176.684,23.0765 L178.9914,20 L176.684,16.9235 L184.3753,20 L176.684,23.0765 " fill="#000000" style="stroke:#000000;stroke-width:1.0;"/><ellipse cx="135" cy="20" fill="#000000" rx="3" ry="3" style="stroke:#000000;stroke-width:1.0;stroke-dasharray:3.0,3.0;"/><!--MD5=[521cd7acdc17a5378f3dc682214415ef]
@startyaml
<style>
yamlDiagram {
  node {
    BackGroundColor transparent
    LineColor black
  }
  arrow {
    LineColor black
  }
}
</style>
initial_condition:
  map:
    x0:
      list: [double:]
 @endyaml

PlantUML version 1.2021.7(Sun May 23 12:40:07 GMT 2021)
(GPL source distribution)
Java Runtime: OpenJDK Runtime Environment
JVM: OpenJDK 64-Bit Server VM
Default Encoding: ANSI_X3.4-1968
Language: en
Country: US
--></g></svg>