<?xml version="1.0" encoding="UTF-8" standalone="no"?><svg xmlns="http://www.w3.org/2000/svg" xmlns:xlink="http://www.w3.org/1999/xlink" contentScriptType="application/ecmascript" contentStyleType="text/css" height="253px" preserveAspectRatio="none" style="width:774px;height:253px;background:#FFFFFF;" version="1.1" viewBox="0 0 774 253" width="774px" zoomAndPan="magnify"><defs/><g><rect height="20.2969" rx="5" ry="5" style="stroke:#00000000;stroke-width:1.5;fill:none;" width="75" x="10" y="126.5"/><text fill="#000000" font-family="sans-serif" font-size="14" lengthAdjust="spacing" textLength="43" x="15" y="141.4951">inputs</text><text fill="#000000" font-family="sans-serif" font-size="14" lengthAdjust="spacing" textLength="0" x="80" y="141.4951"/><line style="stroke:#000000;stroke-width:1.0;" x1="63" x2="63" y1="126.5" y2="146.7969"/><rect fill="none" height="20.2969" rx="5" ry="5" style="stroke:#000000;stroke-width:1.5;" width="75" x="10" y="126.5"/><rect height="20.2969" rx="5" ry="5" style="stroke:#00000000;stroke-width:1.5;fill:none;" width="62" x="122" y="126.5"/><text fill="#000000" font-family="sans-serif" font-size="14" lengthAdjust="spacing" textLength="30" x="127" y="141.4951">map</text><text fill="#000000" font-family="sans-serif" font-size="14" lengthAdjust="spacing" textLength="0" x="179" y="141.4951"/><line style="stroke:#000000;stroke-width:1.0;" x1="162" x2="162" y1="126.5" y2="146.7969"/><rect fill="none" height="20.2969" rx="5" ry="5" style="stroke:#000000;stroke-width:1.5;" width="62" x="122" y="126.5"/><rect height="121.7813" rx="5" ry="5" style="stroke:#00000000;stroke-width:1.5;fill:none;" width="145" x="221" y="75.5"/><text fill="#000000" font-family="sans-serif" font-size="14" lengthAdjust="spacing" textLength="74" x="226" y="90.4951">GPS_origin</text><text fill="#000000" font-family="sans-serif" font-size="14" lengthAdjust="spacing" textLength="0" x="361" y="90.4951"/><line style="stroke:#000000;stroke-width:1.0;" x1="344" x2="344" y1="75.5" y2="95.7969"/><line style="stroke:#000000;stroke-width:1.0;" x1="221" x2="366" y1="95.7969" y2="95.7969"/><text fill="#000000" font-family="sans-serif" font-size="14" lengthAdjust="spacing" textLength="109" x="226" y="110.792">vessel_pos_info</text><text fill="#000000" font-family="sans-serif" font-size="14" lengthAdjust="spacing" textLength="0" x="361" y="110.792"/><line style="stroke:#000000;stroke-width:1.0;" x1="344" x2="344" y1="95.7969" y2="116.0938"/><line style="stroke:#000000;stroke-width:1.0;" x1="221" x2="366" y1="116.0938" y2="116.0938"/><text fill="#000000" font-family="sans-serif" font-size="14" lengthAdjust="spacing" textLength="113" x="226" y="131.0889">vessel_gyro_info</text><text fill="#000000" font-family="sans-serif" font-size="14" lengthAdjust="spacing" textLength="0" x="361" y="131.0889"/><line style="stroke:#000000;stroke-width:1.0;" x1="344" x2="344" y1="116.0938" y2="136.3906"/><line style="stroke:#000000;stroke-width:1.0;" x1="221" x2="366" y1="136.3906" y2="136.3906"/><text fill="#000000" font-family="sans-serif" font-size="14" lengthAdjust="spacing" textLength="89" x="226" y="151.3857">fish_pos_info</text><text fill="#000000" font-family="sans-serif" font-size="14" lengthAdjust="spacing" textLength="0" x="361" y="151.3857"/><line style="stroke:#000000;stroke-width:1.0;" x1="344" x2="344" y1="136.3906" y2="156.6875"/><line style="stroke:#000000;stroke-width:1.0;" x1="221" x2="366" y1="156.6875" y2="156.6875"/><text fill="#000000" font-family="sans-serif" font-size="14" lengthAdjust="spacing" textLength="113" x="226" y="171.6826">fish_relative_pos</text><text fill="#000000" font-family="sans-serif" font-size="14" lengthAdjust="spacing" textLength="0" x="361" y="171.6826"/><line style="stroke:#000000;stroke-width:1.0;" x1="344" x2="344" y1="156.6875" y2="176.9844"/><line style="stroke:#000000;stroke-width:1.0;" x1="221" x2="366" y1="176.9844" y2="176.9844"/><text fill="#000000" font-family="sans-serif" font-size="14" lengthAdjust="spacing" textLength="97" x="226" y="191.9795">keep_solution</text><text fill="#000000" font-family="sans-serif" font-size="14" lengthAdjust="spacing" textLength="0" x="361" y="191.9795"/><line style="stroke:#000000;stroke-width:1.0;" x1="344" x2="344" y1="176.9844" y2="197.2813"/><rect fill="none" height="121.7813" rx="5" ry="5" style="stroke:#000000;stroke-width:1.5;" width="145" x="221" y="75.5"/><rect height="20.2969" rx="5" ry="5" style="stroke:#00000000;stroke-width:1.5;fill:none;" width="62" x="403" y="25.5"/><text fill="#000000" font-family="sans-serif" font-size="14" lengthAdjust="spacing" textLength="30" x="408" y="40.4951">map</text><text fill="#000000" font-family="sans-serif" font-size="14" lengthAdjust="spacing" textLength="0" x="460" y="40.4951"/><line style="stroke:#000000;stroke-width:1.0;" x1="443" x2="443" y1="25.5" y2="45.7969"/><rect fill="none" height="20.2969" rx="5" ry="5" style="stroke:#000000;stroke-width:1.5;" width="62" x="403" y="25.5"/><rect height="40.5938" rx="5" ry="5" style="stroke:#00000000;stroke-width:1.5;fill:none;" width="121" x="502" y="10"/><text fill="#000000" font-family="sans-serif" font-size="14" lengthAdjust="spacing" textLength="34" x="507" y="24.9951">topic</text><text fill="#000000" font-family="sans-serif" font-size="14" lengthAdjust="spacing" textLength="54" x="564" y="24.9951">[string:]</text><line style="stroke:#000000;stroke-width:1.0;" x1="559" x2="559" y1="10" y2="30.2969"/><line style="stroke:#000000;stroke-width:1.0;" x1="502" x2="623" y1="30.2969" y2="30.2969"/><text fill="#000000" font-family="sans-serif" font-size="14" lengthAdjust="spacing" textLength="47" x="507" y="45.292">default</text><text fill="#000000" font-family="sans-serif" font-size="14" lengthAdjust="spacing" textLength="0" x="576" y="45.292"/><line style="stroke:#000000;stroke-width:1.0;" x1="559" x2="559" y1="30.2969" y2="50.5938"/><rect fill="none" height="40.5938" rx="5" ry="5" style="stroke:#000000;stroke-width:1.5;" width="121" x="502" y="10"/><rect height="20.2969" rx="5" ry="5" style="stroke:#00000000;stroke-width:1.5;fill:none;" width="102" x="660" y="30.5"/><text fill="#000000" font-family="sans-serif" font-size="14" lengthAdjust="spacing" textLength="19" x="665" y="45.4951">list</text><text fill="#000000" font-family="sans-serif" font-size="14" lengthAdjust="spacing" textLength="63" x="694" y="45.4951">[double:]</text><line style="stroke:#000000;stroke-width:1.0;" x1="689" x2="689" y1="30.5" y2="50.7969"/><rect fill="none" height="20.2969" rx="5" ry="5" style="stroke:#000000;stroke-width:1.5;" width="102" x="660" y="30.5"/><rect height="20.2969" rx="5" ry="5" style="stroke:#00000000;stroke-width:1.5;fill:none;" width="62" x="403" y="69.5"/><text fill="#000000" font-family="sans-serif" font-size="14" lengthAdjust="spacing" textLength="30" x="408" y="84.4951">map</text><text fill="#000000" font-family="sans-serif" font-size="14" lengthAdjust="spacing" textLength="0" x="460" y="84.4951"/><line style="stroke:#000000;stroke-width:1.0;" x1="443" x2="443" y1="69.5" y2="89.7969"/><rect fill="none" height="20.2969" rx="5" ry="5" style="stroke:#000000;stroke-width:1.5;" width="62" x="403" y="69.5"/><rect height="20.2969" rx="5" ry="5" style="stroke:#00000000;stroke-width:1.5;fill:none;" width="108" x="508.5" y="69.5"/><text fill="#000000" font-family="sans-serif" font-size="14" lengthAdjust="spacing" textLength="34" x="513.5" y="84.4951">topic</text><text fill="#000000" font-family="sans-serif" font-size="14" lengthAdjust="spacing" textLength="54" x="557.5" y="84.4951">[string:]</text><line style="stroke:#000000;stroke-width:1.0;" x1="552.5" x2="552.5" y1="69.5" y2="89.7969"/><rect fill="none" height="20.2969" rx="5" ry="5" style="stroke:#000000;stroke-width:1.5;" width="108" x="508.5" y="69.5"/><rect height="20.2969" rx="5" ry="5" style="stroke:#00000000;stroke-width:1.5;fill:none;" width="62" x="403" y="107.5"/><text fill="#000000" font-family="sans-serif" font-size="14" lengthAdjust="spacing" textLength="30" x="408" y="122.4951">map</text><text fill="#000000" font-family="sans-serif" font-size="14" lengthAdjust="spacing" textLength="0" x="460" y="122.4951"/><line style="stroke:#000000;stroke-width:1.0;" x1="443" x2="443" y1="107.5" y2="127.7969"/><rect fill="none" height="20.2969" rx="5" ry="5" style="stroke:#000000;stroke-width:1.5;" width="62" x="403" y="107.5"/><rect height="20.2969" rx="5" ry="5" style="stroke:#00000000;stroke-width:1.5;fill:none;" width="108" x="508.5" y="107.5"/><text fill="#000000" font-family="sans-serif" font-size="14" lengthAdjust="spacing" textLength="34" x="513.5" y="122.4951">topic</text><text fill="#000000" font-family="sans-serif" font-size="14" lengthAdjust="spacing" textLength="54" x="557.5" y="122.4951">[string:]</text><line style="stroke:#000000;stroke-width:1.0;" x1="552.5" x2="552.5" y1="107.5" y2="127.7969"/><rect fill="none" height="20.2969" rx="5" ry="5" style="stroke:#000000;stroke-width:1.5;" width="108" x="508.5" y="107.5"/><rect height="20.2969" rx="5" ry="5" style="stroke:#00000000;stroke-width:1.5;fill:none;" width="62" x="403" y="145.5"/><text fill="#000000" font-family="sans-serif" font-size="14" lengthAdjust="spacing" textLength="30" x="408" y="160.4951">map</text><text fill="#000000" font-family="sans-serif" font-size="14" lengthAdjust="spacing" textLength="0" x="460" y="160.4951"/><line style="stroke:#000000;stroke-width:1.0;" x1="443" x2="443" y1="145.5" y2="165.7969"/><rect fill="none" height="20.2969" rx="5" ry="5" style="stroke:#000000;stroke-width:1.5;" width="62" x="403" y="145.5"/><rect height="20.2969" rx="5" ry="5" style="stroke:#00000000;stroke-width:1.5;fill:none;" width="108" x="508.5" y="145.5"/><text fill="#000000" font-family="sans-serif" font-size="14" lengthAdjust="spacing" textLength="34" x="513.5" y="160.4951">topic</text><text fill="#000000" font-family="sans-serif" font-size="14" lengthAdjust="spacing" textLength="54" x="557.5" y="160.4951">[string:]</text><line style="stroke:#000000;stroke-width:1.0;" x1="552.5" x2="552.5" y1="145.5" y2="165.7969"/><rect fill="none" height="20.2969" rx="5" ry="5" style="stroke:#000000;stroke-width:1.5;" width="108" x="508.5" y="145.5"/><rect height="20.2969" rx="5" ry="5" style="stroke:#00000000;stroke-width:1.5;fill:none;" width="62" x="403" y="183.5"/><text fill="#000000" font-family="sans-serif" font-size="14" lengthAdjust="spacing" textLength="30" x="408" y="198.4951">map</text><text fill="#000000" font-family="sans-serif" font-size="14" lengthAdjust="spacing" textLength="0" x="460" y="198.4951"/><line style="stroke:#000000;stroke-width:1.0;" x1="443" x2="443" y1="183.5" y2="203.7969"/><rect fill="none" height="20.2969" rx="5" ry="5" style="stroke:#000000;stroke-width:1.5;" width="62" x="403" y="183.5"/><rect height="20.2969" rx="5" ry="5" style="stroke:#00000000;stroke-width:1.5;fill:none;" width="108" x="508.5" y="183.5"/><text fill="#000000" font-family="sans-serif" font-size="14" lengthAdjust="spacing" textLength="34" x="513.5" y="198.4951">topic</text><text fill="#000000" font-family="sans-serif" font-size="14" lengthAdjust="spacing" textLength="54" x="557.5" y="198.4951">[string:]</text><line style="stroke:#000000;stroke-width:1.0;" x1="552.5" x2="552.5" y1="183.5" y2="203.7969"/><rect fill="none" height="20.2969" rx="5" ry="5" style="stroke:#000000;stroke-width:1.5;" width="108" x="508.5" y="183.5"/><rect height="20.2969" rx="5" ry="5" style="stroke:#00000000;stroke-width:1.5;fill:none;" width="62" x="403" y="221.5"/><text fill="#000000" font-family="sans-serif" font-size="14" lengthAdjust="spacing" textLength="30" x="408" y="236.4951">map</text><text fill="#000000" font-family="sans-serif" font-size="14" lengthAdjust="spacing" textLength="0" x="460" y="236.4951"/><line style="stroke:#000000;stroke-width:1.0;" x1="443" x2="443" y1="221.5" y2="241.7969"/><rect fill="none" height="20.2969" rx="5" ry="5" style="stroke:#000000;stroke-width:1.5;" width="62" x="403" y="221.5"/><rect height="20.2969" rx="5" ry="5" style="stroke:#00000000;stroke-width:1.5;fill:none;" width="108" x="508.5" y="221.5"/><text fill="#000000" font-family="sans-serif" font-size="14" lengthAdjust="spacing" textLength="34" x="513.5" y="236.4951">topic</text><text fill="#000000" font-family="sans-serif" font-size="14" lengthAdjust="spacing" textLength="54" x="557.5" y="236.4951">[string:]</text><line style="stroke:#000000;stroke-width:1.0;" x1="552.5" x2="552.5" y1="221.5" y2="241.7969"/><rect fill="none" height="20.2969" rx="5" ry="5" style="stroke:#000000;stroke-width:1.5;" width="108" x="508.5" y="221.5"/><path d="M611,40.5 L624,40.5 C633.2427,40.5 643.041,40.5 652.5934,40.5 " fill="none" style="stroke:#000000;stroke-width:1.0;stroke-dasharray:3.0,3.0;"/><path d="M652.5934,43.5371 L654.8712,40.5 L652.5934,37.4629 L660.1862,40.5 L652.5934,43.5371 " fill="#000000" style="stroke:#000000;stroke-width:1.0;"/><ellipse cx="611" cy="40.5" fill="#000000" rx="3" ry="3" style="stroke:#000000;stroke-width:1.0;stroke-dasharray:3.0,3.0;"/><path d="M453,35.5 L466,35.5 C475.2841,35.5 485.0663,35.2639 494.6919,34.8943 " fill="none" style="stroke:#000000;stroke-width:1.0;stroke-dasharray:3.0,3.0;"/><path d="M494.8211,37.9637 L496.9939,34.7974 L494.5627,31.825 L502.3653,34.5713 L494.8211,37.9637 " fill="#000000" style="stroke:#000000;stroke-width:1.0;"/><ellipse cx="453" cy="35.5" fill="#000000" rx="3" ry="3" style="stroke:#000000;stroke-width:1.0;stroke-dasharray:3.0,3.0;"/><path d="M354,85.5 L367,85.5 C369.9524,85.5 396.2638,65.101 414.8895,50.362 " fill="none" style="stroke:#000000;stroke-width:1.0;stroke-dasharray:3.0,3.0;"/><path d="M416.787,52.7529 L416.6826,48.9389 L412.9919,47.9712 L420.8665,45.6182 L416.787,52.7529 " fill="#000000" style="stroke:#000000;stroke-width:1.0;"/><ellipse cx="354" cy="85.5" fill="#000000" rx="3" ry="3" style="stroke:#000000;stroke-width:1.0;stroke-dasharray:3.0,3.0;"/><path d="M453,79.5 L466,79.5 C477.416,79.5 489.5957,79.5 501.313,79.5 " fill="none" style="stroke:#000000;stroke-width:1.0;stroke-dasharray:3.0,3.0;"/><path d="M501.313,82.5482 L503.5992,79.5 L501.313,76.4518 L508.9336,79.5 L501.313,82.5482 " fill="#000000" style="stroke:#000000;stroke-width:1.0;"/><ellipse cx="453" cy="79.5" fill="#000000" rx="3" ry="3" style="stroke:#000000;stroke-width:1.0;stroke-dasharray:3.0,3.0;"/><path d="M354,105.5 L367,105.5 C382.2328,105.5 398.1641,99.5093 410.6135,93.2792 " fill="none" style="stroke:#000000;stroke-width:1.0;stroke-dasharray:3.0,3.0;"/><path d="M412.0744,96.0376 L412.6823,92.1834 L409.1525,90.5207 L417.5095,89.6267 L412.0744,96.0376 " fill="#000000" style="stroke:#000000;stroke-width:1.0;"/><ellipse cx="354" cy="105.5" fill="#000000" rx="3" ry="3" style="stroke:#000000;stroke-width:1.0;stroke-dasharray:3.0,3.0;"/><path d="M453,117.5 L466,117.5 C477.416,117.5 489.5957,117.5 501.313,117.5 " fill="none" style="stroke:#000000;stroke-width:1.0;stroke-dasharray:3.0,3.0;"/><path d="M501.313,120.5482 L503.5992,117.5 L501.313,114.4518 L508.9336,117.5 L501.313,120.5482 " fill="#000000" style="stroke:#000000;stroke-width:1.0;"/><ellipse cx="453" cy="117.5" fill="#000000" rx="3" ry="3" style="stroke:#000000;stroke-width:1.0;stroke-dasharray:3.0,3.0;"/><path d="M354,125.5 L367,125.5 C376.3572,125.5 386.4024,124.7096 395.7785,123.6256 " fill="none" style="stroke:#000000;stroke-width:1.0;stroke-dasharray:3.0,3.0;"/><path d="M396.1659,126.7011 L398.0851,123.335 L395.391,120.5501 L403.4672,122.657 L396.1659,126.7011 " fill="#000000" style="stroke:#000000;stroke-width:1.0;"/><ellipse cx="354" cy="125.5" fill="#000000" rx="3" ry="3" style="stroke:#000000;stroke-width:1.0;stroke-dasharray:3.0,3.0;"/><path d="M453,155.5 L466,155.5 C477.416,155.5 489.5957,155.5 501.313,155.5 " fill="none" style="stroke:#000000;stroke-width:1.0;stroke-dasharray:3.0,3.0;"/><path d="M501.313,158.5482 L503.5992,155.5 L501.313,152.4518 L508.9336,155.5 L501.313,158.5482 " fill="#000000" style="stroke:#000000;stroke-width:1.0;"/><ellipse cx="453" cy="155.5" fill="#000000" rx="3" ry="3" style="stroke:#000000;stroke-width:1.0;stroke-dasharray:3.0,3.0;"/><path d="M354,146.5 L367,146.5 C376.3749,146.5 386.4267,147.3892 395.8034,148.6087 " fill="none" style="stroke:#000000;stroke-width:1.0;stroke-dasharray:3.0,3.0;"/><path d="M395.3675,151.6839 L398.1099,148.9356 L396.2393,145.5335 L403.4915,149.6984 L395.3675,151.6839 " fill="#000000" style="stroke:#000000;stroke-width:1.0;"/><ellipse cx="354" cy="146.5" fill="#000000" rx="3" ry="3" style="stroke:#000000;stroke-width:1.0;stroke-dasharray:3.0,3.0;"/><path d="M453,193.5 L466,193.5 C477.416,193.5 489.5957,193.5 501.313,193.5 " fill="none" style="stroke:#000000;stroke-width:1.0;stroke-dasharray:3.0,3.0;"/><path d="M501.313,196.5482 L503.5992,193.5 L501.313,190.4518 L508.9336,193.5 L501.313,196.5482 " fill="#000000" style="stroke:#000000;stroke-width:1.0;"/><ellipse cx="453" cy="193.5" fill="#000000" rx="3" ry="3" style="stroke:#000000;stroke-width:1.0;stroke-dasharray:3.0,3.0;"/><path d="M354,166.5 L367,166.5 C382.7703,166.5 399.2011,173.0992 411.7848,179.7726 " fill="none" style="stroke:#000000;stroke-width:1.0;stroke-dasharray:3.0,3.0;"/><path d="M410.3153,182.3992 L413.7547,180.8747 L413.2542,177.146 L418.3513,183.4462 L410.3153,182.3992 " fill="#000000" style="stroke:#000000;stroke-width:1.0;"/><ellipse cx="354" cy="166.5" fill="#000000" rx="3" ry="3" style="stroke:#000000;stroke-width:1.0;stroke-dasharray:3.0,3.0;"/><path d="M453,231.5 L466,231.5 C477.416,231.5 489.5957,231.5 501.313,231.5 " fill="none" style="stroke:#000000;stroke-width:1.0;stroke-dasharray:3.0,3.0;"/><path d="M501.313,234.5482 L503.5992,231.5 L501.313,228.4518 L508.9336,231.5 L501.313,234.5482 " fill="#000000" style="stroke:#000000;stroke-width:1.0;"/><ellipse cx="453" cy="231.5" fill="#000000" rx="3" ry="3" style="stroke:#000000;stroke-width:1.0;stroke-dasharray:3.0,3.0;"/><path d="M354,187.5 L367,187.5 C386.4797,187.5 386.728,201.7912 403,212.5 C405.3809,214.0669 407.8834,215.6797 410.3883,217.272 " fill="none" style="stroke:#000000;stroke-width:1.0;stroke-dasharray:3.0,3.0;"/><path d="M408.7395,219.8937 L412.3546,218.5086 L412.0371,214.6504 L416.9425,221.394 L408.7395,219.8937 " fill="#000000" style="stroke:#000000;stroke-width:1.0;"/><ellipse cx="354" cy="187.5" fill="#000000" rx="3" ry="3" style="stroke:#000000;stroke-width:1.0;stroke-dasharray:3.0,3.0;"/><path d="M172,136.5 L185,136.5 C194.2468,136.5 203.939,136.5 213.5617,136.5 " fill="none" style="stroke:#000000;stroke-width:1.0;stroke-dasharray:3.0,3.0;"/><path d="M213.5617,139.577 L215.8695,136.5 L213.5617,133.423 L221.2543,136.5 L213.5617,139.577 " fill="#000000" style="stroke:#000000;stroke-width:1.0;"/><ellipse cx="172" cy="136.5" fill="#000000" rx="3" ry="3" style="stroke:#000000;stroke-width:1.0;stroke-dasharray:3.0,3.0;"/><path d="M73,136.5 L86,136.5 C95.2902,136.5 105.3105,136.5 114.684,136.5 " fill="none" style="stroke:#000000;stroke-width:1.0;stroke-dasharray:3.0,3.0;"/><path d="M114.684,139.5765 L116.9914,136.5 L114.684,133.4235 L122.3753,136.5 L114.684,139.5765 " fill="#000000" style="stroke:#000000;stroke-width:1.0;"/><ellipse cx="73" cy="136.5" fill="#000000" rx="3" ry="3" style="stroke:#000000;stroke-width:1.0;stroke-dasharray:3.0,3.0;"/><!--MD5=[a103b61a68425a50905d22d68168a381]
@startyaml
<style>
yamlDiagram {
  node {
    BackGroundColor transparent
    LineColor black
  }
  arrow {
    LineColor black
  }
}
</style>
inputs:
  map:
    GPS_origin:
      map:
        topic: [string:]
        default:
          list: [double:]
    vessel_pos_info:
      map:
        topic: [string:]
    vessel_gyro_info:
      map:
        topic: [string:]
    fish_pos_info:
      map:
        topic: [string:]
    fish_relative_pos:
      map:
        topic: [string:]
    keep_solution:
      map:
        topic: [string:]
 @endyaml

PlantUML version 1.2021.7(Sun May 23 12:40:07 GMT 2021)
(GPL source distribution)
Java Runtime: OpenJDK Runtime Environment
JVM: OpenJDK 64-Bit Server VM
Default Encoding: ANSI_X3.4-1968
Language: en
Country: US
--></g></svg>