<?xml version="1.0" encoding="UTF-8" standalone="no"?><svg xmlns="http://www.w3.org/2000/svg" xmlns:xlink="http://www.w3.org/1999/xlink" contentScriptType="application/ecmascript" contentStyleType="text/css" height="123px" preserveAspectRatio="none" style="width:250px;height:123px;background:#FFFFFF;" version="1.1" viewBox="0 0 250 123" width="250px" zoomAndPan="magnify"><defs/><g><rect height="20.2969" rx="5" ry="5" style="stroke:#00000000;stroke-width:1.5;fill:none;" width="62" x="10" y="50.5"/><text fill="#000000" font-family="sans-serif" font-size="14" lengthAdjust="spacing" textLength="30" x="15" y="65.4951">map</text><text fill="#000000" font-family="sans-serif" font-size="14" lengthAdjust="spacing" textLength="0" x="67" y="65.4951"/><line style="stroke:#000000;stroke-width:1.0;" x1="50" x2="50" y1="50.5" y2="70.7969"/><rect fill="none" height="20.2969" rx="5" ry="5" style="stroke:#000000;stroke-width:1.5;" width="62" x="10" y="50.5"/><rect height="101.4844" rx="5" ry="5" style="stroke:#00000000;stroke-width:1.5;fill:none;" width="129" x="109" y="10"/><text fill="#000000" font-family="sans-serif" font-size="14" lengthAdjust="spacing" textLength="105" x="114" y="24.9951">initial_condition</text><text fill="#000000" font-family="sans-serif" font-size="14" lengthAdjust="spacing" textLength="0" x="233" y="24.9951"/><line style="stroke:#000000;stroke-width:1.0;" x1="224" x2="224" y1="10" y2="30.2969"/><line style="stroke:#000000;stroke-width:1.0;" x1="109" x2="238" y1="30.2969" y2="30.2969"/><text fill="#000000" font-family="sans-serif" font-size="14" lengthAdjust="spacing" textLength="79" x="114" y="45.292">parameters</text><text fill="#000000" font-family="sans-serif" font-size="14" lengthAdjust="spacing" textLength="0" x="233" y="45.292"/><line style="stroke:#000000;stroke-width:1.0;" x1="224" x2="224" y1="30.2969" y2="50.5938"/><line style="stroke:#000000;stroke-width:1.0;" x1="109" x2="238" y1="50.5938" y2="50.5938"/><text fill="#000000" font-family="sans-serif" font-size="14" lengthAdjust="spacing" textLength="43" x="114" y="65.5889">inputs</text><text fill="#000000" font-family="sans-serif" font-size="14" lengthAdjust="spacing" textLength="0" x="233" y="65.5889"/><line style="stroke:#000000;stroke-width:1.0;" x1="224" x2="224" y1="50.5938" y2="70.8906"/><line style="stroke:#000000;stroke-width:1.0;" x1="109" x2="238" y1="70.8906" y2="70.8906"/><text fill="#000000" font-family="sans-serif" font-size="14" lengthAdjust="spacing" textLength="54" x="114" y="85.8857">outputs</text><text fill="#000000" font-family="sans-serif" font-size="14" lengthAdjust="spacing" textLength="0" x="233" y="85.8857"/><line style="stroke:#000000;stroke-width:1.0;" x1="224" x2="224" y1="70.8906" y2="91.1875"/><line style="stroke:#000000;stroke-width:1.0;" x1="109" x2="238" y1="91.1875" y2="91.1875"/><text fill="#000000" font-family="sans-serif" font-size="14" lengthAdjust="spacing" textLength="56" x="114" y="106.1826">settings</text><text fill="#000000" font-family="sans-serif" font-size="14" lengthAdjust="spacing" textLength="0" x="233" y="106.1826"/><line style="stroke:#000000;stroke-width:1.0;" x1="224" x2="224" y1="91.1875" y2="111.4844"/><rect fill="none" height="101.4844" rx="5" ry="5" style="stroke:#000000;stroke-width:1.5;" width="129" x="109" y="10"/><path d="M60,60.5 L73,60.5 C82.2468,60.5 91.9746,60.5 101.583,60.5 " fill="none" style="stroke:#000000;stroke-width:1.0;stroke-dasharray:3.0,3.0;"/><path d="M101.583,63.5675 L103.8836,60.5 L101.583,57.4325 L109.2516,60.5 L101.583,63.5675 " fill="#000000" style="stroke:#000000;stroke-width:1.0;"/><ellipse cx="60" cy="60.5" fill="#000000" rx="3" ry="3" style="stroke:#000000;stroke-width:1.0;stroke-dasharray:3.0,3.0;"/><!--MD5=[927bfc4d7504d655e92f35b61153e54f]
@startyaml
<style>
yamlDiagram {
  node {
    BackGroundColor transparent
    LineColor black
  }
  arrow {
    LineColor black
  }
}
</style>
map:
  initial_condition: " "
  parameters: " "
  inputs: " "
  outputs: " "
  settings: " "
 @endyaml

PlantUML version 1.2021.7(Sun May 23 12:40:07 GMT 2021)
(GPL source distribution)
Java Runtime: OpenJDK Runtime Environment
JVM: OpenJDK 64-Bit Server VM
Default Encoding: ANSI_X3.4-1968
Language: en
Country: US
--></g></svg>